{
.appVersion = "3074";
classes = (
{
automatic = 1;

glyphs = (
{
color = 6;
glyphname = A;
layers = (
{
anchors = (
{
name = bottom;
position = "{307, 0}";
},
{
name = ogonek;
position = "{648, 10}";
},
{
name = top;
position = "{407, 670}";
}
);
layerId = "CF31647D-EA7E-42DE-ACE7-E9318D6117AA";
paths = (
{
closed = 1;
nodes = (
"184 35 LINE",
"103 35 LINE",
"98 40 LINE",
"376 575 LINE",
"381 575 LINE",
"495 40 LINE",
"490 35 LINE",
"424 35 LINE",
"419 0 LINE",
"653 0 LINE",
"658 35 LINE",
"590 35 LINE",
"450 670 LINE",
"377 670 LINE",
"46 35 LINE",
"-12 35 LINE",
"-17 0 LINE",
"179 0 LINE"
);
},
{
closed = 1;
nodes = (
"177 240 LINE",
"503 240 LINE",
"508 275 LINE",
"182 275 LINE"
);
}
);
width = 700;
},
{
associatedMasterId = "CF31647D-EA7E-42DE-ACE7-E9318D6117AA";
layerId = "25EC9FBE-A88A-4B7D-A850-3B841575AE57";
name = "Feb 1 18, 17:44";
paths = (
{
closed = 1;
nodes = (
"548 271 LINE",
"234 271 LINE",
"234 241 LINE",
"548 241 LINE"
);
},
{
closed = 1;
nodes = (
"558 30 LINE",
"476 30 LINE",
"476 0 LINE",
"737 0 LINE",
"737 30 LINE",
"656 30 LINE",
"445 670 LINE",
"357 670 LINE",
"131 30 LINE",
"50 30 LINE",
"50 0 LINE",
"247 0 LINE",
"247 30 LINE",
"170 30 LINE",
"373 611 LINE"
);
}
);
width = 600;
},
{
anchors = (
{
name = bottom;
position = "{265, 0}";
},
{
name = ogonek;
position = "{602, 10}";
},
{
name = top;
position = "{409, 670}";
}
);
layerId = "37DD2CA1-C758-4BBE-932B-6884A881B1A3";
paths = (
{
closed = 1;
nodes = (
"166 35 LINE",
"83 35 LINE",
"73 45 LINE",
"320 495 LINE",
"325 495 LINE",
"441 45 LINE",
"431 35 LINE",
"372 35 LINE",
"367 0 LINE",
"663 0 LINE",
"668 35 LINE",
"610 35 LINE",
"440 670 LINE",
"370 670 LINE",
"19 35 LINE",
"-39 35 LINE",
"-44 0 LINE",
"161 0 LINE"
);
},
{
closed = 1;
nodes = (
"156 220 LINE",
"482 220 LINE",
"487 255 LINE",
"161 255 LINE"
);
}
);
width = 692;
}
);
leftKerningGroup = A;
rightKerningGroup = A;
unicode = 0041;
},
{
color = 6;
glyphname = Aogonek;
layers = (
{
anchors = (
{
name = _ogonek;
position = "{551, 10}";
},
{
name = bottom;
position = "{319, 0}";
},
{
name = ogonek;
position = "{601, 10}";
},
{
name = top;
position = "{413, 670}";
}
);
layerId = "CF31647D-EA7E-42DE-ACE7-E9318D6117AA";
paths = (
{
closed = 1;
nodes = (
"184 35 LINE",
"103 35 LINE",
"98 40 LINE",
"376 575 LINE",
"381 575 LINE",
"503 0 LINE",
"653 0 LINE",
"658 35 LINE",
"590 35 LINE",
"450 670 LINE",
"377 670 LINE",
"46 35 LINE",
"-12 35 LINE",
"-17 0 LINE",
"179 0 LINE"
);
},
{
closed = 1;
nodes = (
"176 240 LINE",
"502 240 LINE",
"507 275 LINE",
"181 275 LINE"
);
},
{
closed = 1;
nodes = (
"414 -16 OFFCURVE",
"326 -74 OFFCURVE",
"326 -162 CURVE SMOOTH",
"326 -215 OFFCURVE",
"364 -250 OFFCURVE",
"425 -250 CURVE SMOOTH",
"469 -250 OFFCURVE",
"505 -232 OFFCURVE",
"545 -190 CURVE",
"522 -167 LINE",
"497 -190 OFFCURVE",
"474 -200 OFFCURVE",
"451 -200 CURVE SMOOTH",
"422 -200 OFFCURVE",
"407 -178 OFFCURVE",
"407 -151 CURVE SMOOTH",
"407 -98 OFFCURVE",
"454 -44 OFFCURVE",
"552 0 CURVE",
"541 30 LINE"
);
}
);
width = 700;
},
{
anchors = (
{
name = _ogonek;
position = "{542, 10}";
},
{
name = bottom;
position = "{315, 0}";
},
{
name = ogonek;
position = "{602, 10}";
},
{
name = top;
position = "{409, 670}";
}
);
layerId = "37DD2CA1-C758-4BBE-932B-6884A881B1A3";
paths = (
{
closed = 1;
nodes = (
"166 35 LINE",
"83 35 LINE",
"73 45 LINE",
"321 495 LINE",
"326 495 LINE",
"453 0 LINE",
"663 0 LINE",
"668 35 LINE",
"610 35 LINE",
"440 670 LINE",
"370 670 LINE",
"19 35 LINE",
"-39 35 LINE",
"-44 0 LINE",
"161 0 LINE"
);
},
{
closed = 1;
nodes = (
"156 220 LINE",
"482 220 LINE",
"487 255 LINE",
"161 255 LINE"
);
},
{
closed = 1;
nodes = (
"364 -15 OFFCURVE",
"276 -77 OFFCURVE",
"276 -164 CURVE SMOOTH",
"276 -217 OFFCURVE",
"315 -250 OFFCURVE",
"387 -250 CURVE SMOOTH",
"445 -250 OFFCURVE",
"483 -228 OFFCURVE",
"527 -180 CURVE",
"503 -157 LINE",
"474 -183 OFFCURVE",
"453 -190 OFFCURVE",
"433 -190 CURVE SMOOTH",
"411 -190 OFFCURVE",
"392 -180 OFFCURVE",
"392 -150 CURVE SMOOTH",
"392 -104 OFFCURVE",
"429 -54 OFFCURVE",
"527 0 CURVE",
"521 25 LINE"
);
}
);
width = 692;
}
);
leftKerningGroup = A;
leftMetricsKey = "=A";
rightKerningGroup = A;
rightMetricsKey = "=A";
unicode = 0104;
},
{
color = 6;
glyphname = Aring;
layers = (
{
anchors = (
{
name = bottom;
position = "{307, 0}";
},
{
name = ogonek;
position = "{648, 10}";
},
{
name = top;
position = "{423, 747}";
}
);
layerId = "CF31647D-EA7E-42DE-ACE7-E9318D6117AA";
paths = (
{
closed = 1;
nodes = (
"184 35 LINE",
"103 35 LINE",
"98 40 LINE",
"376 575 LINE",
"381 575 LINE",
"495 40 LINE",
"490 35 LINE",
"424 35 LINE",
"419 0 LINE",
"653 0 LINE",
"658 35 LINE",
"590 35 LINE",
"450 670 LINE",
"377 670 LINE",
"46 35 LINE",
"-12 35 LINE",
"-17 0 LINE",
"179 0 LINE"
);
},
{
closed = 1;
nodes = (
"177 240 LINE",
"503 240 LINE",
"508 275 LINE",
"182 275 LINE"
);
},
{
closed = 1;
nodes = (
"376 826 OFFCURVE",
"321 784 OFFCURVE",
"321 726 CURVE SMOOTH",
"321 679 OFFCURVE",
"360 646 OFFCURVE",
"409 646 CURVE SMOOTH",
"468 646 OFFCURVE",
"523 688 OFFCURVE",
"523 746 CURVE SMOOTH",
"523 793 OFFCURVE",
"484 826 OFFCURVE",
"435 826 CURVE SMOOTH"
);
},
{
closed = 1;
nodes = (
"392 671 OFFCURVE",
"376 690 OFFCURVE",
"376 723 CURVE SMOOTH",
"376 771 OFFCURVE",
"398 801 OFFCURVE",
"429 801 CURVE SMOOTH",
"452 801 OFFCURVE",
"468 782 OFFCURVE",
"468 749 CURVE SMOOTH",
"468 701 OFFCURVE",
"446 671 OFFCURVE",
"415 671 CURVE SMOOTH"
);
}
);
width = 700;
},
{
anchors = (
{
name = bottom;
position = "{265, 0}";
},
{
name = ogonek;
position = "{602, 10}";
},
{
name = top;
position = "{418, 771}";
}
);
layerId = "37DD2CA1-C758-4BBE-932B-6884A881B1A3";
paths = (
{
closed = 1;
nodes = (
"166 35 LINE",
"83 35 LINE",
"73 45 LINE",
"320 495 LINE",
"325 495 LINE",
"441 45 LINE",
"431 35 LINE",
"372 35 LINE",
"367 0 LINE",
"663 0 LINE",
"668 35 LINE",
"610 35 LINE",
"440 670 LINE",
"370 670 LINE",
"19 35 LINE",
"-39 35 LINE",
"-44 0 LINE",
"161 0 LINE"
);
},
{
closed = 1;
nodes = (
"156 220 LINE",
"482 220 LINE",
"487 255 LINE",
"161 255 LINE"
);
},
{
closed = 1;
nodes = (
"344 820 OFFCURVE",
"291 778 OFFCURVE",
"291 720 CURVE SMOOTH",
"291 673 OFFCURVE",
"331 640 OFFCURVE",
"399 640 CURVE SMOOTH",
"479 640 OFFCURVE",
"533 682 OFFCURVE",
"533 740 CURVE SMOOTH",
"533 787 OFFCURVE",
"493 820 OFFCURVE",
"425 820 CURVE SMOOTH"
);
},
{
closed = 1;
nodes = (
"388 670 OFFCURVE",
"376 687 OFFCURVE",
"376 718 CURVE SMOOTH",
"376 757 OFFCURVE",
"393 790 OFFCURVE",
"418 790 CURVE SMOOTH",
"436 790 OFFCURVE",
"448 773 OFFCURVE",
"448 742 CURVE SMOOTH",
"448 703 OFFCURVE",
"431 670 OFFCURVE",
"405 670 CURVE SMOOTH"
);
}
);
width = 692;
}
);
leftKerningGroup = A;
leftMetricsKey = "=A";
rightKerningGroup = A;
rightMetricsKey = "=A";
unicode = 00C5;
},
{
color = 6;
glyphname = AE;
layers = (
{
anchors = (
{
name = bottom;
position = "{459, 0}";
},
{
name = top;
position = "{459, 670}";
}
);
layerId = "CF31647D-EA7E-42DE-ACE7-E9318D6117AA";
paths = (
{
closed = 1;
nodes = (
"204 240 LINE",
"470 240 LINE",
"475 275 LINE",
"209 275 LINE"
);
},
{
closed = 1;
nodes = (
"779 85 OFFCURVE",
"718 35 OFFCURVE",
"602 35 CURVE SMOOTH",
"487 35 LINE",
"482 40 LINE",
"522 330 LINE",
"605 330 LINE SMOOTH",
"662 330 OFFCURVE",
"687 308 OFFCURVE",
"680 220 CURVE",
"715 220 LINE",
"751 475 LINE",
"716 475 LINE",
"698 387 OFFCURVE",
"667 365 OFFCURVE",
"610 365 CURVE SMOOTH",
"527 365 LINE",
"564 630 LINE",
"569 635 LINE",
"676 635 LINE SMOOTH",
"792 635 OFFCURVE",
"837 605 OFFCURVE",
"850 500 CURVE",
"885 510 LINE",
"871 670 LINE",
"480 670 LINE",
"11 35 LINE",
"-47 35 LINE",
"-52 0 LINE",
"146 0 LINE",
"151 35 LINE",
"71 35 LINE",
"66 40 LINE",
"462 575 LINE",
"467 575 LINE",
"392 40 LINE",
"387 35 LINE",
"306 35 LINE",
"301 0 LINE",
"787 0 LINE",
"857 190 LINE",
"822 190 LINE"
);
}
);
width = 903;
},
{
anchors = (
{
name = bottom;
position = "{467, 0}";
},
{
name = top;
position = "{467, 670}";
}
);
layerId = "37DD2CA1-C758-4BBE-932B-6884A881B1A3";
paths = (
{
closed = 1;
nodes = (
"177 220 LINE",
"503 220 LINE",
"508 255 LINE",
"182 255 LINE"
);
},
{
closed = 1;
nodes = (
"777 85 OFFCURVE",
"686 35 OFFCURVE",
"590 35 CURVE SMOOTH",
"550 35 LINE",
"540 45 LINE",
"580 330 LINE",
"613 330 LINE SMOOTH",
"670 330 OFFCURVE",
"717 288 OFFCURVE",
"708 220 CURVE",
"743 220 LINE",
"779 475 LINE",
"744 475 LINE",
"734 407 OFFCURVE",
"675 365 OFFCURVE",
"618 365 CURVE SMOOTH",
"585 365 LINE",
"622 625 LINE",
"632 635 LINE",
"664 635 LINE SMOOTH",
"760 635 OFFCURVE",
"835 605 OFFCURVE",
"868 500 CURVE",
"903 510 LINE",
"889 670 LINE",
"471 670 LINE",
"9 35 LINE",
"-49 35 LINE",
"-54 0 LINE",
"156 0 LINE",
"161 35 LINE",
"80 35 LINE",
"70 45 LINE",
"455 579 LINE",
"460 579 LINE",
"385 45 LINE",
"375 35 LINE",
"319 35 LINE",
"314 0 LINE",
"805 0 LINE",
"875 190 LINE",
"840 190 LINE"
);
}
);
width = 906;
}
);
leftKerningGroup = A;
rightKerningGroup = E;
rightMetricsKey = "=E";
unicode = 00C6;
},
{
color = 6;
glyphname = B;
layers = (
{
anchors = (
{
name = bottom;
position = "{311, 0}";
},
{
name = top;
position = "{405, 670}";
}
);
layerId = "CF31647D-EA7E-42DE-ACE7-E9318D6117AA";
paths = (
{
closed = 1;
nodes = (
"568 378 OFFCURVE",
"647 434 OFFCURVE",
"647 526 CURVE SMOOTH",
"647 640 OFFCURVE",
"525 670 OFFCURVE",
"417 670 CURVE SMOOTH",
"112 670 LINE",
"107 635 LINE",
"187 635 LINE",
"192 630 LINE",
"109 40 LINE",
"104 35 LINE",
"23 35 LINE",
"18 0 LINE",
"363 0 LINE SMOOTH",
"473 0 OFFCURVE",
"641 61 OFFCURVE",
"641 206 CURVE SMOOTH",
"641 291 OFFCURVE",
"574 342 OFFCURVE",
"469 353 CURVE"
);
},
{
closed = 1;
nodes = (
"392 635 LINE SMOOTH",
"479 635 OFFCURVE",
"552 603 OFFCURVE",
"552 511 CURVE SMOOTH",
"552 409 OFFCURVE",
"462 365 OFFCURVE",
"354 365 CURVE SMOOTH",
"244 365 LINE",
"282 630 LINE",
"287 635 LINE"
);
},
{
closed = 1;
nodes = (
"204 35 LINE",
"199 40 LINE",
"239 330 LINE",
"389 330 LINE SMOOTH",
"476 330 OFFCURVE",
"546 282 OFFCURVE",
"546 191 CURVE SMOOTH",
"546 87 OFFCURVE",
"455 35 OFFCURVE",
"348 35 CURVE SMOOTH"
);
}
);
width = 681;
},
{
associatedMasterId = "CF31647D-EA7E-42DE-ACE7-E9318D6117AA";
layerId = "1CD4FF56-0815-4EA0-9AF3-5C8F5A32FB35";
name = "Feb 1 18, 18:28";
paths = (
{
closed = 1;
nodes = (
"133 0 LINE",
"223 0 LINE",
"257 0 LINE",
"333 0 LINE",
"355 0 OFFCURVE",
"377 0 OFFCURVE",
"395 0 CURVE",
"496 0 OFFCURVE",
"617 49 OFFCURVE",
"617 178 CURVE",
"617 272 OFFCURVE",
"541 326 OFFCURVE",
"449 346 CURVE",
"521 368 OFFCURVE",
"589 414 OFFCURVE",
"589 499 CURVE",
"589 602 OFFCURVE",
"515 670 OFFCURVE",
"388 670 CURVE",
"223 670 LINE",
"50 670 LINE",
"50 640 LINE",
"133 640 LINE",
"133 30 LINE",
"50 30 LINE",
"50 0 LINE"
);
},
{
closed = 1;
nodes = (
"223 326 LINE",
"232 326 OFFCURVE",
"368 326 OFFCURVE",
"382 326 CURVE",
"485 326 OFFCURVE",
"528 252 OFFCURVE",
"528 181 CURVE",
"528 97 OFFCURVE",
"473 30 OFFCURVE",
"380 30 CURVE",
"374 30 OFFCURVE",
"223 30 OFFCURVE",
"223 30 CURVE"
);
},
{
closed = 1;
nodes = (
"223 640 LINE",
"259 640 OFFCURVE",
"330 640 OFFCURVE",
"351 640 CURVE",
"454 640 OFFCURVE",
"499 570 OFFCURVE",
"499 501 CURVE",
"499 420 OFFCURVE",
"449 356 OFFCURVE",
"356 356 CURVE",
"347 356 OFFCURVE",
"232 356 OFFCURVE",
"223 356 CURVE"
);
}
);
width = 600;
},
{
anchors = (
{
name = bottom;
position = "{310, 0}";
},
{
name = top;
position = "{404, 670}";
}
);
layerId = "37DD2CA1-C758-4BBE-932B-6884A881B1A3";
paths = (
{
closed = 1;
nodes = (
"611 375 OFFCURVE",
"676 437 OFFCURVE",
"676 528 CURVE SMOOTH",
"676 635 OFFCURVE",
"562 670 OFFCURVE",
"436 670 CURVE SMOOTH",
"91 670 LINE",
"86 635 LINE",
"140 635 LINE",
"150 625 LINE",
"68 45 LINE",
"58 35 LINE",
"2 35 LINE",
"-3 0 LINE",
"382 0 LINE SMOOTH",
"503 0 OFFCURVE",
"659 58 OFFCURVE",
"659 196 CURVE SMOOTH",
"659 284 OFFCURVE",
"585 341 OFFCURVE",
"472 350 CURVE"
);
},
{
closed = 1;
nodes = (
"391 635 LINE SMOOTH",
"467 635 OFFCURVE",
"511 593 OFFCURVE",
"511 506 CURVE SMOOTH",
"511 405 OFFCURVE",
"438 355 OFFCURVE",
"362 355 CURVE SMOOTH",
"267 355 LINE",
"305 625 LINE",
"315 635 LINE"
);
},
{
closed = 1;
nodes = (
"234 35 LINE",
"224 45 LINE",
"262 320 LINE",
"387 320 LINE SMOOTH",
"442 320 OFFCURVE",
"494 274 OFFCURVE",
"494 187 CURVE SMOOTH",
"494 85 OFFCURVE",
"423 35 OFFCURVE",
"347 35 CURVE SMOOTH"
);
}
);
width = 695;
}
);
leftMetricsKey = "=H";
rightKerningGroup = B;
rightMetricsKey = "=O*0.7";
unicode = 0042;
},
{
color = 6;
glyphname = C;
layers = (
{
anchors = (
{
name = bottom;
position = "{354, 0}";
},
{
name = top;
position = "{448, 670}";
}
);
guideLines = (
{
angle = 102.68;
position = "{668, 467}";
}
);
layerId = "CF31647D-EA7E-42DE-ACE7-E9318D6117AA";
paths = (
{
closed = 1;
nodes = (
"223 35 OFFCURVE",
"158 136 OFFCURVE",
"158 292 CURVE SMOOTH",
"158 498 OFFCURVE",
"271 640 OFFCURVE",
"441 640 CURVE SMOOTH",
"514 640 OFFCURVE",
"614 614 OFFCURVE",
"643 467 CURVE",
"678 477 LINE",
"672 540 OFFCURVE",
"670 602 OFFCURVE",
"675 670 CURVE",
"640 670 LINE",
"613 630 LINE",
"563 665 OFFCURVE",
"515 680 OFFCURVE",
"451 680 CURVE SMOOTH",
"242 680 OFFCURVE",
"63 523 OFFCURVE",
"63 294 CURVE SMOOTH",
"63 115 OFFCURVE",
"173 -10 OFFCURVE",
"338 -10 CURVE SMOOTH",
"339 -10 LINE SMOOTH",
"472 -10 OFFCURVE",
"558 41 OFFCURVE",
"645 143 CURVE",
"615 166 LINE",
"527 73 OFFCURVE",
"448 35 OFFCURVE",
"362 35 CURVE SMOOTH"
);
}
);
width = 688;
},
{
associatedMasterId = "CF31647D-EA7E-42DE-ACE7-E9318D6117AA";
layerId = "9D8B59A9-6F27-42AB-A2CD-78294335CAC1";
name = "Jan 31 18, 16:07";
paths = (
{
closed = 1;
nodes = (
"296 32 OFFCURVE",
"137 87 OFFCURVE",
"137 322 CURVE SMOOTH",
"137 584 OFFCURVE",
"298 638 OFFCURVE",
"387 638 CURVE SMOOTH",
"457 638 OFFCURVE",
"573 610 OFFCURVE",
"622 449 CURVE",
"654 457 LINE",
"654 459 OFFCURVE",
"622 596 OFFCURVE",
"622 663 CURVE",
"591 660 LINE",
"571 620 LINE",
"544 636 OFFCURVE",
"494 673 OFFCURVE",
"374 673 CURVE SMOOTH",
"251 673 OFFCURVE",
"50 572 OFFCURVE",
"50 322 CURVE SMOOTH",
"50 127 OFFCURVE",
"230 -3 OFFCURVE",
"374 -3 CURVE SMOOTH",
"487 -3 OFFCURVE",
"598 63 OFFCURVE",
"653 158 CURVE",
"626 172 LINE",
"576 85 OFFCURVE",
"476 32 OFFCURVE",
"387 32 CURVE SMOOTH"
);
}
);
width = 600;
},
{
anchors = (
{
name = bottom;
position = "{361, 0}";
},
{
name = top;
position = "{455, 670}";
}
);
guideLines = (
{
angle = 196.858;
position = "{635, 442}";
},
{
angle = 242.301;
position = "{576, 650}";
}
);
layerId = "37DD2CA1-C758-4BBE-932B-6884A881B1A3";
paths = (
{
closed = 1;
nodes = (
"262 40 OFFCURVE",
"216 154 OFFCURVE",
"216 295 CURVE SMOOTH",
"216 481 OFFCURVE",
"297 640 OFFCURVE",
"445 640 CURVE SMOOTH",
"533 640 OFFCURVE",
"596 583 OFFCURVE",
"632 437 CURVE",
"666 447 LINE",
"663 510 OFFCURVE",
"668 602 OFFCURVE",
"672 670 CURVE",
"637 670 LINE",
"618 640 LINE",
"581 661 OFFCURVE",
"531 680 OFFCURVE",
"456 680 CURVE SMOOTH",
"232 680 OFFCURVE",
"51 513 OFFCURVE",
"51 289 CURVE SMOOTH",
"51 106 OFFCURVE",
"171 -10 OFFCURVE",
"346 -10 CURVE SMOOTH",
"347 -10 LINE SMOOTH",
"470 -10 OFFCURVE",
"570 43 OFFCURVE",
"654 149 CURVE",
"624 172 LINE",
"550 86 OFFCURVE",
"471 40 OFFCURVE",
"390 40 CURVE SMOOTH"
);
}
);
width = 687;
}
);
leftKerningGroup = O;
leftMetricsKey = "=O";
rightKerningGroup = O;
unicode = 0043;
},
{
color = 6;
glyphname = D;
layers = (
{
anchors = (
{
name = bottom;
position = "{343, 0}";
},
{
name = center;
position = "{195, 335}";
},
{
name = top;
position = "{437, 670}";
}
);
layerId = "CF31647D-EA7E-42DE-ACE7-E9318D6117AA";
paths = (
{
closed = 1;
nodes = (
"112 670 LINE",
"107 635 LINE",
"187 635 LINE",
"192 630 LINE",
"109 40 LINE",
"104 35 LINE",
"23 35 LINE",
"18 0 LINE",
"328 0 LINE SMOOTH",
"541 0 OFFCURVE",
"721 163 OFFCURVE",
"721 383 CURVE SMOOTH",
"721 564 OFFCURVE",
"606 670 OFFCURVE",
"412 670 CURVE SMOOTH"
);
},
{
closed = 1;
nodes = (
"204 35 LINE",
"199 40 LINE",
"282 630 LINE",
"287 635 LINE",
"397 635 LINE SMOOTH",
"542 635 OFFCURVE",
"624 533 OFFCURVE",
"624 376 CURVE SMOOTH",
"624 183 OFFCURVE",
"500 35 OFFCURVE",
"333 35 CURVE SMOOTH"
);
}
);
width = 753;
},
{
associatedMasterId = "CF31647D-EA7E-42DE-ACE7-E9318D6117AA";
layerId = "F372716C-5DCA-4415-A69B-0054514E074E";
name = "Jan 30 18, 19:51";
paths = (
{
closed = 1;
nodes = (
"50 0 OFFCURVE",
"281 0 OFFCURVE",
"335 0 CURVE",
"459 0 OFFCURVE",
"660 75 OFFCURVE",
"660 343 CURVE",
"660 611 OFFCURVE",
"429 670 OFFCURVE",
"335 670 CURVE",
"280 670 OFFCURVE",
"50 670 OFFCURVE",
"50 670 CURVE",
"50 640 LINE",
"133 640 LINE",
"133 30 LINE",
"50 30 LINE",
"50 0 LINE"
);
},
{
closed = 1;
nodes = (
"223 30 LINE",
"223 640 LINE",
"242 640 OFFCURVE",
"272 640 OFFCURVE",
"301 640 CURVE",
"516 640 OFFCURVE",
"569 475 OFFCURVE",
"569 343 CURVE",
"569 219 OFFCURVE",
"523 29 OFFCURVE",
"301 29 CURVE",
"274 29 OFFCURVE",
"242 29 OFFCURVE",
"223 29 CURVE"
);
}
);
width = 600;
},
{
anchors = (
{
name = bottom;
position = "{345, 0}";
},
{
name = center;
position = "{192, 335}";
},
{
name = top;
position = "{439, 670}";
}
);
layerId = "37DD2CA1-C758-4BBE-932B-6884A881B1A3";
paths = (
{
closed = 1;
nodes = (
"91 670 LINE",
"86 635 LINE",
"141 635 LINE",
"150 625 LINE",
"68 45 LINE",
"57 35 LINE",
"2 35 LINE",
"-3 0 LINE",
"342 0 LINE SMOOTH",
"521 0 OFFCURVE",
"734 151 OFFCURVE",
"734 396 CURVE SMOOTH",
"734 594 OFFCURVE",
"585 670 OFFCURVE",
"426 670 CURVE SMOOTH"
);
},
{
closed = 1;
nodes = (
"232 35 LINE",
"223 45 LINE",
"305 625 LINE",
"316 635 LINE",
"391 635 LINE SMOOTH",
"501 635 OFFCURVE",
"569 543 OFFCURVE",
"569 381 CURVE SMOOTH",
"569 173 OFFCURVE",
"441 35 OFFCURVE",
"307 35 CURVE SMOOTH"
);
}
);
width = 756;
}
);
leftMetricsKey = "=H";
rightKerningGroup = O;
rightMetricsKey = "=O";
unicode = 0044;
},
{
color = 6;
glyphname = Eth;
layers = (
{
anchors = (
{
name = bottom;
position = "{343, 0}";
},
{
name = center;
position = "{195, 335}";
},
{
name = top;
position = "{437, 670}";
}
);
layerId = "CF31647D-EA7E-42DE-ACE7-E9318D6117AA";
paths = (
{
closed = 1;
nodes = (
"112 670 LINE",
"107 635 LINE",
"187 635 LINE",
"192 630 LINE",
"109 40 LINE",
"104 35 LINE",
"23 35 LINE",
"18 0 LINE",
"328 0 LINE SMOOTH",
"541 0 OFFCURVE",
"721 163 OFFCURVE",
"721 383 CURVE SMOOTH",
"721 564 OFFCURVE",
"606 670 OFFCURVE",
"412 670 CURVE SMOOTH"
);
},
{
closed = 1;
nodes = (
"204 35 LINE",
"199 40 LINE",
"282 630 LINE",
"287 635 LINE",
"397 635 LINE SMOOTH",
"542 635 OFFCURVE",
"624 533 OFFCURVE",
"624 376 CURVE SMOOTH",
"624 183 OFFCURVE",
"500 35 OFFCURVE",
"333 35 CURVE SMOOTH"
);
},
{
closed = 1;
nodes = (
"73 317 LINE",
"393 317 LINE",
"397 352 LINE",
"77 352 LINE"
);
}
);
width = 753;
},
{
anchors = (
{
name = bottom;
position = "{345, 0}";
},
{
name = center;
position = "{192, 335}";
},
{
name = top;
position = "{439, 670}";
}
);
layerId = "37DD2CA1-C758-4BBE-932B-6884A881B1A3";
paths = (
{
closed = 1;
nodes = (
"91 670 LINE",
"86 635 LINE",
"141 635 LINE",
"150 625 LINE",
"68 45 LINE",
"57 35 LINE",
"2 35 LINE",
"-3 0 LINE",
"342 0 LINE SMOOTH",
"521 0 OFFCURVE",
"734 151 OFFCURVE",
"734 396 CURVE SMOOTH",
"734 594 OFFCURVE",
"585 670 OFFCURVE",
"426 670 CURVE SMOOTH"
);
},
{
closed = 1;
nodes = (
"232 35 LINE",
"223 45 LINE",
"305 625 LINE",
"316 635 LINE",
"391 635 LINE SMOOTH",
"501 635 OFFCURVE",
"569 543 OFFCURVE",
"569 381 CURVE SMOOTH",
"569 173 OFFCURVE",
"441 35 OFFCURVE",
"307 35 CURVE SMOOTH"
);
},
{
closed = 1;
nodes = (
"40 317 LINE",
"430 317 LINE",
"434 352 LINE",
"44 352 LINE"
);
}
);
width = 756;
}
);
rightKerningGroup = O;
unicode = 00D0;
},
{
color = 6;
glyphname = E;
layers = (
{
anchors = (
{
name = bottom;
position = "{278, 0}";
},
{
name = ogonek;
position = "{534, 0}";
},
{
name = top;
position = "{372, 670}";
},
{
name = topleft;
position = "{82, 670}";
}
);
guideLines = (
{
angle = 102.68;
position = "{559, 590}";
}
);
layerId = "CF31647D-EA7E-42DE-ACE7-E9318D6117AA";
paths = (
{
closed = 1;
nodes = (
"526 85 OFFCURVE",
"465 35 OFFCURVE",
"349 35 CURVE SMOOTH",
"204 35 LINE",
"199 40 LINE",
"239 330 LINE",
"342 330 LINE SMOOTH",
"399 330 OFFCURVE",
"424 308 OFFCURVE",
"417 220 CURVE",
"452 220 LINE",
"488 475 LINE",
"453 475 LINE",
"435 387 OFFCURVE",
"404 365 OFFCURVE",
"347 365 CURVE SMOOTH",
"244 365 LINE",
"281 630 LINE",
"286 635 LINE",
"413 635 LINE SMOOTH",
"529 635 OFFCURVE",
"574 605 OFFCURVE",
"587 500 CURVE",
"622 510 LINE",
"608 670 LINE",
"112 670 LINE",
"107 635 LINE",
"186 635 LINE",
"191 630 LINE",
"109 40 LINE",
"104 35 LINE",
"23 35 LINE",
"18 0 LINE",
"534 0 LINE",
"604 190 LINE",
"569 190 LINE"
);
}
);
width = 650;
},
{
anchors = (
{
name = bottom;
position = "{271, 0}";
},
{
name = ogonek;
position = "{518, 0}";
},
{
name = top;
position = "{365, 670}";
},
{
name = topleft;
position = "{81, 670}";
}
);
layerId = "37DD2CA1-C758-4BBE-932B-6884A881B1A3";
paths = (
{
closed = 1;
nodes = (
"490 85 OFFCURVE",
"399 35 OFFCURVE",
"303 35 CURVE SMOOTH",
"233 35 LINE",
"223 45 LINE",
"263 330 LINE",
"316 330 LINE SMOOTH",
"373 330 OFFCURVE",
"420 288 OFFCURVE",
"411 220 CURVE",
"446 220 LINE",
"482 475 LINE",
"447 475 LINE",
"437 407 OFFCURVE",
"378 365 OFFCURVE",
"321 365 CURVE SMOOTH",
"268 365 LINE",
"305 625 LINE",
"315 635 LINE",
"367 635 LINE SMOOTH",
"463 635 OFFCURVE",
"538 605 OFFCURVE",
"571 500 CURVE",
"606 510 LINE",
"592 670 LINE",
"91 670 LINE",
"86 635 LINE",
"140 635 LINE",
"150 625 LINE",
"68 45 LINE",
"58 35 LINE",
"2 35 LINE",
"-3 0 LINE",
"518 0 LINE",
"588 190 LINE",
"553 190 LINE"
);
}
);
width = 619;
}
);
leftMetricsKey = "=H";
rightMetricsKey = "=H*0.8";
unicode = 0045;
},
{
color = 6;
glyphname = F;
layers = (
{
anchors = (
{
name = bottom;
position = "{253, 0}";
},
{
name = top;
position = "{347, 670}";
}
);
layerId = "CF31647D-EA7E-42DE-ACE7-E9318D6117AA";
paths = (
{
closed = 1;
nodes = (
"318 0 LINE",
"323 35 LINE",
"204 35 LINE",
"199 40 LINE",
"236 310 LINE",
"349 310 LINE SMOOTH",
"406 310 OFFCURVE",
"431 288 OFFCURVE",
"424 200 CURVE",
"459 200 LINE",
"495 455 LINE",
"460 455 LINE",
"442 367 OFFCURVE",
"411 345 OFFCURVE",
"354 345 CURVE SMOOTH",
"241 345 LINE",
"281 630 LINE",
"286 635 LINE",
"383 635 LINE SMOOTH",
"499 635 OFFCURVE",
"544 605 OFFCURVE",
"557 500 CURVE",
"592 510 LINE",
"578 670 LINE",
"112 670 LINE",
"107 635 LINE",
"186 635 LINE",
"191 630 LINE",
"109 40 LINE",
"104 35 LINE",
"23 35 LINE",
"18 0 LINE"
);
}
);
width = 581;
},
{
anchors = (
{
name = bottom;
position = "{249, 0}";
},
{
name = top;
position = "{343, 670}";
}
);
layerId = "37DD2CA1-C758-4BBE-932B-6884A881B1A3";
paths = (
{
closed = 1;
nodes = (
"307 0 LINE",
"312 35 LINE",
"233 35 LINE",
"223 45 LINE",
"260 310 LINE",
"333 310 LINE SMOOTH",
"390 310 OFFCURVE",
"438 268 OFFCURVE",
"428 200 CURVE",
"463 200 LINE",
"499 455 LINE",
"464 455 LINE",
"454 387 OFFCURVE",
"395 345 OFFCURVE",
"338 345 CURVE SMOOTH",
"265 345 LINE",
"305 625 LINE",
"315 635 LINE",
"347 635 LINE SMOOTH",
"443 635 OFFCURVE",
"518 605 OFFCURVE",
"551 500 CURVE",
"586 510 LINE",
"572 670 LINE",
"91 670 LINE",
"86 635 LINE",
"140 635 LINE",
"150 625 LINE",
"68 45 LINE",
"58 35 LINE",
"2 35 LINE",
"-3 0 LINE"
);
}
);
width = 565;
}
);
leftMetricsKey = "=H";
rightKerningGroup = F;
rightMetricsKey = "=E*0.7";
unicode = 0046;
},
{
color = 6;
glyphname = G;
layers = (
{
anchors = (
{
name = bottom;
position = "{344, 0}";
},
{
name = top;
position = "{448, 670}";
}
);
guideLines = (
{
angle = 118.202;
position = "{605, 35}";
}
);
layerId = "CF31647D-EA7E-42DE-ACE7-E9318D6117AA";
paths = (
{
closed = 1;
nodes = (
"485.683 285 LINE",
"565 285 LINE",
"570 280 LINE",
"562 222 LINE SMOOTH",
"544.831 97.964 OFFCURVE",
"456.548 35 OFFCURVE",
"353.548 35 CURVE SMOOTH",
"228.276 35 OFFCURVE",
"157.167 136.896 OFFCURVE",
"157.167 282.666 CURVE SMOOTH",
"157.167 483.187 OFFCURVE",
"272.533 640 OFFCURVE",
"447.575 640 CURVE SMOOTH",
"528.575 640 OFFCURVE",
"625.656 605 OFFCURVE",
"652.262 467 CURVE",
"686.667 477 LINE",
"681.521 540 OFFCURVE",
"679.235 602 OFFCURVE",
"683.791 670 CURVE",
"648.791 670 LINE",
"622.17 630 LINE",
"582.245 659 OFFCURVE",
"529.197 680 OFFCURVE",
"456.197 680 CURVE SMOOTH",
"246.54 680 OFFCURVE",
"62 512.42 OFFCURVE",
"62 284.079 CURVE SMOOTH",
"62 114.387 OFFCURVE",
"172.224 -10 OFFCURVE",
"337.224 -10 CURVE SMOOTH",
"338.224 -10 LINE SMOOTH",
"426.224 -10 OFFCURVE",
"485.159 18 OFFCURVE",
"547.029 74 CURVE",
"552.029 74 LINE",
"580.629 0 LINE",
"615.629 0 LINE",
"654.981 280 LINE",
"660 285 LINE",
"720.683 285 LINE",
"725.602 320 LINE",
"490.602 320 LINE"
);
}
);
width = 728;
},
{
associatedMasterId = "CF31647D-EA7E-42DE-ACE7-E9318D6117AA";
layerId = "F0AD20AD-5861-4F7B-8440-362CC634E789";
name = "Jan 31 18, 16:27";
paths = (
{
closed = 1;
nodes = (
"465 -3 OFFCURVE",
"555 38 OFFCURVE",
"587 78 CURVE",
"627 18 LINE",
"654 18 LINE",
"654 287 LINE",
"729 287 LINE",
"729 317 LINE",
"464 317 LINE",
"464 287 LINE",
"564 287 LINE",
"564 177 LINE",
"564 113 OFFCURVE",
"478 32 OFFCURVE",
"387 32 CURVE",
"296 32 OFFCURVE",
"137 87 OFFCURVE",
"137 322 CURVE",
"137 584 OFFCURVE",
"298 638 OFFCURVE",
"387 638 CURVE",
"457 638 OFFCURVE",
"573 610 OFFCURVE",
"622 449 CURVE",
"654 457 LINE",
"654 459 OFFCURVE",
"627 581 OFFCURVE",
"627 648 CURVE",
"585 658 LINE",
"564 624 LINE",
"564 624 OFFCURVE",
"492 673 OFFCURVE",
"374 673 CURVE",
"251 673 OFFCURVE",
"50 572 OFFCURVE",
"50 322 CURVE",
"50 127 OFFCURVE",
"230 -3 OFFCURVE",
"374 -3 CURVE"
);
}
);
width = 600;
},
{
anchors = (
{
name = bottom;
position = "{333, 0}";
},
{
name = top;
position = "{457, 670}";
}
);
guideLines = (
{
angle = 141.34;
position = "{626, 0}";
}
);
layerId = "37DD2CA1-C758-4BBE-932B-6884A881B1A3";
paths = (
{
closed = 1;
nodes = (
"464 285 LINE",
"527 285 LINE",
"537 275 LINE",
"530 222 LINE SMOOTH",
"515 108 OFFCURVE",
"437 40 OFFCURVE",
"357 40 CURVE SMOOTH",
"253 40 OFFCURVE",
"213 156 OFFCURVE",
"213 286 CURVE SMOOTH",
"213 470 OFFCURVE",
"293 640 OFFCURVE",
"455 640 CURVE SMOOTH",
"544 640 OFFCURVE",
"615 588 OFFCURVE",
"652 437 CURVE",
"686 447 LINE",
"683 510 OFFCURVE",
"688 602 OFFCURVE",
"692 670 CURVE",
"657 670 LINE",
"638 640 LINE",
"606 659 OFFCURVE",
"549 680 OFFCURVE",
"467 680 CURVE SMOOTH",
"232 680 OFFCURVE",
"50 510 OFFCURVE",
"50 283 CURVE SMOOTH",
"50 113 OFFCURVE",
"153 -10 OFFCURVE",
"326 -10 CURVE SMOOTH",
"327 -10 LINE SMOOTH",
"426 -10 OFFCURVE",
"467 21 OFFCURVE",
"517 65 CURVE",
"522 65 LINE",
"594 0 LINE",
"629 0 LINE",
"668 275 LINE",
"678 285 LINE",
"714 285 LINE",
"719 320 LINE",
"469 320 LINE"
);
}
);
width = 728;
},
{
associatedMasterId = "37DD2CA1-C758-4BBE-932B-6884A881B1A3";
guideLines = (
{
angle = 141.34;
position = "{626, 0}";
}
);
layerId = "6F619CA2-13C3-4D67-8BFD-E6DE899E579E";
name = "Feb 14 18, 16:43";
paths = (
{
closed = 1;
nodes = (
"446 285 LINE",
"511 285 LINE",
"521 275 LINE",
"521 89 LINE",
"479 51 OFFCURVE",
"430 30 OFFCURVE",
"370 30 CURVE SMOOTH",
"264 30 OFFCURVE",
"205 166 OFFCURVE",
"205 343 CURVE SMOOTH",
"205 503 OFFCURVE",
"272 640 OFFCURVE",
"389 640 CURVE SMOOTH",
"479 640 OFFCURVE",
"553 590 OFFCURVE",
"612 437 CURVE",
"645 447 LINE",
"633 510 OFFCURVE",
"625 602 OFFCURVE",
"620 670 CURVE",
"585 670 LINE",
"570 640 LINE",
"521 665 OFFCURVE",
"475 680 OFFCURVE",
"386 680 CURVE SMOOTH",
"202 680 OFFCURVE",
"40 535 OFFCURVE",
"40 331 CURVE SMOOTH",
"40 135 OFFCURVE",
"166 -10 OFFCURVE",
"359 -10 CURVE SMOOTH",
"360 -10 LINE SMOOTH",
"449 -10 OFFCURVE",
"495 16 OFFCURVE",
"547 60 CURVE",
"552 60 LINE",
"626 0 LINE",
"661 0 LINE",
"661 275 LINE",
"671 285 LINE",
"706 285 LINE",
"706 320 LINE",
"446 320 LINE"
);
}
);
width = 730;
}
);
leftKerningGroup = O;
leftMetricsKey = "=O";
unicode = 0047;
},
{
color = 6;
glyphname = H;
layers = (
{
anchors = (
{
name = bottom;
position = "{358, 0}";
},
{
name = center;
position = "{431, 505}";
},
{
name = right_bottom;
position = "{703, 35}";
},
{
name = top;
position = "{452, 670}";
},
{
name = topleft;
position = "{82, 670}";
}
);
layerId = "CF31647D-EA7E-42DE-ACE7-E9318D6117AA";
paths = (
{
closed = 1;
nodes = (
"527 635 LINE",
"606 635 LINE",
"611 630 LINE",
"574 365 LINE",
"244 365 LINE",
"281 630 LINE",
"286 635 LINE",
"367 635 LINE",
"372 670 LINE",
"112 670 LINE",
"107 635 LINE",
"186 635 LINE",
"191 630 LINE",
"109 40 LINE",
"104 35 LINE",
"23 35 LINE",
"18 0 LINE",
"278 0 LINE",
"283 35 LINE",
"204 35 LINE",
"199 40 LINE",
"239 330 LINE",
"569 330 LINE",
"529 40 LINE",
"524 35 LINE",
"443 35 LINE",
"438 0 LINE",
"698 0 LINE",
"703 35 LINE",
"624 35 LINE",
"619 40 LINE",
"701 630 LINE",
"706 635 LINE",
"787 635 LINE",
"792 670 LINE",
"532 670 LINE"
);
}
);
width = 780;
},
{
anchors = (
{
name = bottom;
position = "{349, 0}";
},
{
name = center;
position = "{426, 505}";
},
{
name = right_bottom;
position = "{707, 35}";
},
{
name = top;
position = "{443, 670}";
},
{
name = topleft;
position = "{80, 670}";
}
);
layerId = "37DD2CA1-C758-4BBE-932B-6884A881B1A3";
paths = (
{
closed = 1;
nodes = (
"506 635 LINE",
"560 635 LINE",
"570 625 LINE",
"533 365 LINE",
"268 365 LINE",
"305 625 LINE",
"314 635 LINE",
"371 635 LINE",
"376 670 LINE",
"91 670 LINE",
"86 635 LINE",
"140 635 LINE",
"150 625 LINE",
"68 45 LINE",
"58 35 LINE",
"2 35 LINE",
"-3 0 LINE",
"282 0 LINE",
"287 35 LINE",
"233 35 LINE",
"223 45 LINE",
"263 330 LINE",
"528 330 LINE",
"488 45 LINE",
"478 35 LINE",
"422 35 LINE",
"417 0 LINE",
"702 0 LINE",
"707 35 LINE",
"653 35 LINE",
"643 45 LINE",
"725 625 LINE",
"735 635 LINE",
"791 635 LINE",
"796 670 LINE",
"511 670 LINE"
);
}
);
width = 766;
}
);
unicode = 0048;
},
{
color = 6;
glyphname = I;
layers = (
{
anchors = (
{
name = bottom;
position = "{158, 0}";
},
{
name = ogonek;
position = "{213, 0}";
},
{
name = top;
position = "{252, 670}";
},
{
name = topleft;
position = "{72, 670}";
}
);
layerId = "CF31647D-EA7E-42DE-ACE7-E9318D6117AA";
paths = (
{
closed = 1;
nodes = (
"377 635 LINE",
"382 670 LINE",
"122 670 LINE",
"117 635 LINE",
"196 635 LINE",
"201 630 LINE",
"119 40 LINE",
"114 35 LINE",
"33 35 LINE",
"28 0 LINE",
"288 0 LINE",
"293 35 LINE",
"214 35 LINE",
"209 40 LINE",
"291 630 LINE",
"296 635 LINE"
);
}
);
width = 380;
},
{
anchors = (
{
name = bottom;
position = "{140, 0}";
},
{
name = ogonek;
position = "{207, 0}";
},
{
name = top;
position = "{234, 670}";
},
{
name = topleft;
position = "{71, 670}";
}
);
layerId = "37DD2CA1-C758-4BBE-932B-6884A881B1A3";
paths = (
{
closed = 1;
nodes = (
"371 635 LINE",
"376 670 LINE",
"91 670 LINE",
"86 635 LINE",
"140 635 LINE",
"150 625 LINE",
"68 45 LINE",
"58 35 LINE",
"2 35 LINE",
"-3 0 LINE",
"282 0 LINE",
"287 35 LINE",
"233 35 LINE",
"223 45 LINE",
"305 625 LINE",
"315 635 LINE"
);
}
);
width = 346;
}
);
unicode = 0049;
},
{
color = 6;
glyphname = J;
layers = (
{
anchors = (
{
name = bottom;
position = "{186, 0}";
},
{
name = top;
position = "{340, 670}";
}
);
layerId = "CF31647D-EA7E-42DE-ACE7-E9318D6117AA";
paths = (
{
closed = 1;
nodes = (
"206 -10 OFFCURVE",
"294 25 OFFCURVE",
"311 150 CURVE SMOOTH",
"378 630 LINE",
"288 630 LINE",
"218 130 LINE SMOOTH",
"208 57 OFFCURVE",
"165 30 OFFCURVE",
"124 30 CURVE SMOOTH",
"86 30 OFFCURVE",
"67 53 OFFCURVE",
"56 84 CURVE",
"26 84 LINE",
"34 74 OFFCURVE",
"51 66 OFFCURVE",
"67 66 CURVE SMOOTH",
"95 66 OFFCURVE",
"128 85 OFFCURVE",
"128 121 CURVE SMOOTH",
"128 153 OFFCURVE",
"106 175 OFFCURVE",
"75 175 CURVE SMOOTH",
"40 175 OFFCURVE",
"10 148 OFFCURVE",
"10 100 CURVE SMOOTH",
"10 41 OFFCURVE",
"57 -10 OFFCURVE",
"138 -10 CURVE SMOOTH"
);
},
{
closed = 1;
nodes = (
"204 635 LINE",
"283 635 LINE",
"288 630 LINE",
"378 630 LINE",
"383 635 LINE",
"464 635 LINE",
"469 670 LINE",
"209 670 LINE"
);
}
);
width = 442;
},
{
anchors = (
{
name = bottom;
position = "{208, 0}";
},
{
name = top;
position = "{362, 670}";
}
);
layerId = "37DD2CA1-C758-4BBE-932B-6884A881B1A3";
paths = (
{
closed = 1;
nodes = (
"225 -10 OFFCURVE",
"359 31 OFFCURVE",
"382 196 CURVE SMOOTH",
"442 625 LINE",
"286 625 LINE",
"219 140 LINE SMOOTH",
"207 54 OFFCURVE",
"173 25 OFFCURVE",
"134 25 CURVE SMOOTH",
"75 25 OFFCURVE",
"62 93 OFFCURVE",
"65 97 CURVE",
"43 97 LINE",
"39 73 OFFCURVE",
"47 30 OFFCURVE",
"76 30 CURVE",
"120 30 OFFCURVE",
"163 66 OFFCURVE",
"163 115 CURVE SMOOTH",
"163 152 OFFCURVE",
"135 180 OFFCURVE",
"93 180 CURVE SMOOTH",
"47 180 OFFCURVE",
"10 146 OFFCURVE",
"10 96 CURVE SMOOTH",
"10 44 OFFCURVE",
"52 -10 OFFCURVE",
"144 -10 CURVE SMOOTH"
);
},
{
closed = 1;
nodes = (
"222 635 LINE",
"277 635 LINE",
"286 625 LINE",
"442 625 LINE",
"452 635 LINE",
"507 635 LINE",
"512 670 LINE",
"227 670 LINE"
);
}
);
width = 473;
}
);
leftKerningGroup = J;
rightKerningGroup = U;
rightMetricsKey = "=U";
unicode = 004A;
},
{
color = 6;
glyphname = K;
layers = (
{
anchors = (
{
name = bottom;
position = "{345, 0}";
},
{
name = top;
position = "{434, 670}";
}
);
layerId = "CF31647D-EA7E-42DE-ACE7-E9318D6117AA";
paths = (
{
closed = 1;
nodes = (
"673 0 LINE",
"678 35 LINE",
"603 35 LINE",
"378 414 LINE",
"308 352 LINE",
"493 40 LINE",
"488 35 LINE",
"407 35 LINE",
"402 0 LINE"
);
},
{
closed = 1;
nodes = (
"229 268 LINE",
"670 635 LINE",
"725 635 LINE",
"730 670 LINE",
"493 670 LINE",
"488 635 LINE",
"593 635 LINE",
"598 630 LINE",
"166 268 LINE"
);
},
{
closed = 1;
nodes = (
"367 635 LINE",
"372 670 LINE",
"112 670 LINE",
"107 635 LINE",
"186 635 LINE",
"191 630 LINE",
"109 40 LINE",
"104 35 LINE",
"23 35 LINE",
"18 0 LINE",
"278 0 LINE",
"283 35 LINE",
"204 35 LINE",
"199 40 LINE",
"281 630 LINE",
"286 635 LINE"
);
}
);
width = 705;
},
{
associatedMasterId = "CF31647D-EA7E-42DE-ACE7-E9318D6117AA";
layerId = "AC6B2EDA-1A96-45F8-A160-3DF85404DFC1";
name = "Feb 1 18, 18:00";
paths = (
{
closed = 1;
nodes = (
"277 0 LINE",
"277 30 LINE",
"223 30 LINE",
"223 640 LINE",
"285 640 LINE",
"285 670 LINE",
"50 670 LINE",
"50 640 LINE",
"133 640 LINE",
"133 30 LINE",
"50 30 LINE",
"50 0 LINE"
);
},
{
closed = 1;
nodes = (
"699 -1 LINE",
"699 29 LINE",
"443 29 LINE",
"443 -1 LINE"
);
},
{
closed = 1;
nodes = (
"644 7 LINE",
"334 398 LINE",
"270 340 LINE",
"534 7 LINE"
);
},
{
closed = 1;
nodes = (
"599 651 LINE",
"552 647 LINE",
"209 297 LINE",
"209 253 LINE"
);
},
{
closed = 1;
nodes = (
"657 640 LINE",
"657 670 LINE",
"443 670 LINE",
"443 640 LINE"
);
}
);
width = 600;
},
{
anchors = (
{
name = bottom;
position = "{327, 0}";
},
{
name = top;
position = "{441, 670}";
}
);
background = {
paths = (
{
closed = 1;
nodes = (
"684 0 LINE",
"689 35 LINE",
"634 35 LINE",
"441 452 LINE",
"319 350 LINE",
"457 45 LINE",
"447 35 LINE",
"392 35 LINE",
"387 0 LINE"
);
},
{
closed = 1;
nodes = (
"253 268 LINE",
"695 635 LINE",
"750 635 LINE",
"755 670 LINE",
"509 670 LINE",
"504 635 LINE",
"607 635 LINE",
"617 625 LINE",
"190 268 LINE"
);
},
{
closed = 1;
nodes = (
"371 635 LINE",
"376 670 LINE",
"91 670 LINE",
"86 635 LINE",
"140 635 LINE",
"150 625 LINE",
"68 45 LINE",
"58 35 LINE",
"2 35 LINE",
"-3 0 LINE",
"282 0 LINE",
"287 35 LINE",
"233 35 LINE",
"223 45 LINE",
"305 625 LINE",
"316 635 LINE"
);
}
);
};
layerId = "37DD2CA1-C758-4BBE-932B-6884A881B1A3";
paths = (
{
closed = 1;
nodes = (
"684 0 LINE",
"689 35 LINE",
"634 35 LINE",
"441 452 LINE",
"319 350 LINE",
"457 45 LINE",
"447 35 LINE",
"392 35 LINE",
"387 0 LINE"
);
},
{
closed = 1;
nodes = (
"253 268 LINE",
"695 635 LINE",
"750 635 LINE",
"755 670 LINE",
"509 670 LINE",
"504 635 LINE",
"607 635 LINE",
"617 625 LINE",
"190 268 LINE"
);
},
{
closed = 1;
nodes = (
"371 635 LINE",
"376 670 LINE",
"91 670 LINE",
"86 635 LINE",
"140 635 LINE",
"150 625 LINE",
"68 45 LINE",
"58 35 LINE",
"2 35 LINE",
"-3 0 LINE",
"282 0 LINE",
"287 35 LINE",
"233 35 LINE",
"223 45 LINE",
"305 625 LINE",
"316 635 LINE"
);
}
);
width = 721;
}
);
leftMetricsKey = "=H";
rightKerningGroup = X;
rightMetricsKey = "=R";
unicode = 004B;
},
{
color = 6;
glyphname = L;
layers = (
{
anchors = (
{
name = bottom;
position = "{295, 0}";
},
{
name = center;
position = "{192, 335}";
},
{
name = top;
position = "{242, 670}";
},
{
name = topright;
position = "{635, 670}";
}
);
guideLines = (
{
angle = 77.3196;
position = "{541, 0}";
},
{
position = "{544, 190}";
}
);
layerId = "CF31647D-EA7E-42DE-ACE7-E9318D6117AA";
paths = (
{
closed = 1;
nodes = (
"503 105 OFFCURVE",
"435 35 OFFCURVE",
"319 35 CURVE SMOOTH",
"204 35 LINE",
"199 40 LINE",
"281 630 LINE",
"286 635 LINE",
"367 635 LINE",
"372 670 LINE",
"112 670 LINE",
"107 635 LINE",
"186 635 LINE",
"191 630 LINE",
"109 40 LINE",
"104 35 LINE",
"23 35 LINE",
"18 0 LINE",
"504 0 LINE",
"580 210 LINE",
"545 210 LINE"
);
}
);
width = 598;
},
{
anchors = (
{
name = bottom;
position = "{300, 0}";
},
{
name = center;
position = "{307, 335}";
},
{
name = top;
position = "{234, 670}";
},
{
name = topright;
position = "{626, 670}";
}
);
guideLines = (
{
angle = 77.2479;
position = "{557, 95}";
}
);
layerId = "37DD2CA1-C758-4BBE-932B-6884A881B1A3";
paths = (
{
closed = 1;
nodes = (
"470 85 OFFCURVE",
"379 35 OFFCURVE",
"293 35 CURVE SMOOTH",
"233 35 LINE",
"223 45 LINE",
"305 625 LINE",
"315 635 LINE",
"371 635 LINE",
"376 670 LINE",
"91 670 LINE",
"86 635 LINE",
"140 635 LINE",
"150 625 LINE",
"68 45 LINE",
"58 35 LINE",
"2 35 LINE",
"-3 0 LINE",
"498 0 LINE",
"575 210 LINE",
"540 210 LINE"
);
}
);
width = 594;
}
);
leftMetricsKey = "=H";
rightKerningGroup = L;
rightMetricsKey = "=T";
unicode = 004C;
},
{
color = 3;
glyphname = Lslash;
layers = (
{
components = (
{
name = L;
transform = "{1, 0, 0, 1, -10, 0}";
}
);
layerId = "CF31647D-EA7E-42DE-ACE7-E9318D6117AA";
paths = (
{
closed = 1;
nodes = (
"173 281 LINE",
"438 418 LINE",
"444 460 LINE",
"179 323 LINE"
);
},
{
closed = 1;
nodes = (
"181 333 LINE",
"-3 238 LINE",
"-9 196 LINE",
"175 291 LINE"
);
}
);
width = 588;
},
{
components = (
{
name = L;
transform = "{1, 0, 0, 1, 30, 0}";
}
);
layerId = "37DD2CA1-C758-4BBE-932B-6884A881B1A3";
paths = (
{
closed = 1;
nodes = (
"200 294 LINE",
"498 436 LINE",
"504 480 LINE",
"206 338 LINE"
);
},
{
closed = 1;
nodes = (
"207 348 LINE",
"17 258 LINE",
"11 214 LINE",
"201 304 LINE"
);
}
);
width = 624;
}
);
rightKerningGroup = L;
rightMetricsKey = "=L";
unicode = 0141;
},
{
color = 6;
glyphname = M;
layers = (
{
anchors = (
{
name = bottom;
position = "{423, 0}";
},
{
name = top;
position = "{517, 670}";
}
);
layerId = "CF31647D-EA7E-42DE-ACE7-E9318D6117AA";
paths = (
{
closed = 1;
nodes = (
"917 635 LINE",
"922 670 LINE",
"747 670 LINE",
"447 105 LINE",
"442 105 LINE",
"297 670 LINE",
"112 670 LINE",
"107 635 LINE",
"187 635 LINE",
"192 630 LINE",
"109 40 LINE",
"104 35 LINE",
"23 35 LINE",
"18 0 LINE",
"233 0 LINE",
"238 35 LINE",
"159 35 LINE",
"154 40 LINE",
"226 553 LINE",
"231 553 LINE",
"373 0 LINE",
"443 0 LINE",
"722 528 LINE",
"727 528 LINE",
"659 40 LINE",
"654 35 LINE",
"573 35 LINE",
"568 0 LINE",
"828 0 LINE",
"833 35 LINE",
"754 35 LINE",
"749 40 LINE",
"832 630 LINE",
"837 635 LINE"
);
}
);
width = 910;
},
{
associatedMasterId = "CF31647D-EA7E-42DE-ACE7-E9318D6117AA";
layerId = "F744DC9A-1561-4D0F-9654-922D41ED43E3";
name = "Feb 1 18, 18:35";
paths = (
{
closed = 1;
nodes = (
"782 30 LINE",
"699 30 LINE",
"699 640 LINE",
"782 640 LINE",
"782 670 LINE",
"602 670 LINE",
"600 640 LINE",
"609 640 LINE",
"609 30 LINE",
"526 30 LINE",
"526 0 LINE",
"782 0 LINE"
);
},
{
closed = 1;
nodes = (
"423 76 LINE",
"216 670 LINE",
"56 670 LINE",
"56 640 LINE",
"139 640 LINE",
"364 0 LINE"
);
},
{
closed = 1;
nodes = (
"155 9 LINE",
"155 653 LINE",
"120 653 LINE",
"120 9 LINE"
);
},
{
closed = 1;
nodes = (
"405 0 LINE",
"626 653 LINE",
"602 670 LINE",
"364 0 LINE"
);
},
{
closed = 1;
nodes = (
"229 0 LINE",
"229 30 LINE",
"50 30 LINE",
"50 0 LINE"
);
}
);
width = 832;
},
{
anchors = (
{
name = bottom;
position = "{425, 0}";
},
{
name = top;
position = "{519, 670}";
}
);
guideLines = (
{
angle = 248.9625;
position = "{632, 670}";
}
);
layerId = "37DD2CA1-C758-4BBE-932B-6884A881B1A3";
paths = (
{
closed = 1;
nodes = (
"941 635 LINE",
"946 670 LINE",
"726 670 LINE",
"478 200 LINE",
"473 200 LINE",
"346 670 LINE",
"91 670 LINE",
"86 635 LINE",
"160 635 LINE",
"170 625 LINE",
"88 45 LINE",
"78 35 LINE",
"2 35 LINE",
"-3 0 LINE",
"222 0 LINE",
"227 35 LINE",
"143 35 LINE",
"133 45 LINE",
"205 553 LINE",
"210 553 LINE",
"359 0 LINE",
"422 0 LINE",
"702 533 LINE",
"707 533 LINE",
"638 45 LINE",
"628 35 LINE",
"572 35 LINE",
"567 0 LINE",
"852 0 LINE",
"857 35 LINE",
"803 35 LINE",
"793 45 LINE",
"875 625 LINE",
"885 635 LINE"
);
}
);
width = 916;
}
);
leftMetricsKey = "=H";
rightMetricsKey = "=H";
unicode = 004D;
},
{
color = 6;
glyphname = N;
layers = (
{
anchors = (
{
name = bottom;
position = "{351, 0}";
},
{
name = top;
position = "{445, 670}";
}
);
layerId = "CF31647D-EA7E-42DE-ACE7-E9318D6117AA";
paths = (
{
closed = 1;
nodes = (
"572 635 LINE",
"652 635 LINE",
"657 630 LINE",
"585 120 LINE",
"580 120 LINE",
"272 670 LINE",
"112 670 LINE",
"107 635 LINE",
"187 635 LINE",
"192 630 LINE",
"109 40 LINE",
"104 35 LINE",
"23 35 LINE",
"18 0 LINE",
"233 0 LINE",
"238 35 LINE",
"159 35 LINE",
"154 40 LINE",
"225 550 LINE",
"230 550 LINE",
"538 0 LINE",
"613 0 LINE",
"702 630 LINE",
"707 635 LINE",
"777 635 LINE",
"782 670 LINE",
"577 670 LINE"
);
}
);
width = 755;
},
{
anchors = (
{
name = bottom;
position = "{330, 0}";
},
{
name = top;
position = "{424, 670}";
}
);
guideLines = (
{
angle = 81.9469;
position = "{591, 208}";
},
{
angle = 81.9469;
position = "{143, 254}";
}
);
layerId = "37DD2CA1-C758-4BBE-932B-6884A881B1A3";
paths = (
{
closed = 1;
nodes = (
"556 635 LINE",
"640 635 LINE",
"650 625 LINE",
"590 205 LINE",
"585 205 LINE",
"226 670 LINE",
"91 670 LINE",
"86 635 LINE",
"140 635 LINE",
"150 625 LINE",
"68 45 LINE",
"58 35 LINE",
"2 35 LINE",
"-3 0 LINE",
"202 0 LINE",
"207 35 LINE",
"123 35 LINE",
"113 45 LINE",
"173 465 LINE",
"178 465 LINE",
"537 0 LINE",
"607 0 LINE",
"695 625 LINE",
"705 635 LINE",
"761 635 LINE",
"766 670 LINE",
"561 670 LINE"
);
}
);
width = 727;
}
);
leftMetricsKey = "=H";
rightMetricsKey = "=U";
unicode = 004E;
},
{
color = 6;
glyphname = Eng;
layers = (
{
anchors = (
{
name = bottom;
position = "{351, 0}";
},
{
name = top;
position = "{445, 670}";
}
);
layerId = "CF31647D-EA7E-42DE-ACE7-E9318D6117AA";
paths = (
{
closed = 1;
nodes = (
"572 635 LINE",
"652 635 LINE",
"657 630 LINE",
"585 120 LINE",
"580 120 LINE",
"272 670 LINE",
"112 670 LINE",
"107 635 LINE",
"187 635 LINE",
"192 630 LINE",
"109 40 LINE",
"104 35 LINE",
"23 35 LINE",
"18 0 LINE",
"233 0 LINE",
"238 35 LINE",
"159 35 LINE",
"154 40 LINE",
"225 550 LINE",
"230 550 LINE",
"526 21 LINE",
"506 -120 LINE SMOOTH",
"496 -193 OFFCURVE",
"451 -220 OFFCURVE",
"415 -220 CURVE SMOOTH",
"381 -220 OFFCURVE",
"364 -206 OFFCURVE",
"353 -185 CURVE",
"385 -185 OFFCURVE",
"416 -157 OFFCURVE",
"416 -124 CURVE SMOOTH",
"416 -97 OFFCURVE",
"396 -75 OFFCURVE",
"368 -75 CURVE SMOOTH",
"335 -75 OFFCURVE",
"298 -104 OFFCURVE",
"298 -152 CURVE SMOOTH",
"298 -211 OFFCURVE",
"347 -260 OFFCURVE",
"422 -260 CURVE SMOOTH",
"496 -260 OFFCURVE",
"581 -226 OFFCURVE",
"599 -100 CURVE SMOOTH",
"702 630 LINE",
"707 635 LINE",
"777 635 LINE",
"782 670 LINE",
"577 670 LINE"
);
}
);
width = 755;
},
{
anchors = (
{
name = bottom;
position = "{330, 0}";
},
{
name = top;
position = "{424, 670}";
}
);
layerId = "37DD2CA1-C758-4BBE-932B-6884A881B1A3";
paths = (
{
closed = 1;
nodes = (
"556 635 LINE",
"640 635 LINE",
"650 625 LINE",
"590 205 LINE",
"585 205 LINE",
"226 670 LINE",
"91 670 LINE",
"86 635 LINE",
"140 635 LINE",
"150 625 LINE",
"68 45 LINE",
"58 35 LINE",
"2 35 LINE",
"-3 0 LINE",
"202 0 LINE",
"207 35 LINE",
"123 35 LINE",
"113 45 LINE",
"173 465 LINE",
"178 465 LINE",
"464 95 LINE",
"436 -110 LINE SMOOTH",
"424 -196 OFFCURVE",
"389 -225 OFFCURVE",
"350 -225 CURVE SMOOTH",
"337 -225 OFFCURVE",
"326 -222 OFFCURVE",
"318 -216 CURVE",
"352 -205 OFFCURVE",
"380 -174 OFFCURVE",
"380 -135 CURVE SMOOTH",
"380 -98 OFFCURVE",
"354 -70 OFFCURVE",
"315 -70 CURVE SMOOTH",
"267 -70 OFFCURVE",
"227 -108 OFFCURVE",
"227 -163 CURVE SMOOTH",
"227 -212 OFFCURVE",
"263 -260 OFFCURVE",
"354 -260 CURVE SMOOTH",
"444 -260 OFFCURVE",
"576 -219 OFFCURVE",
"599 -54 CURVE SMOOTH",
"695 625 LINE",
"705 635 LINE",
"761 635 LINE",
"766 670 LINE",
"561 670 LINE"
);
}
);
width = 727;
}
);
leftMetricsKey = "=N";
rightMetricsKey = "=N";
unicode = 014A;
},
{
color = 6;
glyphname = O;
layers = (
{
anchors = (
{
name = bottom;
position = "{339, 0}";
},
{
name = center;
position = "{386, 335}";
},
{
name = ogonek;
position = "{395, 0}";
},
{
name = top;
position = "{433, 670}";
},
{
name = topleft;
position = "{83, 670}";
},
{
name = topright;
position = "{783, 670}";
}
);
guideLines = (
{
angle = 90;
position = "{509, 77}";
}
);
layerId = "CF31647D-EA7E-42DE-ACE7-E9318D6117AA";
paths = (
{
closed = 1;
nodes = (
"244 680 OFFCURVE",
"62 511 OFFCURVE",
"62 287 CURVE SMOOTH",
"62 112 OFFCURVE",
"173 -10 OFFCURVE",
"337 -10 CURVE SMOOTH",
"529 -10 OFFCURVE",
"711 159 OFFCURVE",
"711 383 CURVE SMOOTH",
"711 558 OFFCURVE",
"600 680 OFFCURVE",
"436 680 CURVE SMOOTH"
);
},
{
closed = 1;
nodes = (
"216 30 OFFCURVE",
"157 139 OFFCURVE",
"157 287 CURVE SMOOTH",
"157 485 OFFCURVE",
"263 640 OFFCURVE",
"426 640 CURVE SMOOTH",
"557 640 OFFCURVE",
"616 531 OFFCURVE",
"616 384 CURVE SMOOTH",
"616 186 OFFCURVE",
"510 30 OFFCURVE",
"347 30 CURVE SMOOTH"
);
}
);
width = 744;
},
{
anchors = (
{
name = bottom;
position = "{348, 0}";
},
{
name = center;
position = "{396, 335}";
},
{
name = ogonek;
position = "{423, 0}";
},
{
name = top;
position = "{443, 670}";
},
{
name = topleft;
position = "{83, 670}";
},
{
name = topright;
position = "{803, 670}";
}
);
layerId = "37DD2CA1-C758-4BBE-932B-6884A881B1A3";
paths = (
{
closed = 1;
nodes = (
"217 680 OFFCURVE",
"51 508 OFFCURVE",
"51 288 CURVE SMOOTH",
"51 111 OFFCURVE",
"158 -10 OFFCURVE",
"348 -10 CURVE SMOOTH",
"574 -10 OFFCURVE",
"740 162 OFFCURVE",
"740 382 CURVE SMOOTH",
"740 559 OFFCURVE",
"633 680 OFFCURVE",
"443 680 CURVE SMOOTH"
);
},
{
closed = 1;
nodes = (
"255 30 OFFCURVE",
"216 148 OFFCURVE",
"216 278 CURVE SMOOTH",
"216 491 OFFCURVE",
"321 640 OFFCURVE",
"435 640 CURVE SMOOTH",
"536 640 OFFCURVE",
"575 522 OFFCURVE",
"575 392 CURVE SMOOTH",
"575 179 OFFCURVE",
"470 30 OFFCURVE",
"356 30 CURVE SMOOTH"
);
}
);
width = 764;
}
);
leftKerningGroup = O;
rightKerningGroup = O;
unicode = 004F;
},
{
color = 6;
glyphname = Ohorn;
layers = (
{
anchors = (
{
name = bottom;
position = "{339, 0}";
},
{
name = center;
position = "{386, 335}";
},
{
name = ogonek;
position = "{395, 0}";
},
{
name = top;
position = "{433, 670}";
},
{
name = topleft;
position = "{83, 670}";
},
{
name = topright;
position = "{783, 670}";
}
);
layerId = "CF31647D-EA7E-42DE-ACE7-E9318D6117AA";
paths = (
{
closed = 1;
nodes = (
"682 585 OFFCURVE",
"748 653 OFFCURVE",
"748 732 CURVE SMOOTH",
"748 765 OFFCURVE",
"727 780 OFFCURVE",
"700 780 CURVE SMOOTH",
"664 780 OFFCURVE",
"635 750 OFFCURVE",
"635 715 CURVE SMOOTH",
"635 689 OFFCURVE",
"652 671 OFFCURVE",
"680 671 CURVE SMOOTH",
"692 671 OFFCURVE",
"716 679 OFFCURVE",
"726 688 CURVE",
"701 687 LINE",
"680 638 OFFCURVE",
"640 620 OFFCURVE",
"599 620 CURVE",
"593 585 LINE"
);
},
{
closed = 1;
nodes = (
"244 680 OFFCURVE",
"62 511 OFFCURVE",
"62 287 CURVE SMOOTH",
"62 112 OFFCURVE",
"173 -10 OFFCURVE",
"337 -10 CURVE SMOOTH",
"529 -10 OFFCURVE",
"711 159 OFFCURVE",
"711 383 CURVE SMOOTH",
"711 558 OFFCURVE",
"600 680 OFFCURVE",
"436 680 CURVE SMOOTH"
);
},
{
closed = 1;
nodes = (
"216 30 OFFCURVE",
"157 139 OFFCURVE",
"157 287 CURVE SMOOTH",
"157 485 OFFCURVE",
"263 640 OFFCURVE",
"426 640 CURVE SMOOTH",
"557 640 OFFCURVE",
"616 531 OFFCURVE",
"616 384 CURVE SMOOTH",
"616 186 OFFCURVE",
"510 30 OFFCURVE",
"347 30 CURVE SMOOTH"
);
}
);
width = 744;
},
{
anchors = (
{
name = bottom;
position = "{348, 0}";
},
{
name = center;
position = "{396, 335}";
},
{
name = ogonek;
position = "{423, 0}";
},
{
name = top;
position = "{443, 670}";
},
{
name = topleft;
position = "{83, 670}";
},
{
name = topright;
position = "{803, 670}";
}
);
layerId = "37DD2CA1-C758-4BBE-932B-6884A881B1A3";
paths = (
{
closed = 1;
nodes = (
"712 579 OFFCURVE",
"771 669 OFFCURVE",
"771 740 CURVE SMOOTH",
"771 777 OFFCURVE",
"743 793 OFFCURVE",
"719 793 CURVE SMOOTH",
"678 793 OFFCURVE",
"642 758 OFFCURVE",
"642 718 CURVE SMOOTH",
"642 688 OFFCURVE",
"665 666 OFFCURVE",
"696 666 CURVE SMOOTH",
"715 666 OFFCURVE",
"732 676 OFFCURVE",
"740 683 CURVE",
"713 683 LINE",
"699 651 OFFCURVE",
"665 615 OFFCURVE",
"626 614 CURVE",
"620 579 LINE"
);
},
{
closed = 1;
nodes = (
"217 680 OFFCURVE",
"51 508 OFFCURVE",
"51 288 CURVE SMOOTH",
"51 111 OFFCURVE",
"158 -10 OFFCURVE",
"348 -10 CURVE SMOOTH",
"574 -10 OFFCURVE",
"740 162 OFFCURVE",
"740 382 CURVE SMOOTH",
"740 559 OFFCURVE",
"633 680 OFFCURVE",
"443 680 CURVE SMOOTH"
);
},
{
closed = 1;
nodes = (
"255 30 OFFCURVE",
"216 148 OFFCURVE",
"216 278 CURVE SMOOTH",
"216 491 OFFCURVE",
"321 640 OFFCURVE",
"435 640 CURVE SMOOTH",
"536 640 OFFCURVE",
"575 522 OFFCURVE",
"575 392 CURVE SMOOTH",
"575 179 OFFCURVE",
"470 30 OFFCURVE",
"356 30 CURVE SMOOTH"
);
}
);
width = 764;
}
);
leftKerningGroup = O;
leftMetricsKey = "=O";
rightKerningGroup = O;
rightMetricsKey = "=O";
unicode = 01A0;
},
{
color = 6;
glyphname = Oslash;
layers = (
{
anchors = (
{
name = bottom;
position = "{339, 0}";
},
{
name = center;
position = "{386, 335}";
},
{
name = ogonek;
position = "{395, 0}";
},
{
name = top;
position = "{433, 670}";
},
{
name = topleft;
position = "{83, 670}";
},
{
name = topright;
position = "{783, 670}";
}
);
layerId = "CF31647D-EA7E-42DE-ACE7-E9318D6117AA";
paths = (
{
closed = 1;
nodes = (
"217 -100 LINE",
"595 770 LINE",
"557 770 LINE",
"179 -100 LINE"
);
},
{
closed = 1;
nodes = (
"217 -100 LINE",
"595 770 LINE",
"557 770 LINE",
"179 -100 LINE"
);
},
{
closed = 1;
nodes = (
"244 680 OFFCURVE",
"62 511 OFFCURVE",
"62 287 CURVE SMOOTH",
"62 112 OFFCURVE",
"173 -10 OFFCURVE",
"337 -10 CURVE SMOOTH",
"529 -10 OFFCURVE",
"711 159 OFFCURVE",
"711 383 CURVE SMOOTH",
"711 558 OFFCURVE",
"600 680 OFFCURVE",
"436 680 CURVE SMOOTH"
);
},
{
closed = 1;
nodes = (
"216 30 OFFCURVE",
"157 139 OFFCURVE",
"157 287 CURVE SMOOTH",
"157 485 OFFCURVE",
"263 640 OFFCURVE",
"426 640 CURVE SMOOTH",
"557 640 OFFCURVE",
"616 531 OFFCURVE",
"616 384 CURVE SMOOTH",
"616 186 OFFCURVE",
"510 30 OFFCURVE",
"347 30 CURVE SMOOTH"
);
}
);
width = 744;
},
{
anchors = (
{
name = bottom;
position = "{348, 0}";
},
{
name = center;
position = "{396, 335}";
},
{
name = ogonek;
position = "{423, 0}";
},
{
name = top;
position = "{443, 670}";
},
{
name = topleft;
position = "{83, 670}";
},
{
name = topright;
position = "{803, 670}";
}
);
layerId = "37DD2CA1-C758-4BBE-932B-6884A881B1A3";
paths = (
{
closed = 1;
nodes = (
"226 -100 LINE",
"604 770 LINE",
"566 770 LINE",
"188 -100 LINE"
);
},
{
closed = 1;
nodes = (
"226 -100 LINE",
"604 770 LINE",
"566 770 LINE",
"188 -100 LINE"
);
},
{
closed = 1;
nodes = (
"217 680 OFFCURVE",
"51 508 OFFCURVE",
"51 288 CURVE SMOOTH",
"51 111 OFFCURVE",
"158 -10 OFFCURVE",
"348 -10 CURVE SMOOTH",
"574 -10 OFFCURVE",
"740 162 OFFCURVE",
"740 382 CURVE SMOOTH",
"740 559 OFFCURVE",
"633 680 OFFCURVE",
"443 680 CURVE SMOOTH"
);
},
{
closed = 1;
nodes = (
"255 30 OFFCURVE",
"216 148 OFFCURVE",
"216 278 CURVE SMOOTH",
"216 491 OFFCURVE",
"321 640 OFFCURVE",
"435 640 CURVE SMOOTH",
"536 640 OFFCURVE",
"575 522 OFFCURVE",
"575 392 CURVE SMOOTH",
"575 179 OFFCURVE",
"470 30 OFFCURVE",
"356 30 CURVE SMOOTH"
);
}
);
width = 764;
}
);
leftKerningGroup = O;
leftMetricsKey = "=O";
rightKerningGroup = O;
rightMetricsKey = "=O";
unicode = 00D8;
},
{
color = 6;
glyphname = OE;
layers = (
{
anchors = (
{
name = bottom;
position = "{678, 0}";
},
{
name = center;
position = "{45, 335}";
},
{
name = ogonek;
position = "{924, 0}";
},
{
name = top;
position = "{772, 670}";
},
{
name = topleft;
position = "{482, 670}";
},
{
name = topright;
position = "{442, 670}";
}
);
layerId = "CF31647D-EA7E-42DE-ACE7-E9318D6117AA";
paths = (
{
closed = 1;
nodes = (
"916 85 OFFCURVE",
"855 35 OFFCURVE",
"739 35 CURVE SMOOTH",
"603 35 LINE",
"598 40 LINE",
"639 330 LINE",
"742 330 LINE SMOOTH",
"799 330 OFFCURVE",
"824 308 OFFCURVE",
"817 220 CURVE",
"852 220 LINE",
"887 475 LINE",
"852 475 LINE",
"835 387 OFFCURVE",
"804 365 OFFCURVE",
"747 365 CURVE SMOOTH",
"644 365 LINE",
"681 630 LINE",
"686 635 LINE",
"813 635 LINE SMOOTH",
"929 635 OFFCURVE",
"974 605 OFFCURVE",
"987 500 CURVE",
"1021 510 LINE",
"1008 670 LINE",
"637 670 LINE SMOOTH",
"576 670 OFFCURVE",
"501 680 OFFCURVE",
"447 680 CURVE SMOOTH",
"226 680 OFFCURVE",
"62 509 OFFCURVE",
"62 288 CURVE SMOOTH",
"62 112 OFFCURVE",
"167 -10 OFFCURVE",
"350 -10 CURVE SMOOTH",
"403 -10 OFFCURVE",
"481 0 OFFCURVE",
"543 0 CURVE SMOOTH",
"924 0 LINE",
"993 190 LINE",
"958 190 LINE"
);
},
{
closed = 1;
nodes = (
"513 71 OFFCURVE",
"464 30 OFFCURVE",
"359 30 CURVE SMOOTH",
"223 30 OFFCURVE",
"157 135 OFFCURVE",
"157 294 CURVE SMOOTH",
"157 483 OFFCURVE",
"251 640 OFFCURVE",
"440 640 CURVE SMOOTH",
"539 640 OFFCURVE",
"586 597 OFFCURVE",
"571 490 CURVE SMOOTH",
"528 179 LINE SMOOTH"
);
}
);
width = 1039;
},
{
anchors = (
{
name = bottom;
position = "{706, 0}";
},
{
name = center;
position = "{69, 335}";
},
{
name = ogonek;
position = "{950, 10}";
},
{
name = top;
position = "{800, 670}";
},
{
name = topleft;
position = "{516, 670}";
},
{
name = topright;
position = "{476, 670}";
}
);
layerId = "37DD2CA1-C758-4BBE-932B-6884A881B1A3";
paths = (
{
closed = 1;
nodes = (
"915 85 OFFCURVE",
"824 35 OFFCURVE",
"728 35 CURVE SMOOTH",
"668 35 LINE",
"658 45 LINE",
"698 330 LINE",
"751 330 LINE SMOOTH",
"808 330 OFFCURVE",
"855 288 OFFCURVE",
"846 220 CURVE",
"881 220 LINE",
"917 475 LINE",
"882 475 LINE",
"872 407 OFFCURVE",
"813 365 OFFCURVE",
"756 365 CURVE SMOOTH",
"703 365 LINE",
"740 625 LINE",
"750 635 LINE",
"802 635 LINE SMOOTH",
"898 635 OFFCURVE",
"973 605 OFFCURVE",
"1006 500 CURVE",
"1040 510 LINE",
"1027 670 LINE",
"661 670 LINE SMOOTH",
"588 670 OFFCURVE",
"498 680 OFFCURVE",
"444 680 CURVE SMOOTH",
"218 680 OFFCURVE",
"51 508 OFFCURVE",
"51 287 CURVE SMOOTH",
"51 111 OFFCURVE",
"156 -10 OFFCURVE",
"348 -10 CURVE SMOOTH",
"403 -10 OFFCURVE",
"493 0 OFFCURVE",
"567 0 CURVE SMOOTH",
"943 0 LINE",
"1012 190 LINE",
"977 190 LINE"
);
},
{
closed = 1;
nodes = (
"506 69 OFFCURVE",
"437 30 OFFCURVE",
"375 30 CURVE SMOOTH",
"268 30 OFFCURVE",
"217 148 OFFCURVE",
"217 295 CURVE SMOOTH",
"217 492 OFFCURVE",
"309 640 OFFCURVE",
"443 640 CURVE SMOOTH",
"506 640 OFFCURVE",
"582 607 OFFCURVE",
"561 460 CURVE SMOOTH",
"522 182 LINE SMOOTH"
);
}
);
width = 1043;
}
);
leftKerningGroup = O;
leftMetricsKey = "=O";
rightKerningGroup = E;
rightMetricsKey = "=E";
unicode = 0152;
},
{
color = 6;
glyphname = P;
layers = (
{
anchors = (
{
name = bottom;
position = "{278, 0}";
},
{
name = top;
position = "{372, 670}";
}
);
guideLines = (
{
angle = 90;
position = "{537, 495}";
}
);
layerId = "CF31647D-EA7E-42DE-ACE7-E9318D6117AA";
paths = (
{
closed = 1;
nodes = (
"318 0 LINE",
"323 35 LINE",
"204 35 LINE",
"199 40 LINE",
"234 290 LINE",
"354 290 LINE SMOOTH",
"465 290 OFFCURVE",
"634 354 OFFCURVE",
"634 504 CURVE SMOOTH",
"634 632 OFFCURVE",
"511 670 OFFCURVE",
"395 670 CURVE SMOOTH",
"112 670 LINE",
"107 635 LINE",
"187 635 LINE",
"192 630 LINE",
"109 40 LINE",
"104 35 LINE",
"23 35 LINE",
"18 0 LINE"
);
},
{
closed = 1;
nodes = (
"282 630 LINE",
"287 635 LINE",
"382 635 LINE SMOOTH",
"468 635 OFFCURVE",
"539 596 OFFCURVE",
"539 485 CURVE SMOOTH",
"539 354 OFFCURVE",
"439 325 OFFCURVE",
"339 325 CURVE SMOOTH",
"239 325 LINE"
);
}
);
width = 632;
},
{
anchors = (
{
name = bottom;
position = "{287, 0}";
},
{
name = top;
position = "{381, 670}";
}
);
layerId = "37DD2CA1-C758-4BBE-932B-6884A881B1A3";
paths = (
{
closed = 1;
nodes = (
"307 0 LINE",
"312 35 LINE",
"233 35 LINE",
"223 45 LINE",
"258 290 LINE",
"373 290 LINE SMOOTH",
"494 290 OFFCURVE",
"653 368 OFFCURVE",
"653 509 CURVE SMOOTH",
"653 626 OFFCURVE",
"542 670 OFFCURVE",
"416 670 CURVE SMOOTH",
"91 670 LINE",
"86 635 LINE",
"140 635 LINE",
"150 625 LINE",
"68 45 LINE",
"58 35 LINE",
"2 35 LINE",
"-3 0 LINE"
);
},
{
closed = 1;
nodes = (
"305 625 LINE",
"315 635 LINE",
"381 635 LINE SMOOTH",
"438 635 OFFCURVE",
"488 593 OFFCURVE",
"488 495 CURVE SMOOTH",
"488 378 OFFCURVE",
"416 325 OFFCURVE",
"338 325 CURVE SMOOTH",
"263 325 LINE"
);
}
);
width = 642;
}
);
leftMetricsKey = "=H";
rightKerningGroup = F;
unicode = 0050;
},
{
color = 3;
glyphname = Thorn;
layers = (
{
components = (
{
name = I;
transform = "{1, 0, 0, 1, -10, 0}";
}
);
layerId = "CF31647D-EA7E-42DE-ACE7-E9318D6117AA";
paths = (
{
closed = 1;
nodes = (
"208 165 LINE",
"203 130 LINE",
"323 130 LINE SMOOTH",
"445 130 OFFCURVE",
"636 199 OFFCURVE",
"636 370 CURVE SMOOTH",
"636 516 OFFCURVE",
"492 550 OFFCURVE",
"376 550 CURVE SMOOTH",
"262 550 LINE",
"257 515 LINE",
"357 515 LINE SMOOTH",
"453 515 OFFCURVE",
"540 478 OFFCURVE",
"540 353 CURVE SMOOTH",
"540 211 OFFCURVE",
"427 165 OFFCURVE",
"308 165 CURVE SMOOTH"
);
}
);
width = 653;
},
{
components = (
{
name = I;
}
);
layerId = "37DD2CA1-C758-4BBE-932B-6884A881B1A3";
paths = (
{
closed = 1;
nodes = (
"220 175 LINE",
"215 140 LINE",
"365 140 LINE SMOOTH",
"508 140 OFFCURVE",
"688 208 OFFCURVE",
"688 383 CURVE SMOOTH",
"688 515 OFFCURVE",
"548 560 OFFCURVE",
"414 560 CURVE SMOOTH",
"274 560 LINE",
"269 525 LINE",
"379 525 LINE SMOOTH",
"455 525 OFFCURVE",
"522 477 OFFCURVE",
"522 377 CURVE SMOOTH",
"522 242 OFFCURVE",
"429 175 OFFCURVE",
"330 175 CURVE SMOOTH"
);
}
);
width = 695;
}
);
leftMetricsKey = "=P";
rightKerningGroup = O;
rightMetricsKey = "=P";
unicode = 00DE;
},
{
color = 3;
glyphname = Q;
layers = (
{
anchors = (
{
name = bottom;
position = "{380, 0}";
},
{
name = top;
position = "{380, 670}";
}
);
components = (
{
name = O;
}
);
layerId = "CF31647D-EA7E-42DE-ACE7-E9318D6117AA";
paths = (
{
closed = 1;
nodes = (
"556 -101 OFFCURVE",
"532 -120 OFFCURVE",
"509 -120 CURVE SMOOTH",
"420 -120 OFFCURVE",
"443 170 OFFCURVE",
"272 170 CURVE SMOOTH",
"228 170 OFFCURVE",
"199 150 OFFCURVE",
"172 119 CURVE",
"196 96 LINE",
"210 111 OFFCURVE",
"234 130 OFFCURVE",
"257 130 CURVE SMOOTH",
"346 130 OFFCURVE",
"323 -160 OFFCURVE",
"494 -160 CURVE SMOOTH",
"538 -160 OFFCURVE",
"567 -140 OFFCURVE",
"594 -109 CURVE",
"570 -86 LINE"
);
}
);
width = 744;
},
{
associatedMasterId = "CF31647D-EA7E-42DE-ACE7-E9318D6117AA";
layerId = "B86316D3-37F5-41F4-98A8-FF395678EF16";
name = "Feb 1 18, 18:00";
paths = (
{
closed = 1;
nodes = (
"581 -9 OFFCURVE",
"728 133 OFFCURVE",
"728 335 CURVE",
"728 523 OFFCURVE",
"581 677 OFFCURVE",
"398 677 CURVE",
"217 677 OFFCURVE",
"50 523 OFFCURVE",
"50 335 CURVE",
"50 133 OFFCURVE",
"201 -9 OFFCURVE",
"382 -9 CURVE"
);
},
{
closed = 1;
nodes = (
"663 -215 OFFCURVE",
"695 -177 OFFCURVE",
"708 -135 CURVE",
"681 -124 LINE",
"666 -155 OFFCURVE",
"641 -172 OFFCURVE",
"608 -172 CURVE SMOOTH",
"500 -172 OFFCURVE",
"546 128 OFFCURVE",
"374 128 CURVE SMOOTH",
"332 128 OFFCURVE",
"287 113 OFFCURVE",
"266 97 CURVE",
"285 70 LINE",
"307 88 OFFCURVE",
"327 94 OFFCURVE",
"347 94 CURVE SMOOTH",
"458 94 OFFCURVE",
"421 -215 OFFCURVE",
"580 -215 CURVE SMOOTH"
);
},
{
closed = 1;
nodes = (
"291 26 OFFCURVE",
"139 87 OFFCURVE",
"139 322 CURVE",
"139 584 OFFCURVE",
"309 645 OFFCURVE",
"398 645 CURVE",
"487 645 OFFCURVE",
"639 584 OFFCURVE",
"639 322 CURVE",
"639 87 OFFCURVE",
"487 26 OFFCURVE",
"382 26 CURVE"
);
}
);
width = 760;
},
{
anchors = (
{
name = bottom;
position = "{380, 0}";
},
{
name = top;
position = "{380, 670}";
}
);
components = (
{
name = O;
}
);
guideLines = (
{
angle = 90;
position = "{720, 335}";
}
);
layerId = "37DD2CA1-C758-4BBE-932B-6884A881B1A3";
paths = (
{
closed = 1;
nodes = (
"592 -56 OFFCURVE",
"571 -80 OFFCURVE",
"546 -80 CURVE SMOOTH",
"460 -80 OFFCURVE",
"542 230 OFFCURVE",
"356 230 CURVE SMOOTH",
"308 230 OFFCURVE",
"263 211 OFFCURVE",
"219 139 CURVE",
"242 116 LINE",
"250 126 OFFCURVE",
"271 150 OFFCURVE",
"296 150 CURVE SMOOTH",
"382 150 OFFCURVE",
"300 -160 OFFCURVE",
"486 -160 CURVE SMOOTH",
"534 -160 OFFCURVE",
"579 -141 OFFCURVE",
"623 -69 CURVE",
"600 -46 LINE"
);
}
);
width = 764;
}
);
leftKerningGroup = O;
leftMetricsKey = "=O";
rightKerningGroup = O;
rightMetricsKey = "=O";
unicode = 0051;
},
{
color = 6;
glyphname = R;
layers = (
{
anchors = (
{
name = bottom;
position = "{321, 0}";
},
{
name = top;
position = "{415, 670}";
}
);
guideLines = (
{
angle = 126.486;
position = "{598, 35}";
}
);
layerId = "CF31647D-EA7E-42DE-ACE7-E9318D6117AA";
paths = (
{
closed = 1;
nodes = (
"666 0 LINE",
"671 35 LINE",
"596 35 LINE",
"423 323 LINE",
"321 323 LINE",
"490 40 LINE",
"485 35 LINE",
"404 35 LINE",
"399 0 LINE"
);
},
{
closed = 1;
nodes = (
"112 670 LINE",
"107 635 LINE",
"187 635 LINE",
"192 630 LINE",
"109 40 LINE",
"104 35 LINE",
"23 35 LINE",
"18 0 LINE",
"278 0 LINE",
"283 35 LINE",
"204 35 LINE",
"199 40 LINE",
"237 310 LINE",
"357 310 LINE SMOOTH",
"467 310 OFFCURVE",
"635 373 OFFCURVE",
"635 513 CURVE SMOOTH",
"635 631 OFFCURVE",
"519 670 OFFCURVE",
"407 670 CURVE SMOOTH"
);
},
{
closed = 1;
nodes = (
"241 345 LINE",
"282 630 LINE",
"287 635 LINE",
"382 635 LINE SMOOTH",
"479 635 OFFCURVE",
"540 597 OFFCURVE",
"540 504 CURVE SMOOTH",
"540 391 OFFCURVE",
"450 345 OFFCURVE",
"341 345 CURVE SMOOTH"
);
}
);
width = 698;
},
{
anchors = (
{
name = bottom;
position = "{325, 0}";
},
{
name = top;
position = "{419, 670}";
}
);
layerId = "37DD2CA1-C758-4BBE-932B-6884A881B1A3";
paths = (
{
closed = 1;
nodes = (
"669 0 LINE",
"674 35 LINE",
"609 35 LINE",
"447 323 LINE",
"285 323 LINE",
"434 45 LINE",
"424 35 LINE",
"363 35 LINE",
"358 0 LINE"
);
},
{
closed = 1;
nodes = (
"91 670 LINE",
"86 635 LINE",
"140 635 LINE",
"150 625 LINE",
"68 45 LINE",
"58 35 LINE",
"2 35 LINE",
"-3 0 LINE",
"282 0 LINE",
"287 35 LINE",
"233 35 LINE",
"223 45 LINE",
"261 310 LINE",
"376 310 LINE SMOOTH",
"497 310 OFFCURVE",
"654 372 OFFCURVE",
"654 512 CURVE SMOOTH",
"654 630 OFFCURVE",
"532 670 OFFCURVE",
"416 670 CURVE SMOOTH"
);
},
{
closed = 1;
nodes = (
"265 345 LINE",
"305 625 LINE",
"315 635 LINE",
"381 635 LINE SMOOTH",
"439 635 OFFCURVE",
"489 587 OFFCURVE",
"489 511 CURVE SMOOTH",
"489 392 OFFCURVE",
"417 345 OFFCURVE",
"340 345 CURVE SMOOTH"
);
}
);
width = 706;
}
);
leftMetricsKey = "=H";
rightKerningGroup = R;
unicode = 0052;
},
{
color = 6;
glyphname = S;
layers = (
{
anchors = (
{
name = bottom;
position = "{269, 0}";
},
{
name = top;
position = "{363, 670}";
}
);
guideLines = (
{
angle = 62.3005;
position = "{123, 1}";
}
);
layerId = "CF31647D-EA7E-42DE-ACE7-E9318D6117AA";
paths = (
{
closed = 1;
nodes = (
"200 582 OFFCURVE",
"258 640 OFFCURVE",
"357 640 CURVE SMOOTH",
"417 640 OFFCURVE",
"506 613 OFFCURVE",
"536 466 CURVE",
"571 476 LINE",
"566 539 OFFCURVE",
"564 602 OFFCURVE",
"568 670 CURVE",
"533 670 LINE",
"506 629 LINE",
"462 664 OFFCURVE",
"417 680 OFFCURVE",
"358 680 CURVE SMOOTH",
"225 680 OFFCURVE",
"126 609 OFFCURVE",
"126 491 CURVE SMOOTH",
"126 283 OFFCURVE",
"463 325 OFFCURVE",
"463 162 CURVE SMOOTH",
"463 72 OFFCURVE",
"387 30 OFFCURVE",
"301 30 CURVE SMOOTH",
"232 30 OFFCURVE",
"134 76 OFFCURVE",
"92 224 CURVE",
"58 214 LINE",
"63 151 OFFCURVE",
"68 69 OFFCURVE",
"63 1 CURVE",
"98 1 LINE",
"125 41 LINE",
"169 10 OFFCURVE",
"235 -10 OFFCURVE",
"305 -10 CURVE SMOOTH",
"436 -10 OFFCURVE",
"538 64 OFFCURVE",
"538 190 CURVE SMOOTH",
"538 417 OFFCURVE",
"200 366 OFFCURVE",
"200 515 CURVE SMOOTH"
);
}
);
width = 606;
},
{
associatedMasterId = "CF31647D-EA7E-42DE-ACE7-E9318D6117AA";
layerId = "796F432B-D445-4FA1-BA50-CB9559499470";
name = "Jan 31 18, 16:19";
paths = (
{
closed = 1;
nodes = (
"395 646 OFFCURVE",
"497 527 OFFCURVE",
"497 401 CURVE",
"442 452 LINE",
"564 479 LINE",
"545 424 LINE",
"523 424 OFFCURVE",
"479 637 OFFCURVE",
"479 706 CURVE",
"525 670 LINE",
"453 670 LINE",
"416 598 LINE",
"460 598 LINE",
"460 617 OFFCURVE",
"384 683 OFFCURVE",
"275 683 CURVE SMOOTH",
"140 683 OFFCURVE",
"73 600 OFFCURVE",
"73 515 CURVE SMOOTH",
"73 269 OFFCURVE",
"473 346 OFFCURVE",
"473 149 CURVE SMOOTH",
"473 61 OFFCURVE",
"401 21 OFFCURVE",
"323 21 CURVE SMOOTH",
"166 21 OFFCURVE",
"76 170 OFFCURVE",
"76 253 CURVE",
"124 232 LINE",
"4 202 LINE",
"42 251 LINE",
"94 0 LINE",
"120 6 LINE",
"146 73 LINE",
"105 92 LINE",
"125 38 OFFCURVE",
"209 -11 OFFCURVE",
"323 -11 CURVE SMOOTH",
"456 -11 OFFCURVE",
"540 61 OFFCURVE",
"540 176 CURVE SMOOTH",
"540 434 OFFCURVE",
"143 362 OFFCURVE",
"143 533 CURVE SMOOTH",
"143 591 OFFCURVE",
"178 646 OFFCURVE",
"284 646 CURVE SMOOTH"
);
}
);
width = 600;
},
{
anchors = (
{
name = bottom;
position = "{275, 0}";
},
{
name = top;
position = "{369, 670}";
}
);
guideLines = (
{
angle = 62.3005;
position = "{473, 649}";
}
);
layerId = "37DD2CA1-C758-4BBE-932B-6884A881B1A3";
paths = (
{
closed = 1;
nodes = (
"251 604 OFFCURVE",
"298 640 OFFCURVE",
"362 640 CURVE SMOOTH",
"431 640 OFFCURVE",
"515 598 OFFCURVE",
"553 446 CURVE",
"587 456 LINE",
"582 519 OFFCURVE",
"580 602 OFFCURVE",
"584 670 CURVE",
"549 670 LINE",
"528 639 LINE",
"487 666 OFFCURVE",
"435 680 OFFCURVE",
"370 680 CURVE SMOOTH",
"211 680 OFFCURVE",
"110 598 OFFCURVE",
"110 480 CURVE SMOOTH",
"110 274 OFFCURVE",
"414 283 OFFCURVE",
"414 132 CURVE SMOOTH",
"414 68 OFFCURVE",
"360 30 OFFCURVE",
"287 30 CURVE SMOOTH",
"204 30 OFFCURVE",
"127 81 OFFCURVE",
"81 244 CURVE",
"47 234 LINE",
"52 171 OFFCURVE",
"54 69 OFFCURVE",
"49 1 CURVE",
"84 1 LINE",
"105 31 LINE",
"145 9 OFFCURVE",
"199 -10 OFFCURVE",
"277 -10 CURVE SMOOTH",
"445 -10 OFFCURVE",
"555 77 OFFCURVE",
"555 204 CURVE SMOOTH",
"555 416 OFFCURVE",
"251 396 OFFCURVE",
"251 545 CURVE SMOOTH"
);
}
);
width = 610;
}
);
leftKerningGroup = O;
leftMetricsKey = "=O*1.2";
rightKerningGroup = O;
rightMetricsKey = "=O*1.2";
unicode = 0053;
},
{
color = 6;
glyphname = Germandbls;
layers = (
{
anchors = (
{
name = bottom;
position = "{253, 0}";
},
{
name = top;
position = "{347, 670}";
}
);
layerId = "CF31647D-EA7E-42DE-ACE7-E9318D6117AA";
paths = (
{
closed = 1;
nodes = (
"526 527 OFFCURVE",
"574 589 OFFCURVE",
"688 640 CURVE",
"692 670 LINE",
"112 670 LINE",
"107 635 LINE",
"187 635 LINE",
"192 630 LINE",
"109 40 LINE",
"104 35 LINE",
"23 35 LINE",
"18 0 LINE",
"193 0 LINE",
"282 630 LINE",
"287 635 LINE",
"626 635 LINE",
"532 600 OFFCURVE",
"447 540 OFFCURVE",
"447 439 CURVE SMOOTH",
"447 298 OFFCURVE",
"612 289 OFFCURVE",
"612 158 CURVE SMOOTH",
"612 86 OFFCURVE",
"562 30 OFFCURVE",
"484 30 CURVE SMOOTH",
"421 30 OFFCURVE",
"362 66 OFFCURVE",
"317 184 CURVE",
"282 174 LINE",
"288 111 OFFCURVE",
"288 69 OFFCURVE",
"283 1 CURVE",
"318 1 LINE",
"345 41 LINE",
"387 12 OFFCURVE",
"411 -10 OFFCURVE",
"477 -10 CURVE SMOOTH",
"604 -10 OFFCURVE",
"696 71 OFFCURVE",
"696 184 CURVE SMOOTH",
"696 338 OFFCURVE",
"526 349 OFFCURVE",
"526 465 CURVE SMOOTH"
);
}
);
width = 709;
},
{
anchors = (
{
name = bottom;
position = "{249, 0}";
},
{
name = top;
position = "{343, 670}";
}
);
layerId = "37DD2CA1-C758-4BBE-932B-6884A881B1A3";
paths = (
{
closed = 1;
nodes = (
"548 562 OFFCURVE",
"651 618 OFFCURVE",
"722 640 CURVE",
"726 670 LINE",
"91 670 LINE",
"86 635 LINE",
"140 635 LINE",
"150 625 LINE",
"68 45 LINE",
"58 35 LINE",
"2 35 LINE",
"-3 0 LINE",
"217 0 LINE",
"305 625 LINE",
"315 635 LINE",
"627 635 LINE",
"505 595 OFFCURVE",
"408 529 OFFCURVE",
"408 414 CURVE SMOOTH",
"408 253 OFFCURVE",
"599 248 OFFCURVE",
"599 120 CURVE SMOOTH",
"599 62 OFFCURVE",
"560 30 OFFCURVE",
"500 30 CURVE SMOOTH",
"433 30 OFFCURVE",
"377 71 OFFCURVE",
"327 204 CURVE",
"292 194 LINE",
"297 131 OFFCURVE",
"295 69 OFFCURVE",
"290 1 CURVE",
"325 1 LINE",
"346 31 LINE",
"395 1 OFFCURVE",
"448 -10 OFFCURVE",
"501 -10 CURVE SMOOTH",
"641 -10 OFFCURVE",
"746 65 OFFCURVE",
"746 180 CURVE SMOOTH",
"746 337 OFFCURVE",
"548 363 OFFCURVE",
"548 479 CURVE SMOOTH"
);
}
);
width = 761;
}
);
leftMetricsKey = "=E";
rightKerningGroup = o;
rightMetricsKey = "=r";
unicode = 1E9E;
},
{
color = 6;
glyphname = T;
layers = (
{
anchors = (
{
name = bottom;
position = "{273, 0}";
},
{
name = center;
position = "{320, 335}";
},
{
name = top;
position = "{367, 670}";
}
);
guideLines = (
{
angle = 102.68;
position = "{577, 500}";
},
{
angle = 196.858;
position = "{574, 499}";
},
{
angle = 102.68;
position = "{592, 590}";
}
);
layerId = "CF31647D-EA7E-42DE-ACE7-E9318D6117AA";
paths = (
{
closed = 1;
nodes = (
"112 670 LINE",
"54 510 LINE",
"85 500 LINE",
"128 605 OFFCURVE",
"181 635 OFFCURVE",
"316 635 CURVE",
"233 40 LINE",
"228 35 LINE",
"147 35 LINE",
"142 0 LINE",
"402 0 LINE",
"407 35 LINE",
"328 35 LINE",
"323 40 LINE",
"406 635 LINE",
"541 635 OFFCURVE",
"586 605 OFFCURVE",
"599 500 CURVE",
"634 510 LINE",
"620 670 LINE"
);
}
);
width = 610;
},
{
anchors = (
{
name = bottom;
position = "{295, 0}";
},
{
name = center;
position = "{342, 335}";
},
{
name = top;
position = "{389, 670}";
}
);
guideLines = (
{
angle = 196.858;
position = "{620, 485}";
},
{
angle = 102.68;
position = "{616, 670}";
}
);
layerId = "37DD2CA1-C758-4BBE-932B-6884A881B1A3";
paths = (
{
closed = 1;
nodes = (
"115 670 LINE",
"50 491 LINE",
"82 481 LINE",
"146 596 OFFCURVE",
"234 635 OFFCURVE",
"306 635 CURVE",
"223 45 LINE",
"213 35 LINE",
"157 35 LINE",
"152 0 LINE",
"437 0 LINE",
"442 35 LINE",
"388 35 LINE",
"378 45 LINE",
"461 635 LINE",
"533 635 OFFCURVE",
"612 596 OFFCURVE",
"644 481 CURVE",
"678 491 LINE",
"663 670 LINE"
);
}
);
width = 658;
}
);
leftKerningGroup = T;
rightKerningGroup = T;
unicode = 0054;
},
{
color = 6;
glyphname = Tbar;
layers = (
{
anchors = (
{
name = bottom;
position = "{273, 0}";
},
{
name = center;
position = "{320, 335}";
},
{
name = top;
position = "{367, 670}";
}
);
layerId = "CF31647D-EA7E-42DE-ACE7-E9318D6117AA";
paths = (
{
closed = 1;
nodes = (
"112 670 LINE",
"54 510 LINE",
"85 500 LINE",
"128 605 OFFCURVE",
"181 635 OFFCURVE",
"316 635 CURVE",
"233 40 LINE",
"228 35 LINE",
"147 35 LINE",
"142 0 LINE",
"402 0 LINE",
"407 35 LINE",
"328 35 LINE",
"323 40 LINE",
"406 635 LINE",
"541 635 OFFCURVE",
"586 605 OFFCURVE",
"599 500 CURVE",
"634 510 LINE",
"620 670 LINE"
);
},
{
closed = 1;
nodes = (
"117.569 317 LINE",
"506.529 317 LINE",
"511.391 352 LINE",
"122.431 352 LINE"
);
}
);
width = 610;
},
{
anchors = (
{
name = bottom;
position = "{295, 0}";
},
{
name = center;
position = "{342, 335}";
},
{
name = top;
position = "{389, 670}";
}
);
layerId = "37DD2CA1-C758-4BBE-932B-6884A881B1A3";
paths = (
{
closed = 1;
nodes = (
"115 670 LINE",
"50 491 LINE",
"82 481 LINE",
"146 596 OFFCURVE",
"234 635 OFFCURVE",
"306 635 CURVE",
"223 45 LINE",
"213 35 LINE",
"157 35 LINE",
"152 0 LINE",
"437 0 LINE",
"442 35 LINE",
"388 35 LINE",
"378 45 LINE",
"461 635 LINE",
"533 635 OFFCURVE",
"612 596 OFFCURVE",
"644 481 CURVE",
"678 491 LINE",
"663 670 LINE"
);
},
{
closed = 1;
nodes = (
"97.569 317 LINE",
"571.614 317 LINE",
"576.476 352 LINE",
"102.431 352 LINE"
);
}
);
width = 658;
}
);
leftKerningGroup = T;
leftMetricsKey = "=T";
rightKerningGroup = T;
rightMetricsKey = "=T";
unicode = 0166;
},
{
color = 6;
glyphname = U;
layers = (
{
anchors = (
{
name = bottom;
position = "{358, 0}";
},
{
name = ogonek;
position = "{415, 0}";
},
{
name = top;
position = "{452, 670}";
},
{
name = topright;
position = "{782, 670}";
}
);
layerId = "CF31647D-EA7E-42DE-ACE7-E9318D6117AA";
paths = (
{
closed = 1;
nodes = (
"547 635 LINE",
"626 635 LINE",
"631 630 LINE",
"577 245 LINE SMOOTH",
"559 114 OFFCURVE",
"461 40 OFFCURVE",
"357 40 CURVE SMOOTH",
"239 40 OFFCURVE",
"195 125 OFFCURVE",
"212 245 CURVE SMOOTH",
"266 630 LINE",
"271 635 LINE",
"352 635 LINE",
"357 670 LINE",
"97 670 LINE",
"92 635 LINE",
"171 635 LINE",
"176 630 LINE",
"120 233 LINE SMOOTH",
"101 97 OFFCURVE",
"170 -10 OFFCURVE",
"350 -10 CURVE SMOOTH",
"485 -10 OFFCURVE",
"600 87 OFFCURVE",
"622 245 CURVE SMOOTH",
"676 630 LINE",
"681 635 LINE",
"752 635 LINE",
"757 670 LINE",
"552 670 LINE"
);
}
);
width = 730;
},
{
anchors = (
{
name = bottom;
position = "{353, 0}";
},
{
name = ogonek;
position = "{412, 0}";
},
{
name = top;
position = "{447, 670}";
},
{
name = topright;
position = "{753, 670}";
}
);
layerId = "37DD2CA1-C758-4BBE-932B-6884A881B1A3";
paths = (
{
closed = 1;
nodes = (
"542 635 LINE",
"625 635 LINE",
"635 625 LINE",
"582 245 LINE SMOOTH",
"564 114 OFFCURVE",
"471 40 OFFCURVE",
"377 40 CURVE SMOOTH",
"259 40 OFFCURVE",
"227 135 OFFCURVE",
"243 255 CURVE SMOOTH",
"295 625 LINE",
"305 635 LINE",
"362 635 LINE",
"367 670 LINE",
"82 670 LINE",
"77 635 LINE",
"130 635 LINE",
"140 625 LINE",
"85 233 LINE SMOOTH",
"66 97 OFFCURVE",
"164 -10 OFFCURVE",
"344 -10 CURVE SMOOTH",
"499 -10 OFFCURVE",
"605 87 OFFCURVE",
"627 245 CURVE SMOOTH",
"680 625 LINE",
"690 635 LINE",
"747 635 LINE",
"752 670 LINE",
"547 670 LINE"
);
}
);
width = 713;
}
);
leftKerningGroup = U;
leftMetricsKey = "=H*0.7";
rightKerningGroup = U;
rightMetricsKey = "=H*0.7";
unicode = 0055;
},
{
color = 6;
glyphname = Uhorn;
layers = (
{
anchors = (
{
name = bottom;
position = "{358, 0}";
},
{
name = ogonek;
position = "{415, 0}";
},
{
name = top;
position = "{452, 670}";
},
{
name = topright;
position = "{782, 670}";
}
);
layerId = "CF31647D-EA7E-42DE-ACE7-E9318D6117AA";
paths = (
{
closed = 1;
nodes = (
"485 -10 OFFCURVE",
"600 87 OFFCURVE",
"622 245 CURVE SMOOTH",
"676 630 LINE",
"681 635 LINE",
"689 635 LINE SMOOTH",
"778 635 OFFCURVE",
"844 703 OFFCURVE",
"844 782 CURVE SMOOTH",
"844 815 OFFCURVE",
"823 830 OFFCURVE",
"796 830 CURVE SMOOTH",
"760 830 OFFCURVE",
"731 800 OFFCURVE",
"731 765 CURVE SMOOTH",
"731 739 OFFCURVE",
"748 721 OFFCURVE",
"776 721 CURVE SMOOTH",
"780 721 OFFCURVE",
"785 722 OFFCURVE",
"790 723 CURVE",
"768 685 OFFCURVE",
"732 670 OFFCURVE",
"695 670 CURVE SMOOTH",
"552 670 LINE",
"547 635 LINE",
"626 635 LINE",
"631 630 LINE",
"577 245 LINE SMOOTH",
"559 114 OFFCURVE",
"461 40 OFFCURVE",
"357 40 CURVE SMOOTH",
"239 40 OFFCURVE",
"195 125 OFFCURVE",
"212 245 CURVE SMOOTH",
"266 630 LINE",
"271 635 LINE",
"352 635 LINE",
"357 670 LINE",
"97 670 LINE",
"92 635 LINE",
"171 635 LINE",
"176 630 LINE",
"120 233 LINE SMOOTH",
"101 97 OFFCURVE",
"170 -10 OFFCURVE",
"350 -10 CURVE SMOOTH"
);
}
);
width = 730;
},
{
anchors = (
{
name = bottom;
position = "{353, 0}";
},
{
name = ogonek;
position = "{412, 0}";
},
{
name = top;
position = "{447, 670}";
},
{
name = topright;
position = "{753, 670}";
}
);
layerId = "37DD2CA1-C758-4BBE-932B-6884A881B1A3";
paths = (
{
closed = 1;
nodes = (
"499 -10 OFFCURVE",
"605 87 OFFCURVE",
"627 245 CURVE SMOOTH",
"680 625 LINE",
"690 635 LINE",
"705 635 LINE SMOOTH",
"797 635 OFFCURVE",
"856 725 OFFCURVE",
"856 796 CURVE SMOOTH",
"856 833 OFFCURVE",
"828 849 OFFCURVE",
"804 849 CURVE SMOOTH",
"763 849 OFFCURVE",
"727 814 OFFCURVE",
"727 774 CURVE SMOOTH",
"727 744 OFFCURVE",
"750 722 OFFCURVE",
"781 722 CURVE SMOOTH",
"784 722 OFFCURVE",
"786 722 OFFCURVE",
"789 723 CURVE",
"772 696 OFFCURVE",
"743 670 OFFCURVE",
"711 670 CURVE SMOOTH",
"547 670 LINE",
"542 635 LINE",
"625 635 LINE",
"635 625 LINE",
"582 245 LINE SMOOTH",
"564 114 OFFCURVE",
"471 40 OFFCURVE",
"377 40 CURVE SMOOTH",
"259 40 OFFCURVE",
"226 135 OFFCURVE",
"243 255 CURVE SMOOTH",
"295 625 LINE",
"305 635 LINE",
"362 635 LINE",
"367 670 LINE",
"82 670 LINE",
"77 635 LINE",
"130 635 LINE",
"140 625 LINE",
"85 233 LINE SMOOTH",
"66 97 OFFCURVE",
"164 -10 OFFCURVE",
"344 -10 CURVE SMOOTH"
);
}
);
width = 713;
}
);
leftKerningGroup = U;
leftMetricsKey = "=U";
rightKerningGroup = U;
unicode = 01AF;
},
{
color = 6;
glyphname = V;
layers = (
{
anchors = (
{
name = bottom;
position = "{355, 0}";
},
{
name = top;
position = "{355, 670}";
}
);
layerId = "CF31647D-EA7E-42DE-ACE7-E9318D6117AA";
paths = (
{
closed = 1;
nodes = (
"522 635 LINE",
"606 635 LINE",
"611 630 LINE",
"357 100 LINE",
"352 100 LINE",
"237 630 LINE",
"242 635 LINE",
"313 635 LINE",
"318 670 LINE",
"77 670 LINE",
"72 635 LINE",
"142 635 LINE",
"282 0 LINE",
"359 0 LINE",
"666 635 LINE",
"726 635 LINE",
"731 670 LINE",
"527 670 LINE"
);
}
);
width = 684;
},
{
associatedMasterId = "CF31647D-EA7E-42DE-ACE7-E9318D6117AA";
layerId = "C26A4183-EE6C-4861-AB27-BFBEC8D5C844";
name = "Feb 1 18, 17:47";
paths = (
{
closed = 1;
nodes = (
"369 0 LINE",
"382 70 LINE",
"177 670 LINE",
"15 670 LINE",
"15 640 LINE",
"98 640 LINE",
"312 0 LINE"
);
},
{
closed = 1;
nodes = (
"389 0 LINE",
"605 659 LINE",
"570 659 LINE",
"354 0 LINE"
);
},
{
closed = 1;
nodes = (
"673 640 LINE",
"673 670 LINE",
"491 670 LINE",
"491 640 LINE"
);
},
{
closed = 1;
nodes = (
"270 640 LINE",
"270 670 LINE",
"136 670 LINE",
"136 640 LINE"
);
}
);
width = 683;
},
{
anchors = (
{
name = bottom;
position = "{303, 0}";
},
{
name = top;
position = "{397, 670}";
}
);
layerId = "37DD2CA1-C758-4BBE-932B-6884A881B1A3";
paths = (
{
closed = 1;
nodes = (
"532 635 LINE",
"616 635 LINE",
"626 625 LINE",
"397 175 LINE",
"392 175 LINE",
"280 625 LINE",
"290 635 LINE",
"349 635 LINE",
"354 670 LINE",
"56 670 LINE",
"51 635 LINE",
"106 635 LINE",
"273 0 LINE",
"358 0 LINE",
"682 635 LINE",
"737 635 LINE",
"742 670 LINE",
"537 670 LINE"
);
}
);
width = 672;
}
);
leftKerningGroup = V;
leftMetricsKey = "=|A";
rightKerningGroup = V;
rightMetricsKey = "=|A";
unicode = 0056;
},
{
color = 6;
glyphname = W;
layers = (
{
anchors = (
{
name = bottom;
position = "{502, 0}";
},
{
name = top;
position = "{522, 670}";
}
);
layerId = "CF31647D-EA7E-42DE-ACE7-E9318D6117AA";
paths = (
{
closed = 1;
nodes = (
"326 0 LINE",
"535 480 LINE",
"540 480 LINE",
"609 0 LINE",
"686 0 LINE",
"962 635 LINE",
"1022 635 LINE",
"1027 670 LINE",
"825 670 LINE",
"820 635 LINE",
"904 635 LINE",
"909 630 LINE",
"690 120 LINE",
"685 120 LINE",
"612 630 LINE",
"617 635 LINE",
"684 635 LINE",
"689 670 LINE",
"458 670 LINE",
"453 635 LINE",
"518 635 LINE",
"525 567 LINE",
"328 120 LINE",
"323 120 LINE",
"239 630 LINE",
"244 635 LINE",
"310 635 LINE",
"315 670 LINE",
"80 670 LINE",
"75 635 LINE",
"145 635 LINE",
"249 0 LINE"
);
}
);
width = 983;
},
{
associatedMasterId = "CF31647D-EA7E-42DE-ACE7-E9318D6117AA";
layerId = "08383D82-2182-4127-B34B-6EA12D180C81";
name = "Feb 1 18, 17:59";
paths = (
{
closed = 1;
nodes = (
"359 0 LINE",
"370 70 LINE",
"197 670 LINE",
"30 670 LINE",
"30 640 LINE",
"111 640 LINE",
"311 0 LINE"
);
},
{
closed = 1;
nodes = (
"374 0 LINE",
"527 659 LINE",
"493 659 LINE",
"339 0 LINE"
);
},
{
closed = 1;
nodes = (
"646 640 LINE",
"646 670 LINE",
"464 670 LINE",
"464 640 LINE"
);
},
{
closed = 1;
nodes = (
"276 640 LINE",
"276 670 LINE",
"158 670 LINE",
"158 640 LINE"
);
},
{
closed = 1;
nodes = (
"685 0 LINE",
"705 70 LINE",
"548 670 LINE",
"382 670 LINE",
"382 640 LINE",
"468 640 LINE",
"636 0 LINE"
);
},
{
closed = 1;
nodes = (
"702 0 LINE",
"887 659 LINE",
"857 659 LINE",
"672 0 LINE"
);
},
{
closed = 1;
nodes = (
"952 640 LINE",
"952 670 LINE",
"782 670 LINE",
"782 640 LINE"
);
},
{
closed = 1;
nodes = (
"600 640 LINE",
"600 670 LINE",
"486 670 LINE",
"486 640 LINE"
);
}
);
width = 968;
},
{
anchors = (
{
name = bottom;
position = "{453, 0}";
},
{
name = top;
position = "{577, 670}";
}
);
layerId = "37DD2CA1-C758-4BBE-932B-6884A881B1A3";
paths = (
{
closed = 1;
nodes = (
"308 0 LINE",
"532 460 LINE",
"537 460 LINE",
"638 0 LINE",
"713 0 LINE",
"984 635 LINE",
"1042 635 LINE",
"1047 670 LINE",
"838 670 LINE",
"833 635 LINE",
"917 635 LINE",
"927 625 LINE",
"755 215 LINE",
"750 215 LINE",
"667 625 LINE",
"677 635 LINE",
"746 635 LINE",
"751 670 LINE",
"447 670 LINE",
"442 635 LINE",
"495 635 LINE",
"517 533 LINE",
"362 215 LINE",
"357 215 LINE",
"282 625 LINE",
"292 635 LINE",
"348 635 LINE",
"353 670 LINE",
"55 670 LINE",
"50 635 LINE",
"105 635 LINE",
"233 0 LINE"
);
}
);
width = 975;
}
);
leftKerningGroup = V;
leftMetricsKey = "=V*1.2";
rightKerningGroup = V;
rightMetricsKey = "=V*1.2";
unicode = 0057;
},
{
color = 6;
glyphname = X;
layers = (
{
anchors = (
{
name = bottom;
position = "{302, 0}";
},
{
name = right_bottom;
position = "{624, 35}";
},
{
name = top;
position = "{396, 670}";
}
);
layerId = "CF31647D-EA7E-42DE-ACE7-E9318D6117AA";
paths = (
{
closed = 1;
nodes = (
"272 630 LINE",
"277 635 LINE",
"348 635 LINE",
"353 670 LINE",
"98 670 LINE",
"93 635 LINE",
"163 635 LINE",
"446 40 LINE",
"441 35 LINE",
"370 35 LINE",
"365 0 LINE",
"619 0 LINE",
"624 35 LINE",
"554 35 LINE"
);
},
{
closed = 1;
nodes = (
"396 352 LINE",
"619 635 LINE",
"679 635 LINE",
"684 670 LINE",
"475 670 LINE",
"470 635 LINE",
"554 635 LINE",
"559 630 LINE",
"342 352 LINE"
);
},
{
closed = 1;
nodes = (
"299 352 LINE",
"49 35 LINE",
"-11 35 LINE",
"-16 0 LINE",
"203 0 LINE",
"208 35 LINE",
"114 35 LINE",
"109 40 LINE",
"353 352 LINE"
);
}
);
width = 668;
},
{
associatedMasterId = "CF31647D-EA7E-42DE-ACE7-E9318D6117AA";
layerId = "CD246193-AC23-4505-8CC2-D82AE777EB95";
name = "Feb 1 18, 18:13";
paths = (
{
closed = 1;
nodes = (
"625 20 LINE",
"245 656 LINE",
"131 656 LINE",
"533 10 LINE"
);
},
{
closed = 1;
nodes = (
"151 0 LINE",
"395 341 LINE",
"337 341 LINE",
"94 0 LINE"
);
},
{
closed = 1;
nodes = (
"652 640 LINE",
"652 670 LINE",
"454 670 LINE",
"454 640 LINE"
);
},
{
closed = 1;
nodes = (
"338 640 LINE",
"338 670 LINE",
"83 670 LINE",
"83 640 LINE"
);
},
{
closed = 1;
nodes = (
"254 0 LINE",
"254 30 LINE",
"50 30 LINE",
"50 0 LINE"
);
},
{
closed = 1;
nodes = (
"698 2 LINE",
"698 32 LINE",
"439 32 LINE",
"439 2 LINE"
);
},
{
closed = 1;
nodes = (
"407 381 LINE",
"602 657 LINE",
"553 657 LINE",
"356 381 LINE"
);
}
);
width = 600;
},
{
anchors = (
{
name = bottom;
position = "{306, 0}";
},
{
name = right_bottom;
position = "{638, 35}";
},
{
name = top;
position = "{400, 670}";
}
);
guideLines = (
{
angle = 237.111;
position = "{427, 494}";
},
{
angle = 237.111;
position = "{377, 494}";
}
);
layerId = "37DD2CA1-C758-4BBE-932B-6884A881B1A3";
paths = (
{
closed = 1;
nodes = (
"304 625 LINE",
"314 635 LINE",
"367 635 LINE",
"372 670 LINE",
"72 670 LINE",
"67 635 LINE",
"122 635 LINE",
"402 45 LINE",
"392 35 LINE",
"336 35 LINE",
"331 0 LINE",
"633 0 LINE",
"638 35 LINE",
"583 35 LINE"
);
},
{
closed = 1;
nodes = (
"415 352 LINE",
"638 635 LINE",
"693 635 LINE",
"698 670 LINE",
"487 670 LINE",
"482 635 LINE",
"566 635 LINE",
"576 625 LINE",
"359 352 LINE"
);
},
{
closed = 1;
nodes = (
"288 352 LINE",
"38 35 LINE",
"-17 35 LINE",
"-22 0 LINE",
"192 0 LINE",
"197 35 LINE",
"113 35 LINE",
"103 45 LINE",
"344 352 LINE"
);
}
);
width = 679;
}
);
leftKerningGroup = X;
rightKerningGroup = X;
unicode = 0058;
},
{
color = 6;
glyphname = Y;
layers = (
{
anchors = (
{
name = bottom;
position = "{336, 0}";
},
{
name = top;
position = "{376, 670}";
},
{
name = topleft;
position = "{39, 670}";
}
);
guideLines = (
{
position = "{386, 284}";
}
);
layerId = "CF31647D-EA7E-42DE-ACE7-E9318D6117AA";
paths = (
{
closed = 1;
nodes = (
"481 635 LINE",
"565 635 LINE",
"570 630 LINE",
"365 337 LINE",
"360 337 LINE",
"240 630 LINE",
"245 635 LINE",
"316 635 LINE",
"321 670 LINE",
"73 670 LINE",
"68 635 LINE",
"138 635 LINE",
"287 279 LINE",
"253 40 LINE",
"248 35 LINE",
"167 35 LINE",
"162 0 LINE",
"422 0 LINE",
"427 35 LINE",
"348 35 LINE",
"343 40 LINE",
"377 279 LINE",
"627 635 LINE",
"687 635 LINE",
"692 670 LINE",
"486 670 LINE"
);
}
);
width = 641;
},
{
associatedMasterId = "CF31647D-EA7E-42DE-ACE7-E9318D6117AA";
layerId = "6324DA40-3221-41B3-A2FA-778217264FD2";
name = "Feb 1 18, 18:06";
paths = (
{
closed = 1;
nodes = (
"480 0 LINE",
"480 30 LINE",
"396 30 LINE",
"396 271 LINE",
"582 640 LINE",
"658 640 LINE",
"658 670 LINE",
"460 670 LINE",
"460 640 LINE",
"539 640 LINE",
"379 323 LINE",
"224 640 LINE",
"306 640 LINE",
"306 670 LINE",
"50 670 LINE",
"50 640 LINE",
"122 640 LINE",
"306 277 LINE",
"306 30 LINE",
"223 30 LINE",
"223 0 LINE"
);
}
);
width = 600;
},
{
anchors = (
{
name = bottom;
position = "{294, 0}";
},
{
name = top;
position = "{429, 670}";
},
{
name = topleft;
position = "{71, 670}";
}
);
layerId = "37DD2CA1-C758-4BBE-932B-6884A881B1A3";
paths = (
{
closed = 1;
nodes = (
"506 635 LINE",
"590 635 LINE",
"600 625 LINE",
"414 355 LINE",
"409 355 LINE",
"290 625 LINE",
"300 635 LINE",
"356 635 LINE",
"361 670 LINE",
"58 670 LINE",
"53 635 LINE",
"108 635 LINE",
"269 289 LINE",
"235 45 LINE",
"225 35 LINE",
"168 35 LINE",
"163 0 LINE",
"448 0 LINE",
"453 35 LINE",
"400 35 LINE",
"390 45 LINE",
"424 289 LINE",
"664 635 LINE",
"719 635 LINE",
"724 670 LINE",
"511 670 LINE"
);
}
);
width = 657;
}
);
leftKerningGroup = Y;
leftMetricsKey = "=V*0.7";
rightKerningGroup = Y;
rightMetricsKey = "=V*0.7";
unicode = 0059;
},
{
color = 6;
glyphname = Z;
layers = (
{
anchors = (
{
name = bottom;
position = "{264, 0}";
},
{
name = top;
position = "{358, 670}";
}
);
layerId = "CF31647D-EA7E-42DE-ACE7-E9318D6117AA";
paths = (
{
closed = 1;
nodes = (
"487 0 LINE",
"557 190 LINE",
"522 190 LINE",
"479 85 OFFCURVE",
"418 35 OFFCURVE",
"302 35 CURVE SMOOTH",
"117 35 LINE",
"112 40 LINE",
"582 640 LINE",
"586 670 LINE",
"130 670 LINE",
"72 510 LINE",
"103 500 LINE",
"146 605 OFFCURVE",
"199 635 OFFCURVE",
"315 635 CURVE SMOOTH",
"458 635 LINE",
"463 630 LINE",
"-6 30 LINE",
"-10 0 LINE"
);
}
);
width = 582;
},
{
anchors = (
{
name = bottom;
position = "{264, 0}";
},
{
name = top;
position = "{358, 670}";
}
);
layerId = "37DD2CA1-C758-4BBE-932B-6884A881B1A3";
paths = (
{
closed = 1;
nodes = (
"513 0 LINE",
"583 190 LINE",
"548 190 LINE",
"485 85 OFFCURVE",
"394 35 OFFCURVE",
"298 35 CURVE SMOOTH",
"191 35 LINE",
"181 45 LINE",
"608 640 LINE",
"612 670 LINE",
"126 670 LINE",
"68 510 LINE",
"99 500 LINE",
"162 605 OFFCURVE",
"245 635 OFFCURVE",
"341 635 CURVE SMOOTH",
"407 635 LINE",
"417 625 LINE",
"-10 30 LINE",
"-14 0 LINE"
);
}
);
width = 595;
},
{
associatedMasterId = "CF31647D-EA7E-42DE-ACE7-E9318D6117AA";
layerId = "2719561A-EBE0-4744-9795-144B2A690500";
name = "Feb 3 18, 10:24";
paths = (
{
closed = 1;
nodes = (
"105 670 LINE",
"65 498 LINE",
"95 492 LINE",
"129 607 OFFCURVE",
"171 640 OFFCURVE",
"295 640 CURVE",
"396 640 LINE",
"50 12 LINE",
"50 0 LINE",
"495 0 LINE",
"526 175 LINE",
"495 185 LINE",
"453 64 OFFCURVE",
"409 31 OFFCURVE",
"285 31 CURVE",
"160 31 LINE",
"495 628 LINE",
"495 670 LINE"
);
}
);
width = 571;
}
);
leftKerningGroup = Z;
rightKerningGroup = Z;
unicode = 005A;
},
{
color = 6;
glyphname = K.ss01;
layers = (
{
anchors = (
{
name = bottom;
position = "{331, 0}";
},
{
name = top;
position = "{425, 670}";
}
);
layerId = "CF31647D-EA7E-42DE-ACE7-E9318D6117AA";
paths = (
{
closed = 1;
nodes = (
"737 670 LINE",
"503 670 LINE",
"498 635 LINE",
"604 635 LINE",
"608 630 LINE",
"237 317 LINE",
"281 630 LINE",
"286 635 LINE",
"367 635 LINE",
"372 670 LINE",
"112 670 LINE",
"107 635 LINE",
"186 635 LINE",
"191 630 LINE",
"109 40 LINE",
"104 35 LINE",
"23 35 LINE",
"18 0 LINE",
"278 0 LINE",
"283 35 LINE",
"204 35 LINE",
"199 40 LINE",
"228 250 LINE",
"313 331 OFFCURVE",
"357 355 OFFCURVE",
"423 355 CURVE SMOOTH",
"494 355 OFFCURVE",
"517 315 OFFCURVE",
"508 250 CURVE SMOOTH",
"479 40 LINE",
"474 35 LINE",
"393 35 LINE",
"388 0 LINE",
"643 0 LINE",
"648 35 LINE",
"574 35 LINE",
"569 40 LINE",
"601 270 LINE SMOOTH",
"611 342 OFFCURVE",
"564 400 OFFCURVE",
"451 400 CURVE SMOOTH",
"428 400 OFFCURVE",
"408 398 OFFCURVE",
"388 393 CURVE",
"677 635 LINE",
"732 635 LINE"
);
}
);
width = 725;
},
{
anchors = (
{
name = bottom;
position = "{329, 0}";
},
{
name = top;
position = "{423, 670}";
}
);
layerId = "37DD2CA1-C758-4BBE-932B-6884A881B1A3";
paths = (
{
closed = 1;
nodes = (
"756 670 LINE",
"509 670 LINE",
"504 635 LINE",
"607 635 LINE",
"617 625 LINE",
"260 310 LINE",
"305 625 LINE",
"315 635 LINE",
"371 635 LINE",
"376 670 LINE",
"91 670 LINE",
"86 635 LINE",
"140 635 LINE",
"150 625 LINE",
"68 45 LINE",
"58 35 LINE",
"2 35 LINE",
"-3 0 LINE",
"282 0 LINE",
"288 35 LINE",
"233 35 LINE",
"223 45 LINE",
"251 240 LINE",
"315 309 OFFCURVE",
"355 335 OFFCURVE",
"397 335 CURVE SMOOTH",
"445 335 OFFCURVE",
"476 314 OFFCURVE",
"467 250 CURVE SMOOTH",
"438 45 LINE",
"428 35 LINE",
"368 35 LINE",
"362 0 LINE",
"662 0 LINE",
"667 35 LINE",
"603 35 LINE",
"593 45 LINE",
"623 260 LINE SMOOTH",
"634 332 OFFCURVE",
"575 390 OFFCURVE",
"467 390 CURVE SMOOTH",
"446 390 OFFCURVE",
"425 388 OFFCURVE",
"407 384 CURVE",
"696 635 LINE",
"751 635 LINE"
);
}
);
width = 726;
}
);
leftMetricsKey = "=H";
rightMetricsKey = "=H";
},
{
color = 6;
glyphname = R.ss01;
layers = (
{
anchors = (
{
name = bottom;
position = "{331, 0}";
},
{
name = top;
position = "{425, 670}";
}
);
layerId = "CF31647D-EA7E-42DE-ACE7-E9318D6117AA";
paths = (
{
closed = 1;
nodes = (
"278 0 LINE",
"283 35 LINE",
"203 35 LINE",
"199 40 LINE",
"236 310 LINE",
"351 310 LINE SMOOTH",
"454 310 OFFCURVE",
"510 278 OFFCURVE",
"501 209 CURVE SMOOTH",
"479 40 LINE",
"473 35 LINE",
"393 35 LINE",
"388 0 LINE",
"643 0 LINE",
"648 35 LINE",
"573 35 LINE",
"569 40 LINE",
"592 222 LINE SMOOTH",
"600 286 OFFCURVE",
"560 322 OFFCURVE",
"489 337 CURVE",
"566 370 OFFCURVE",
"635 431 OFFCURVE",
"635 522 CURVE SMOOTH",
"635 635 OFFCURVE",
"514 670 OFFCURVE",
"407 670 CURVE SMOOTH",
"112 670 LINE",
"107 635 LINE",
"187 635 LINE",
"191 630 LINE",
"109 40 LINE",
"103 35 LINE",
"23 35 LINE",
"18 0 LINE"
);
},
{
closed = 1;
nodes = (
"281 630 LINE",
"287 635 LINE",
"382 635 LINE SMOOTH",
"468 635 OFFCURVE",
"539 596 OFFCURVE",
"539 513 CURVE SMOOTH",
"539 400 OFFCURVE",
"464 345 OFFCURVE",
"341 345 CURVE SMOOTH",
"241 345 LINE"
);
}
);
width = 725;
},
{
anchors = (
{
name = bottom;
position = "{327, 0}";
},
{
name = top;
position = "{421, 670}";
}
);
layerId = "37DD2CA1-C758-4BBE-932B-6884A881B1A3";
paths = (
{
closed = 1;
nodes = (
"282 0 LINE",
"287 35 LINE",
"232 35 LINE",
"223 45 LINE",
"260 310 LINE",
"335 310 LINE SMOOTH",
"423 310 OFFCURVE",
"462 273 OFFCURVE",
"454 210 CURVE SMOOTH",
"433 45 LINE",
"422 35 LINE",
"362 35 LINE",
"357 0 LINE",
"657 0 LINE",
"662 35 LINE",
"597 35 LINE",
"588 45 LINE",
"610 222 LINE SMOOTH",
"618 285 OFFCURVE",
"582 324 OFFCURVE",
"518 343 CURVE",
"593 377 OFFCURVE",
"654 440 OFFCURVE",
"654 521 CURVE SMOOTH",
"654 626 OFFCURVE",
"542 670 OFFCURVE",
"426 670 CURVE SMOOTH",
"91 670 LINE",
"86 635 LINE",
"141 635 LINE",
"150 625 LINE",
"68 45 LINE",
"57 35 LINE",
"2 35 LINE",
"-3 0 LINE"
);
},
{
closed = 1;
nodes = (
"305 625 LINE",
"316 635 LINE",
"381 635 LINE SMOOTH",
"439 635 OFFCURVE",
"488 589 OFFCURVE",
"488 515 CURVE SMOOTH",
"488 425 OFFCURVE",
"436 345 OFFCURVE",
"340 345 CURVE SMOOTH",
"265 345 LINE"
);
}
);
width = 721;
}
);
leftMetricsKey = "=H";
rightMetricsKey = "=H";
},
{
color = 6;
glyphname = Bsmall;
layers = (
{
anchors = (
{
name = bottom;
position = "{228, 0}";
},
{
name = top;
position = "{293, 459}";
}
);
layerId = "CF31647D-EA7E-42DE-ACE7-E9318D6117AA";
paths = (
{
closed = 1;
nodes = (
"446 259 OFFCURVE",
"488 303 OFFCURVE",
"488 363 CURVE SMOOTH",
"488 429 OFFCURVE",
"424 460 OFFCURVE",
"315 460 CURVE SMOOTH",
"58 460 LINE",
"53 425 LINE",
"127 425 LINE",
"132 420 LINE",
"79 40 LINE",
"74 35 LINE",
"-2 35 LINE",
"-7 0 LINE",
"282 0 LINE SMOOTH",
"369 0 OFFCURVE",
"483 47 OFFCURVE",
"483 144 CURVE SMOOTH",
"483 194 OFFCURVE",
"443 236 OFFCURVE",
"366 244 CURVE"
);
},
{
closed = 1;
nodes = (
"212 425 LINE",
"290 425 LINE SMOOTH",
"363 425 OFFCURVE",
"404 402 OFFCURVE",
"404 356 CURVE SMOOTH",
"404 298 OFFCURVE",
"343 251 OFFCURVE",
"265 251 CURVE SMOOTH",
"183 251 LINE",
"207 420 LINE"
);
},
{
closed = 1;
nodes = (
"159 35 LINE",
"154 40 LINE",
"178 216 LINE",
"283 216 LINE SMOOTH",
"357 216 OFFCURVE",
"398 188 OFFCURVE",
"398 139 CURVE SMOOTH",
"398 76 OFFCURVE",
"345 35 OFFCURVE",
"267 35 CURVE SMOOTH"
);
}
);
width = 536;
},
{
anchors = (
{
name = bottom;
position = "{227, 0}";
},
{
name = top;
position = "{295, 481}";
}
);
layerId = "37DD2CA1-C758-4BBE-932B-6884A881B1A3";
paths = (
{
closed = 1;
nodes = (
"453 261 OFFCURVE",
"510 309 OFFCURVE",
"510 377 CURVE SMOOTH",
"510 445 OFFCURVE",
"442 480 OFFCURVE",
"359 480 CURVE SMOOTH",
"34 480 LINE",
"30 445 LINE",
"80 445 LINE",
"88 435 LINE",
"33 45 LINE",
"23 35 LINE",
"-28 35 LINE",
"-33 0 LINE",
"294 0 LINE SMOOTH",
"398 0 OFFCURVE",
"505 54 OFFCURVE",
"505 149 CURVE SMOOTH",
"505 200 OFFCURVE",
"469 247 OFFCURVE",
"376 254 CURVE"
);
},
{
closed = 1;
nodes = (
"235 445 LINE",
"285 445 LINE SMOOTH",
"320 445 OFFCURVE",
"364 422 OFFCURVE",
"364 370 CURVE SMOOTH",
"364 311 OFFCURVE",
"314 260 OFFCURVE",
"259 260 CURVE SMOOTH",
"199 260 LINE",
"223 435 LINE"
);
},
{
closed = 1;
nodes = (
"178 35 LINE",
"168 45 LINE",
"194 225 LINE",
"267 225 LINE SMOOTH",
"336 225 OFFCURVE",
"354 182 OFFCURVE",
"354 146 CURVE SMOOTH",
"354 71 OFFCURVE",
"288 35 OFFCURVE",
"249 35 CURVE SMOOTH"
);
}
);
width = 543;
}
);
leftKerningGroup = n;
leftMetricsKey = "=en-cy";
rightKerningGroup = o;
rightMetricsKey = "=o*0.8";
unicode = 0299;
},
{
color = 6;
glyphname = Gsmall;
layers = (
{
anchors = (
{
name = bottom;
position = "{250, 0}";
},
{
name = top;
position = "{315, 459}";
}
);
layerId = "CF31647D-EA7E-42DE-ACE7-E9318D6117AA";
paths = (
{
closed = 1;
nodes = (
"336 188 LINE",
"398 188 LINE",
"403 183 LINE",
"398 150 LINE",
"395 55 LINE",
"400 55 LINE",
"412 0 LINE",
"447 0 LINE",
"473 183 LINE",
"478 188 LINE",
"526 188 LINE",
"531 223 LINE",
"341 223 LINE"
);
},
{
closed = 1;
nodes = (
"169 31 OFFCURVE",
"130 105 OFFCURVE",
"130 196 CURVE SMOOTH",
"130 327 OFFCURVE",
"210 434 OFFCURVE",
"313 434 CURVE SMOOTH",
"369 434 OFFCURVE",
"438 403 OFFCURVE",
"467 302 CURVE",
"496 310 LINE",
"493 376 OFFCURVE",
"495 411 OFFCURVE",
"498 459 CURVE",
"468 459 LINE",
"446 427 LINE",
"411 451 OFFCURVE",
"374 468 OFFCURVE",
"318 468 CURVE SMOOTH",
"166 468 OFFCURVE",
"48 342 OFFCURVE",
"48 195 CURVE SMOOTH",
"48 81 OFFCURVE",
"120 -9 OFFCURVE",
"244 -9 CURVE SMOOTH",
"311 -9 OFFCURVE",
"360 18 OFFCURVE",
"395 55 CURVE",
"398 150 LINE",
"387 71 OFFCURVE",
"323 31 OFFCURVE",
"258 31 CURVE SMOOTH"
);
}
);
width = 547;
},
{
anchors = (
{
name = bottom;
position = "{250, 0}";
},
{
name = top;
position = "{318, 481}";
}
);
layerId = "37DD2CA1-C758-4BBE-932B-6884A881B1A3";
paths = (
{
closed = 1;
nodes = (
"317 208 LINE",
"355 208 LINE",
"363 198 LINE",
"360 176 LINE",
"348 28 LINE",
"353 28 LINE",
"415 0 LINE",
"450 0 LINE",
"478 198 LINE",
"490 208 LINE",
"512 208 LINE",
"516 243 LINE",
"321 243 LINE"
);
},
{
closed = 1;
nodes = (
"203 36 OFFCURVE",
"183 102 OFFCURVE",
"183 193 CURVE SMOOTH",
"183 352 OFFCURVE",
"245 455 OFFCURVE",
"336 455 CURVE SMOOTH",
"380 455 OFFCURVE",
"428 431 OFFCURVE",
"463 306 CURVE",
"500 315 LINE",
"495 383 OFFCURVE",
"500 429 OFFCURVE",
"506 481 CURVE",
"471 481 LINE",
"456 456 LINE",
"428 473 OFFCURVE",
"381 490 OFFCURVE",
"323 490 CURVE SMOOTH",
"165 490 OFFCURVE",
"37 361 OFFCURVE",
"37 200 CURVE SMOOTH",
"37 66 OFFCURVE",
"125 -10 OFFCURVE",
"236 -10 CURVE SMOOTH",
"294 -10 OFFCURVE",
"321 10 OFFCURVE",
"348 28 CURVE",
"360 176 LINE",
"346 74 OFFCURVE",
"296 36 OFFCURVE",
"256 36 CURVE SMOOTH"
);
}
);
width = 536;
}
);
leftKerningGroup = o;
leftMetricsKey = "=g.sc";
rightKerningGroup = o;
rightMetricsKey = "=g.sc";
unicode = 0262;
},
{
color = 6;
glyphname = Gsmallhook;
layers = (
{
anchors = (
{
name = bottom;
position = "{40, 0}";
},
{
name = top;
position = "{105, 459}";
}
);
layerId = "CF31647D-EA7E-42DE-ACE7-E9318D6117AA";
paths = (
{
closed = 1;
nodes = (
"532 593 OFFCURVE",
"481 545 OFFCURVE",
"446 427 CURVE",
"411 451 OFFCURVE",
"374 468 OFFCURVE",
"318 468 CURVE SMOOTH",
"166 468 OFFCURVE",
"48 342 OFFCURVE",
"48 195 CURVE SMOOTH",
"48 81 OFFCURVE",
"120 -9 OFFCURVE",
"244 -9 CURVE SMOOTH",
"311 -9 OFFCURVE",
"360 18 OFFCURVE",
"395 55 CURVE",
"400 55 LINE",
"412 0 LINE",
"447 0 LINE",
"473 183 LINE",
"478 188 LINE",
"526 188 LINE",
"531 223 LINE",
"341 223 LINE",
"336 188 LINE",
"398 188 LINE",
"403 183 LINE",
"398 150 LINE SMOOTH",
"387 71 OFFCURVE",
"323 31 OFFCURVE",
"258 31 CURVE SMOOTH",
"169 31 OFFCURVE",
"130 105 OFFCURVE",
"130 196 CURVE SMOOTH",
"130 327 OFFCURVE",
"210 434 OFFCURVE",
"312 434 CURVE SMOOTH",
"369 434 OFFCURVE",
"438 403 OFFCURVE",
"467 302 CURVE",
"496 310 LINE",
"492 403 OFFCURVE",
"477 484 OFFCURVE",
"548 534 CURVE",
"552 503 OFFCURVE",
"571 493 OFFCURVE",
"592 493 CURVE SMOOTH",
"622 493 OFFCURVE",
"649 521 OFFCURVE",
"649 550 CURVE SMOOTH",
"649 575 OFFCURVE",
"631 593 OFFCURVE",
"601 593 CURVE SMOOTH"
);
}
);
width = 578;
},
{
anchors = (
{
name = bottom;
position = "{251, 0}";
},
{
name = top;
position = "{319, 481}";
}
);
layerId = "37DD2CA1-C758-4BBE-932B-6884A881B1A3";
paths = (
{
closed = 1;
nodes = (
"558 667 OFFCURVE",
"491 607 OFFCURVE",
"465 456 CURVE",
"437 473 OFFCURVE",
"376 490 OFFCURVE",
"323 490 CURVE SMOOTH",
"165 490 OFFCURVE",
"37 361 OFFCURVE",
"37 200 CURVE SMOOTH",
"37 66 OFFCURVE",
"125 -10 OFFCURVE",
"236 -10 CURVE SMOOTH",
"294 -10 OFFCURVE",
"321 10 OFFCURVE",
"348 28 CURVE",
"353 28 LINE",
"415 0 LINE",
"450 0 LINE",
"478 198 LINE",
"490 208 LINE",
"512 208 LINE",
"516 243 LINE",
"321 243 LINE",
"317 208 LINE",
"355 208 LINE",
"363 198 LINE",
"360 176 LINE SMOOTH",
"346 74 OFFCURVE",
"296 36 OFFCURVE",
"256 36 CURVE SMOOTH",
"203 36 OFFCURVE",
"183 102 OFFCURVE",
"183 193 CURVE SMOOTH",
"183 352 OFFCURVE",
"245 455 OFFCURVE",
"336 455 CURVE SMOOTH",
"381 455 OFFCURVE",
"429 431 OFFCURVE",
"464 306 CURVE",
"501 315 LINE",
"493 425 OFFCURVE",
"496 515 OFFCURVE",
"563 589 CURVE",
"564 549 OFFCURVE",
"595 527 OFFCURVE",
"621 527 CURVE SMOOTH",
"661 527 OFFCURVE",
"693 558 OFFCURVE",
"693 602 CURVE SMOOTH",
"693 636 OFFCURVE",
"668 667 OFFCURVE",
"627 667 CURVE SMOOTH"
);
}
);
width = 572;
}
);
leftKerningGroup = o;
leftMetricsKey = "=Gsmall";
unicode = 029B;
},
{
color = 6;
glyphname = Hsmall;
layers = (
{
layerId = "CF31647D-EA7E-42DE-ACE7-E9318D6117AA";
paths = (
{
closed = 1;
nodes = (
"227 420 LINE",
"232 425 LINE",
"308 425 LINE",
"313 460 LINE",
"73 460 LINE",
"68 425 LINE",
"142 425 LINE",
"147 420 LINE",
"94 40 LINE",
"89 35 LINE",
"13 35 LINE",
"8 0 LINE",
"248 0 LINE",
"253 35 LINE",
"179 35 LINE",
"174 40 LINE"
);
},
{
closed = 1;
nodes = (
"547 420 LINE",
"552 425 LINE",
"628 425 LINE",
"633 460 LINE",
"393 460 LINE",
"388 425 LINE",
"462 425 LINE",
"467 420 LINE",
"414 40 LINE",
"409 35 LINE",
"333 35 LINE",
"328 0 LINE",
"568 0 LINE",
"573 35 LINE",
"499 35 LINE",
"494 40 LINE"
);
},
{
closed = 1;
nodes = (
"493 265 LINE",
"165 265 LINE",
"160 230 LINE",
"488 230 LINE"
);
}
);
width = 641;
},
{
layerId = "37DD2CA1-C758-4BBE-932B-6884A881B1A3";
paths = (
{
closed = 1;
nodes = (
"263 434 LINE",
"273 444 LINE",
"324 444 LINE",
"329 479 LINE",
"64 479 LINE",
"59 444 LINE",
"108 444 LINE",
"118 434 LINE",
"63 45 LINE",
"53 35 LINE",
"2 35 LINE",
"-3 0 LINE",
"262 0 LINE",
"267 35 LINE",
"218 35 LINE",
"208 45 LINE"
);
},
{
closed = 1;
nodes = (
"588 434 LINE",
"598 444 LINE",
"649 444 LINE",
"654 479 LINE",
"389 479 LINE",
"384 444 LINE",
"433 444 LINE",
"443 434 LINE",
"388 45 LINE",
"378 35 LINE",
"327 35 LINE",
"322 0 LINE",
"587 0 LINE",
"592 35 LINE",
"543 35 LINE",
"533 45 LINE"
);
},
{
closed = 1;
nodes = (
"487 275 LINE",
"161 275 LINE",
"156 240 LINE",
"482 240 LINE"
);
}
);
width = 651;
}
);
leftKerningGroup = n;
rightKerningGroup = n;
unicode = 029C;
},
{
color = 6;
glyphname = Ismall;
layers = (
{
layerId = "CF31647D-EA7E-42DE-ACE7-E9318D6117AA";
rightMetricsKey = "=Hsmall";
paths = (
{
closed = 1;
nodes = (
"227 420 LINE",
"232 425 LINE",
"308 425 LINE",
"313 460 LINE",
"73 460 LINE",
"68 425 LINE",
"142 425 LINE",
"147 420 LINE",
"94 40 LINE",
"89 35 LINE",
"13 35 LINE",
"8 0 LINE",
"248 0 LINE",
"253 35 LINE",
"179 35 LINE",
"174 40 LINE"
);
}
);
width = 321;
},
{
layerId = "37DD2CA1-C758-4BBE-932B-6884A881B1A3";
paths = (
{
closed = 1;
nodes = (
"263 434 LINE",
"273 444 LINE",
"324 444 LINE",
"329 479 LINE",
"64 479 LINE",
"59 444 LINE",
"108 444 LINE",
"118 434 LINE",
"63 45 LINE",
"53 35 LINE",
"2 35 LINE",
"-3 0 LINE",
"262 0 LINE",
"267 35 LINE",
"218 35 LINE",
"208 45 LINE"
);
}
);
width = 326;
}
);
leftKerningGroup = n;
leftMetricsKey = "=Hsmall";
rightKerningGroup = n;
rightMetricsKey = "=Hsmall";
unicode = 026A;
},
{
color = 6;
glyphname = Lsmall;
layers = (
{
anchors = (
{
name = bottom;
position = "{220, 0}";
},
{
name = center;
position = "{237, 230}";
},
{
name = top;
position = "{190, 459}";
},
{
name = topright;
position = "{490, 459}";
}
);
layerId = "CF31647D-EA7E-42DE-ACE7-E9318D6117AA";
paths = (
{
closed = 1;
nodes = (
"378 84 OFFCURVE",
"326 35 OFFCURVE",
"256 35 CURVE SMOOTH",
"179 35 LINE",
"174 40 LINE",
"227 420 LINE",
"232 425 LINE",
"308 425 LINE",
"313 460 LINE",
"73 460 LINE",
"68 425 LINE",
"142 425 LINE",
"147 420 LINE",
"94 40 LINE",
"89 35 LINE",
"13 35 LINE",
"8 0 LINE",
"389 0 LINE",
"454 179 LINE",
"419 179 LINE"
);
}
);
width = 476;
},
{
anchors = (
{
name = bottom;
position = "{227, 0}";
},
{
name = center;
position = "{256, 240}";
},
{
name = top;
position = "{203, 481}";
},
{
name = topright;
position = "{508, 481}";
}
);
layerId = "37DD2CA1-C758-4BBE-932B-6884A881B1A3";
paths = (
{
closed = 1;
nodes = (
"356 43 OFFCURVE",
"308 35 OFFCURVE",
"260 35 CURVE SMOOTH",
"218 35 LINE",
"208 45 LINE",
"263 434 LINE",
"273 444 LINE",
"324 444 LINE",
"329 479 LINE",
"64 479 LINE",
"59 444 LINE",
"108 444 LINE",
"118 434 LINE",
"63 45 LINE",
"53 35 LINE",
"2 35 LINE",
"-3 0 LINE",
"403 0 LINE",
"470 187 LINE",
"435 187 LINE"
);
}
);
width = 492;
}
);
leftKerningGroup = n;
leftMetricsKey = "=Hsmall";
rightKerningGroup = L;
rightMetricsKey = "=L";
unicode = 029F;
},
{
color = 6;
glyphname = Nsmall;
layers = (
{
anchors = (
{
name = bottom;
position = "{221, 0}";
},
{
name = top;
position = "{297, 540}";
}
);
layerId = "CF31647D-EA7E-42DE-ACE7-E9318D6117AA";
paths = (
{
closed = 1;
nodes = (
"388 425 LINE",
"467 425 LINE",
"472 420 LINE",
"428 105 LINE",
"423 105 LINE",
"202 460 LINE",
"58 460 LINE",
"53 425 LINE",
"132 425 LINE",
"137 420 LINE",
"84 40 LINE",
"79 35 LINE",
"-2 35 LINE",
"-7 0 LINE",
"208 0 LINE",
"213 35 LINE",
"134 35 LINE",
"129 40 LINE",
"173 355 LINE",
"178 355 LINE",
"399 0 LINE",
"458 0 LINE",
"517 420 LINE",
"522 425 LINE",
"593 425 LINE",
"598 460 LINE",
"393 460 LINE"
);
}
);
width = 601;
},
{
anchors = (
{
name = bottom;
position = "{220, 0}";
},
{
name = top;
position = "{296, 540}";
}
);
layerId = "37DD2CA1-C758-4BBE-932B-6884A881B1A3";
paths = (
{
closed = 1;
nodes = (
"380 445 LINE",
"463 445 LINE",
"473 435 LINE",
"437 178 LINE",
"432 178 LINE",
"154 480 LINE",
"34 480 LINE",
"30 445 LINE",
"83 445 LINE",
"93 435 LINE",
"38 45 LINE",
"28 35 LINE",
"-28 35 LINE",
"-33 0 LINE",
"172 0 LINE",
"177 35 LINE",
"93 35 LINE",
"83 45 LINE",
"119 302 LINE",
"124 302 LINE",
"402 0 LINE",
"457 0 LINE",
"518 435 LINE",
"528 445 LINE",
"585 445 LINE",
"589 480 LINE",
"384 480 LINE"
);
}
);
width = 577;
}
);
leftKerningGroup = n;
leftMetricsKey = "=en-cy";
rightKerningGroup = n;
rightMetricsKey = "=u.sc";
unicode = 0274;
},
{
color = 6;
glyphname = OEsmall;
layers = (
{
anchors = (
{
name = bottom;
position = "{569, 0}";
},
{
name = center;
position = "{54, 230}";
},
{
name = ogonek;
position = "{749, 0}";
},
{
name = top;
position = "{633, 459}";
},
{
name = topleft;
position = "{394, 459}";
},
{
name = topright;
position = "{360, 459}";
}
);
layerId = "CF31647D-EA7E-42DE-ACE7-E9318D6117AA";
paths = (
{
closed = 1;
nodes = (
"659 72 OFFCURVE",
"610 35 OFFCURVE",
"517 35 CURVE SMOOTH",
"446 35 LINE",
"441 40 LINE",
"467 224 LINE",
"513 224 LINE SMOOTH",
"561 224 OFFCURVE",
"585 204 OFFCURVE",
"580 148 CURVE",
"610 148 LINE",
"636 331 LINE",
"606 331 LINE",
"594 265 OFFCURVE",
"554 254 OFFCURVE",
"517 254 CURVE SMOOTH",
"471 254 LINE",
"495 425 LINE",
"500 430 LINE",
"564 430 LINE SMOOTH",
"657 430 OFFCURVE",
"692 406 OFFCURVE",
"707 315 CURVE",
"743 323 LINE",
"731 460 LINE",
"452 460 LINE SMOOTH",
"420 460 OFFCURVE",
"369 465 OFFCURVE",
"327 465 CURVE SMOOTH",
"170 465 OFFCURVE",
"47 342 OFFCURVE",
"47 193 CURVE SMOOTH",
"47 78 OFFCURVE",
"128 -5 OFFCURVE",
"261 -5 CURVE SMOOTH",
"303 -5 OFFCURVE",
"350 0 OFFCURVE",
"388 0 CURVE SMOOTH",
"676 0 LINE",
"734 162 LINE",
"699 162 LINE"
);
},
{
closed = 1;
nodes = (
"366 61 OFFCURVE",
"335 29 OFFCURVE",
"273 29 CURVE SMOOTH",
"186 29 OFFCURVE",
"136 94 OFFCURVE",
"136 191 CURVE SMOOTH",
"136 329 OFFCURVE",
"213 431 OFFCURVE",
"316 431 CURVE SMOOTH",
"370 431 OFFCURVE",
"414 406 OFFCURVE",
"401 315 CURVE SMOOTH",
"377 143 LINE SMOOTH"
);
}
);
width = 774;
},
{
anchors = (
{
name = bottom;
position = "{919, 0}";
},
{
name = center;
position = "{411, 240}";
},
{
name = ogonek;
position = "{1099, 0}";
},
{
name = top;
position = "{987, 481}";
},
{
name = topleft;
position = "{763, 481}";
},
{
name = topright;
position = "{729, 481}";
}
);
layerId = "37DD2CA1-C758-4BBE-932B-6884A881B1A3";
paths = (
{
closed = 1;
nodes = (
"650 75 OFFCURVE",
"592 35 OFFCURVE",
"518 35 CURVE SMOOTH",
"503 35 LINE",
"493 45 LINE",
"518 228 LINE",
"524 228 LINE SMOOTH",
"572 228 OFFCURVE",
"610 199 OFFCURVE",
"601 150 CURVE",
"631 150 LINE",
"658 341 LINE",
"628 341 LINE",
"623 292 OFFCURVE",
"577 263 OFFCURVE",
"529 263 CURVE SMOOTH",
"523 263 LINE",
"547 435 LINE",
"557 445 LINE",
"567 445 LINE SMOOTH",
"621 445 OFFCURVE",
"684 445 OFFCURVE",
"727 329 CURVE",
"756 338 LINE",
"744 480 LINE",
"470 480 LINE SMOOTH",
"405 480 OFFCURVE",
"363 485 OFFCURVE",
"317 485 CURVE SMOOTH",
"147 485 OFFCURVE",
"27 360 OFFCURVE",
"27 199 CURVE SMOOTH",
"27 85 OFFCURVE",
"91 -5 OFFCURVE",
"240 -5 CURVE SMOOTH",
"287 -5 OFFCURVE",
"339 0 OFFCURVE",
"403 0 CURVE SMOOTH",
"686 0 LINE",
"746 169 LINE",
"711 169 LINE"
);
},
{
closed = 1;
nodes = (
"350 51 OFFCURVE",
"287 32 OFFCURVE",
"260 32 CURVE SMOOTH",
"207 32 OFFCURVE",
"181 105 OFFCURVE",
"181 190 CURVE SMOOTH",
"181 331 OFFCURVE",
"245 449 OFFCURVE",
"321 449 CURVE SMOOTH",
"353 449 OFFCURVE",
"403 431 OFFCURVE",
"390 339 CURVE SMOOTH",
"367 175 LINE SMOOTH"
);
}
);
width = 774;
}
);
leftKerningGroup = n;
leftMetricsKey = "=o";
rightKerningGroup = n;
rightMetricsKey = "=e.sc";
unicode = 0276;
},
{
color = 6;
glyphname = Rsmall;
layers = (
{
anchors = (
{
name = bottom;
position = "{236, 0}";
},
{
name = top;
position = "{288, 459}";
}
);
layerId = "CF31647D-EA7E-42DE-ACE7-E9318D6117AA";
paths = (
{
closed = 1;
nodes = (
"342 211 LINE",
"418 238 OFFCURVE",
"464 286 OFFCURVE",
"464 347 CURVE SMOOTH",
"464 426 OFFCURVE",
"387 460 OFFCURVE",
"298 460 CURVE SMOOTH",
"58 460 LINE",
"53 425 LINE",
"127 425 LINE",
"132 420 LINE",
"79 40 LINE",
"74 35 LINE",
"-2 35 LINE",
"-7 0 LINE",
"228 0 LINE",
"233 35 LINE",
"159 35 LINE",
"154 40 LINE",
"176 196 LINE",
"265 196 LINE",
"359 40 LINE",
"354 35 LINE",
"292 35 LINE",
"287 0 LINE",
"506 0 LINE",
"511 35 LINE",
"450 35 LINE"
);
},
{
closed = 1;
nodes = (
"180 231 LINE",
"207 420 LINE",
"212 425 LINE",
"272 425 LINE SMOOTH",
"337 425 OFFCURVE",
"377 397 OFFCURVE",
"377 344 CURVE SMOOTH",
"377 273 OFFCURVE",
"329 231 OFFCURVE",
"244 231 CURVE SMOOTH"
);
}
);
width = 530;
},
{
anchors = (
{
name = bottom;
position = "{243, 0}";
},
{
name = top;
position = "{318, 481}";
}
);
layerId = "37DD2CA1-C758-4BBE-932B-6884A881B1A3";
paths = (
{
closed = 1;
nodes = (
"376 227 LINE",
"448 255 OFFCURVE",
"494 297 OFFCURVE",
"494 369 CURVE SMOOTH",
"494 442 OFFCURVE",
"416 480 OFFCURVE",
"314 480 CURVE SMOOTH",
"34 480 LINE",
"30 445 LINE",
"78 445 LINE",
"88 435 LINE",
"33 45 LINE",
"23 35 LINE",
"-28 35 LINE",
"-33 0 LINE",
"222 0 LINE",
"227 35 LINE",
"178 35 LINE",
"168 45 LINE",
"191 205 LINE",
"241 205 LINE",
"324 45 LINE",
"314 35 LINE",
"292 35 LINE",
"287 0 LINE",
"519 0 LINE",
"524 35 LINE",
"478 35 LINE"
);
},
{
closed = 1;
nodes = (
"196 240 LINE",
"223 435 LINE",
"233 445 LINE",
"269 445 LINE SMOOTH",
"308 445 OFFCURVE",
"344 416 OFFCURVE",
"344 363 CURVE SMOOTH",
"344 292 OFFCURVE",
"299 240 OFFCURVE",
"240 240 CURVE SMOOTH"
);
}
);
width = 540;
}
);
leftKerningGroup = n;
leftMetricsKey = "=en-cy";
rightKerningGroup = n;
rightMetricsKey = "=r.sc";
unicode = 0280;
},
{
color = 6;
glyphname = Rsmallinverted;
layers = (
{
anchors = (
{
name = bottom;
position = "{306, 460}";
},
{
name = top;
position = "{228, 1}";
}
);
layerId = "CF31647D-EA7E-42DE-ACE7-E9318D6117AA";
paths = (
{
closed = 1;
nodes = (
"579 425 LINE",
"584 460 LINE",
"357 460 LINE",
"352 425 LINE",
"412 425 LINE",
"417 420 LINE",
"279 264 LINE",
"190 264 LINE",
"212 420 LINE",
"217 425 LINE",
"293 425 LINE",
"298 460 LINE",
"58 460 LINE",
"53 425 LINE",
"127 425 LINE",
"132 420 LINE",
"79 40 LINE",
"74 35 LINE",
"-2 35 LINE",
"-7 0 LINE",
"238 0 LINE SMOOTH",
"360 0 OFFCURVE",
"448 60 OFFCURVE",
"448 145 CURVE SMOOTH",
"448 197 OFFCURVE",
"407 231 OFFCURVE",
"360 249 CURVE",
"518 425 LINE"
);
},
{
closed = 1;
nodes = (
"315 229 OFFCURVE",
"355 206 OFFCURVE",
"355 151 CURVE SMOOTH",
"355 80 OFFCURVE",
"304 35 OFFCURVE",
"222 35 CURVE SMOOTH",
"164 35 LINE",
"159 40 LINE",
"185 229 LINE",
"249 229 LINE SMOOTH"
);
}
);
width = 544;
},
{
anchors = (
{
name = bottom;
position = "{310, 480}";
},
{
name = top;
position = "{250, -1}";
}
);
layerId = "37DD2CA1-C758-4BBE-932B-6884A881B1A3";
paths = (
{
closed = 1;
nodes = (
"582 445 LINE",
"586 480 LINE",
"349 480 LINE",
"345 445 LINE",
"364 445 LINE",
"374 435 LINE",
"251 275 LINE",
"201 275 LINE",
"223 435 LINE",
"233 445 LINE",
"285 445 LINE",
"289 480 LINE",
"34 480 LINE",
"30 445 LINE",
"78 445 LINE",
"88 435 LINE",
"33 45 LINE",
"23 35 LINE",
"-28 35 LINE",
"-33 0 LINE",
"267 0 LINE SMOOTH",
"388 0 OFFCURVE",
"467 53 OFFCURVE",
"467 144 CURVE SMOOTH",
"467 198 OFFCURVE",
"430 231 OFFCURVE",
"380 253 CURVE",
"536 445 LINE"
);
},
{
closed = 1;
nodes = (
"283 240 OFFCURVE",
"314 211 OFFCURVE",
"314 156 CURVE SMOOTH",
"314 86 OFFCURVE",
"271 35 OFFCURVE",
"211 35 CURVE SMOOTH",
"178 35 LINE",
"168 45 LINE",
"196 240 LINE",
"240 240 LINE SMOOTH"
);
}
);
width = 540;
}
);
leftKerningGroup = n;
leftMetricsKey = "=Rsmall";
rightKerningGroup = n;
rightMetricsKey = "=Rsmall";
unicode = 0281;
},
{
color = 6;
glyphname = Tsmall;
layers = (
{
anchors = (
{
name = bottom;
position = "{215, 0}";
},
{
name = center;
position = "{247, 230}";
},
{
name = top;
position = "{280, 459}";
}
);
layerId = "CF31647D-EA7E-42DE-ACE7-E9318D6117AA";
paths = (
{
closed = 1;
nodes = (
"308 425 LINE",
"396 425 OFFCURVE",
"435 400 OFFCURVE",
"450 311 CURVE",
"481 319 LINE",
"478 460 LINE",
"81 460 LINE",
"38 319 LINE",
"67 311 LINE",
"108 405 OFFCURVE",
"161 425 OFFCURVE",
"239 425 CURVE"
);
},
{
closed = 1;
nodes = (
"237 443 LINE",
"181 40 LINE",
"176 35 LINE",
"100 35 LINE",
"95 0 LINE",
"335 0 LINE",
"340 35 LINE",
"266 35 LINE",
"261 40 LINE",
"317 443 LINE"
);
}
);
width = 538;
},
{
anchors = (
{
name = bottom;
position = "{213, 0}";
},
{
name = center;
position = "{247, 240}";
},
{
name = top;
position = "{281, 481}";
}
);
layerId = "37DD2CA1-C758-4BBE-932B-6884A881B1A3";
paths = (
{
closed = 1;
nodes = (
"343 445 LINE",
"399 445 OFFCURVE",
"450 411 OFFCURVE",
"473 308 CURVE",
"505 317 LINE",
"510 480 LINE",
"52 480 LINE",
"11 317 LINE",
"41 308 LINE",
"94 414 OFFCURVE",
"156 445 OFFCURVE",
"209 445 CURVE"
);
},
{
closed = 1;
nodes = (
"205 454 LINE",
"148 45 LINE",
"138 35 LINE",
"86 35 LINE",
"81 0 LINE",
"346 0 LINE",
"351 35 LINE",
"303 35 LINE",
"293 45 LINE",
"350 454 LINE"
);
}
);
width = 544;
}
);
leftKerningGroup = n;
leftMetricsKey = "=v";
rightKerningGroup = n;
rightMetricsKey = "=v";
unicode = 1D1B;
},
{
color = 6;
glyphname = Ysmall;
layers = (
{
anchors = (
{
name = bottom;
position = "{219, 0}";
},
{
name = top;
position = "{315, 540}";
},
{
name = topleft;
position = "{14, 540}";
}
);
layerId = "CF31647D-EA7E-42DE-ACE7-E9318D6117AA";
paths = (
{
closed = 1;
nodes = (
"342 425 LINE",
"426 425 LINE",
"431 420 LINE",
"289 244 LINE",
"284 244 LINE",
"194 420 LINE",
"199 425 LINE",
"270 425 LINE",
"275 460 LINE",
"35 460 LINE",
"30 425 LINE",
"100 425 LINE",
"220 189 LINE",
"199 40 LINE",
"194 35 LINE",
"113 35 LINE",
"108 0 LINE",
"353 0 LINE",
"358 35 LINE",
"279 35 LINE",
"274 40 LINE",
"295 189 LINE",
"488 425 LINE",
"548 425 LINE",
"553 460 LINE",
"347 460 LINE"
);
}
);
width = 521;
},
{
anchors = (
{
name = bottom;
position = "{202, 0}";
},
{
name = top;
position = "{328, 540}";
},
{
name = topleft;
position = "{-17, 540}";
}
);
layerId = "37DD2CA1-C758-4BBE-932B-6884A881B1A3";
paths = (
{
closed = 1;
nodes = (
"357 445 LINE",
"441 445 LINE",
"451 435 LINE",
"306 235 LINE",
"301 235 LINE",
"218 435 LINE",
"228 445 LINE",
"284 445 LINE",
"289 480 LINE",
"14 480 LINE",
"9 445 LINE",
"64 445 LINE",
"182 179 LINE",
"163 45 LINE",
"153 35 LINE",
"96 35 LINE",
"91 0 LINE",
"356 0 LINE",
"361 35 LINE",
"308 35 LINE",
"298 45 LINE",
"317 179 LINE",
"505 445 LINE",
"560 445 LINE",
"565 480 LINE",
"362 480 LINE"
);
}
);
width = 511;
}
);
leftKerningGroup = v;
rightKerningGroup = v;
unicode = 028F;
},
{
color = 6;
glyphname = a;
layers = (
{
anchors = (
{
name = bottom;
position = "{236, 0}";
},
{
name = ogonek;
position = "{497, 10}";
},
{
name = top;
position = "{300, 460}";
}
);
guideLines = (
{
angle = 262.0672;
position = "{379, 233}";
}
);
layerId = "CF31647D-EA7E-42DE-ACE7-E9318D6117AA";
paths = (
{
closed = 1;
nodes = (
"48 62 OFFCURVE",
"113 -10 OFFCURVE",
"210 -10 CURVE SMOOTH",
"272 -10 OFFCURVE",
"327 21 OFFCURVE",
"360 74 CURVE",
"361 16 OFFCURVE",
"392 -10 OFFCURVE",
"438 -10 CURVE SMOOTH",
"485 -10 OFFCURVE",
"521 16 OFFCURVE",
"555 88 CURVE",
"524 105 LINE",
"503 64 OFFCURVE",
"480 35 OFFCURVE",
"458 35 CURVE SMOOTH",
"439 35 OFFCURVE",
"430 55 OFFCURVE",
"436 97 CURVE SMOOTH",
"486 460 LINE",
"451 460 LINE",
"404 371 LINE",
"381 445 OFFCURVE",
"324 470 OFFCURVE",
"270 470 CURVE SMOOTH",
"154 470 OFFCURVE",
"48 354 OFFCURVE",
"48 190 CURVE SMOOTH"
);
},
{
closed = 1;
nodes = (
"133 308 OFFCURVE",
"184 425 OFFCURVE",
"280 425 CURVE SMOOTH",
"341 425 OFFCURVE",
"386 377 OFFCURVE",
"386 274 CURVE SMOOTH",
"386 152 OFFCURVE",
"324 35 OFFCURVE",
"229 35 CURVE SMOOTH",
"167 35 OFFCURVE",
"133 85 OFFCURVE",
"133 185 CURVE SMOOTH"
);
}
);
width = 575;
},
{
anchors = (
{
name = bottom;
position = "{255, 0}";
},
{
name = ogonek;
position = "{518, 0}";
},
{
name = top;
position = "{323, 480}";
}
);
guideLines = (
{
angle = 261.9766;
position = "{349, 127}";
}
);
layerId = "37DD2CA1-C758-4BBE-932B-6884A881B1A3";
paths = (
{
closed = 1;
nodes = (
"29 57 OFFCURVE",
"112 -10 OFFCURVE",
"209 -10 CURVE SMOOTH",
"268 -10 OFFCURVE",
"314 18 OFFCURVE",
"350 73 CURVE",
"361 19 OFFCURVE",
"404 -10 OFFCURVE",
"464 -10 CURVE SMOOTH",
"514 -10 OFFCURVE",
"556 9 OFFCURVE",
"587 70 CURVE",
"557 88 LINE",
"541 62 OFFCURVE",
"525 45 OFFCURVE",
"505 45 CURVE SMOOTH",
"488 45 OFFCURVE",
"475 57 OFFCURVE",
"482 104 CURVE SMOOTH",
"535 480 LINE",
"440 480 LINE",
"393 391 LINE",
"380 435 OFFCURVE",
"339 490 OFFCURVE",
"262 490 CURVE SMOOTH",
"152 490 OFFCURVE",
"29 378 OFFCURVE",
"29 207 CURVE SMOOTH"
);
},
{
closed = 1;
nodes = (
"179 319 OFFCURVE",
"231 435 OFFCURVE",
"298 435 CURVE SMOOTH",
"340 435 OFFCURVE",
"372 390 OFFCURVE",
"372 289 CURVE SMOOTH",
"372 162 OFFCURVE",
"320 45 OFFCURVE",
"253 45 CURVE SMOOTH",
"211 45 OFFCURVE",
"179 91 OFFCURVE",
"179 192 CURVE SMOOTH"
);
}
);
width = 606;
}
);
leftKerningGroup = o;
leftMetricsKey = "=o";
rightKerningGroup = n;
rightMetricsKey = "=i";
unicode = 0061;
},
{
color = 6;
glyphname = "alphaturned-latin";
layers = (
{
anchors = (
{
name = bottom;
position = "{275, 0}";
},
{
name = ogonek;
position = "{78, 450}";
},
{
name = top;
position = "{339, 460}";
}
);
layerId = "CF31647D-EA7E-42DE-ACE7-E9318D6117AA";
paths = (
{
closed = 1;
nodes = (
"527 398 OFFCURVE",
"462 470 OFFCURVE",
"365 470 CURVE SMOOTH",
"303 470 OFFCURVE",
"248 439 OFFCURVE",
"215 386 CURVE",
"214 444 OFFCURVE",
"183 470 OFFCURVE",
"137 470 CURVE SMOOTH",
"90 470 OFFCURVE",
"54 444 OFFCURVE",
"20 372 CURVE",
"51 355 LINE",
"72 396 OFFCURVE",
"95 425 OFFCURVE",
"117 425 CURVE SMOOTH",
"136 425 OFFCURVE",
"145 405 OFFCURVE",
"139 363 CURVE SMOOTH",
"89 0 LINE",
"124 0 LINE",
"171 89 LINE",
"194 15 OFFCURVE",
"251 -10 OFFCURVE",
"305 -10 CURVE SMOOTH",
"421 -10 OFFCURVE",
"527 106 OFFCURVE",
"527 270 CURVE SMOOTH"
);
},
{
closed = 1;
nodes = (
"442 152 OFFCURVE",
"391 35 OFFCURVE",
"295 35 CURVE SMOOTH",
"234 35 OFFCURVE",
"189 83 OFFCURVE",
"189 186 CURVE SMOOTH",
"189 308 OFFCURVE",
"251 425 OFFCURVE",
"346 425 CURVE SMOOTH",
"408 425 OFFCURVE",
"442 375 OFFCURVE",
"442 275 CURVE SMOOTH"
);
}
);
width = 575;
},
{
anchors = (
{
name = bottom;
position = "{283, 0}";
},
{
name = ogonek;
position = "{88, 480}";
},
{
name = top;
position = "{351, 480}";
}
);
layerId = "37DD2CA1-C758-4BBE-932B-6884A881B1A3";
paths = (
{
closed = 1;
nodes = (
"577 423 OFFCURVE",
"494 490 OFFCURVE",
"397 490 CURVE SMOOTH",
"338 490 OFFCURVE",
"292 462 OFFCURVE",
"256 407 CURVE",
"245 461 OFFCURVE",
"202 490 OFFCURVE",
"142 490 CURVE SMOOTH",
"92 490 OFFCURVE",
"50 471 OFFCURVE",
"19 410 CURVE",
"49 392 LINE",
"65 418 OFFCURVE",
"81 435 OFFCURVE",
"101 435 CURVE SMOOTH",
"118 435 OFFCURVE",
"131 423 OFFCURVE",
"124 376 CURVE SMOOTH",
"71 0 LINE",
"166 0 LINE",
"213 89 LINE",
"226 45 OFFCURVE",
"267 -10 OFFCURVE",
"344 -10 CURVE SMOOTH",
"454 -10 OFFCURVE",
"577 102 OFFCURVE",
"577 273 CURVE SMOOTH"
);
},
{
closed = 1;
nodes = (
"427 161 OFFCURVE",
"375 45 OFFCURVE",
"308 45 CURVE SMOOTH",
"266 45 OFFCURVE",
"234 90 OFFCURVE",
"234 191 CURVE SMOOTH",
"234 318 OFFCURVE",
"286 435 OFFCURVE",
"353 435 CURVE SMOOTH",
"395 435 OFFCURVE",
"427 389 OFFCURVE",
"427 288 CURVE SMOOTH"
);
}
);
width = 606;
}
);
leftKerningGroup = n;
rightKerningGroup = o;
unicode = 0252;
},
{
color = 6;
glyphname = aturned;
layers = (
{
anchors = (
{
name = bottom;
position = "{275, 0}";
},
{
name = ogonek;
position = "{78, 450}";
},
{
name = top;
position = "{339, 460}";
}
);
layerId = "CF31647D-EA7E-42DE-ACE7-E9318D6117AA";
paths = (
{
closed = 1;
nodes = (
"527 398 OFFCURVE",
"462 470 OFFCURVE",
"365 470 CURVE SMOOTH",
"303 470 OFFCURVE",
"248 439 OFFCURVE",
"215 386 CURVE",
"214 444 OFFCURVE",
"183 470 OFFCURVE",
"137 470 CURVE SMOOTH",
"90 470 OFFCURVE",
"54 444 OFFCURVE",
"20 372 CURVE",
"51 355 LINE",
"72 396 OFFCURVE",
"95 425 OFFCURVE",
"117 425 CURVE SMOOTH",
"136 425 OFFCURVE",
"145 405 OFFCURVE",
"139 363 CURVE SMOOTH",
"89 0 LINE",
"124 0 LINE",
"171 89 LINE",
"194 15 OFFCURVE",
"251 -10 OFFCURVE",
"305 -10 CURVE SMOOTH",
"421 -10 OFFCURVE",
"527 106 OFFCURVE",
"527 270 CURVE SMOOTH"
);
},
{
closed = 1;
nodes = (
"442 152 OFFCURVE",
"391 35 OFFCURVE",
"295 35 CURVE SMOOTH",
"234 35 OFFCURVE",
"189 83 OFFCURVE",
"189 186 CURVE SMOOTH",
"189 308 OFFCURVE",
"251 425 OFFCURVE",
"346 425 CURVE SMOOTH",
"408 425 OFFCURVE",
"442 375 OFFCURVE",
"442 275 CURVE SMOOTH"
);
}
);
width = 575;
},
{
anchors = (
{
name = bottom;
position = "{283, 0}";
},
{
name = ogonek;
position = "{88, 480}";
},
{
name = top;
position = "{351, 480}";
}
);
layerId = "37DD2CA1-C758-4BBE-932B-6884A881B1A3";
paths = (
{
closed = 1;
nodes = (
"577 423 OFFCURVE",
"494 490 OFFCURVE",
"397 490 CURVE SMOOTH",
"338 490 OFFCURVE",
"292 462 OFFCURVE",
"256 407 CURVE",
"245 461 OFFCURVE",
"202 490 OFFCURVE",
"142 490 CURVE SMOOTH",
"92 490 OFFCURVE",
"50 471 OFFCURVE",
"19 410 CURVE",
"49 392 LINE",
"65 418 OFFCURVE",
"81 435 OFFCURVE",
"101 435 CURVE SMOOTH",
"118 435 OFFCURVE",
"131 423 OFFCURVE",
"124 376 CURVE SMOOTH",
"71 0 LINE",
"166 0 LINE",
"213 89 LINE",
"226 45 OFFCURVE",
"267 -10 OFFCURVE",
"344 -10 CURVE SMOOTH",
"454 -10 OFFCURVE",
"577 102 OFFCURVE",
"577 273 CURVE SMOOTH"
);
},
{
closed = 1;
nodes = (
"427 161 OFFCURVE",
"375 45 OFFCURVE",
"308 45 CURVE SMOOTH",
"266 45 OFFCURVE",
"234 90 OFFCURVE",
"234 191 CURVE SMOOTH",
"234 318 OFFCURVE",
"286 435 OFFCURVE",
"353 435 CURVE SMOOTH",
"395 435 OFFCURVE",
"427 389 OFFCURVE",
"427 288 CURVE SMOOTH"
);
}
);
width = 606;
}
);
leftKerningGroup = n;
rightKerningGroup = o;
unicode = 0250;
},
{
color = 6;
glyphname = ae;
layers = (
{
anchors = (
{
name = bottom;
position = "{376, 0}";
},
{
name = ogonek;
position = "{497, 10}";
},
{
name = top;
position = "{440, 460}";
}
);
layerId = "CF31647D-EA7E-42DE-ACE7-E9318D6117AA";
paths = (
{
closed = 1;
nodes = (
"315 -9 OFFCURVE",
"395 91 OFFCURVE",
"422 201 CURVE",
"410 349 LINE",
"392 441 OFFCURVE",
"329 471 OFFCURVE",
"270 471 CURVE SMOOTH",
"154 471 OFFCURVE",
"48 355 OFFCURVE",
"48 191 CURVE SMOOTH",
"48 63 OFFCURVE",
"113 -9 OFFCURVE",
"210 -9 CURVE SMOOTH"
);
},
{
closed = 1;
nodes = (
"167 36 OFFCURVE",
"133 86 OFFCURVE",
"133 186 CURVE SMOOTH",
"133 309 OFFCURVE",
"184 426 OFFCURVE",
"280 426 CURVE SMOOTH",
"341 426 OFFCURVE",
"386 378 OFFCURVE",
"386 275 CURVE SMOOTH",
"386 153 OFFCURVE",
"324 36 OFFCURVE",
"229 36 CURVE SMOOTH"
);
},
{
closed = 1;
nodes = (
"472 355 LINE",
"464 460 LINE",
"429 460 LINE",
"396 355 LINE",
"389 221 LINE",
"447 179 LINE"
);
},
{
closed = 1;
nodes = (
"653 -10 OFFCURVE",
"713 50 OFFCURVE",
"744 104 CURVE",
"713 121 LINE",
"685 74 OFFCURVE",
"635 30 OFFCURVE",
"578 30 CURVE SMOOTH",
"512 30 OFFCURVE",
"465 75 OFFCURVE",
"465 188 CURVE SMOOTH",
"465 326 OFFCURVE",
"534 435 OFFCURVE",
"634 435 CURVE SMOOTH",
"674 435 OFFCURVE",
"695 412 OFFCURVE",
"695 376 CURVE SMOOTH",
"695 304 OFFCURVE",
"588 256 OFFCURVE",
"455 244 CURVE",
"455 212 LINE",
"624 224 OFFCURVE",
"777 288 OFFCURVE",
"777 381 CURVE SMOOTH",
"777 447 OFFCURVE",
"711 470 OFFCURVE",
"645 470 CURVE SMOOTH",
"497 470 OFFCURVE",
"383 352 OFFCURVE",
"383 190 CURVE SMOOTH",
"383 64 OFFCURVE",
"452 -10 OFFCURVE",
"562 -10 CURVE SMOOTH"
);
}
);
width = 792;
},
{
anchors = (
{
name = bottom;
position = "{255, 0}";
},
{
name = ogonek;
position = "{515, 10}";
},
{
name = top;
position = "{442, 480}";
}
);
layerId = "37DD2CA1-C758-4BBE-932B-6884A881B1A3";
paths = (
{
closed = 1;
nodes = (
"332 -10 OFFCURVE",
"370 70 OFFCURVE",
"415 218 CURVE",
"395 381 LINE",
"386 427 OFFCURVE",
"345 490 OFFCURVE",
"262 490 CURVE SMOOTH",
"152 490 OFFCURVE",
"29 378 OFFCURVE",
"29 207 CURVE SMOOTH",
"29 57 OFFCURVE",
"112 -10 OFFCURVE",
"209 -10 CURVE SMOOTH"
);
},
{
closed = 1;
nodes = (
"211 45 OFFCURVE",
"179 91 OFFCURVE",
"179 192 CURVE SMOOTH",
"179 319 OFFCURVE",
"231 435 OFFCURVE",
"298 435 CURVE SMOOTH",
"340 435 OFFCURVE",
"372 390 OFFCURVE",
"372 289 CURVE SMOOTH",
"372 162 OFFCURVE",
"320 45 OFFCURVE",
"253 45 CURVE SMOOTH"
);
},
{
closed = 1;
nodes = (
"489 374 LINE",
"475 480 LINE",
"416 480 LINE",
"384 374 LINE",
"395 236 LINE",
"452 104 LINE"
);
},
{
closed = 1;
nodes = (
"691 -10 OFFCURVE",
"765 35 OFFCURVE",
"808 106 CURVE",
"778 124 LINE",
"740 69 OFFCURVE",
"687 40 OFFCURVE",
"643 40 CURVE SMOOTH",
"587 40 OFFCURVE",
"528 86 OFFCURVE",
"528 195 CURVE SMOOTH",
"528 291 OFFCURVE",
"573 455 OFFCURVE",
"658 455 CURVE SMOOTH",
"685 455 OFFCURVE",
"703 439 OFFCURVE",
"703 396 CURVE SMOOTH",
"703 343 OFFCURVE",
"675 263 OFFCURVE",
"509 249 CURVE",
"509 216 LINE",
"732 238 OFFCURVE",
"843 293 OFFCURVE",
"843 390 CURVE SMOOTH",
"843 466 OFFCURVE",
"757 490 OFFCURVE",
"678 490 CURVE SMOOTH",
"507 490 OFFCURVE",
"378 378 OFFCURVE",
"378 205 CURVE SMOOTH",
"378 51 OFFCURVE",
"480 -10 OFFCURVE",
"593 -10 CURVE SMOOTH"
);
}
);
width = 845;
}
);
leftKerningGroup = o;
leftMetricsKey = "=a";
rightKerningGroup = o;
rightMetricsKey = "=e";
unicode = 00E6;
},
{
color = 6;
glyphname = b;
layers = (
{
anchors = (
{
name = bottom;
position = "{238, 0}";
},
{
name = top;
position = "{302, 460}";
}
);
guideLines = (
{
angle = 62.3005;
position = "{153, 1}";
},
{
angle = 270;
position = "{118, 522}";
},
{
angle = 81.8699;
position = "{157, 224}";
}
);
layerId = "CF31647D-EA7E-42DE-ACE7-E9318D6117AA";
paths = (
{
closed = 1;
nodes = (
"85 0 LINE",
"132 89 LINE",
"155 15 OFFCURVE",
"212 -10 OFFCURVE",
"266 -10 CURVE SMOOTH",
"382 -10 OFFCURVE",
"488 106 OFFCURVE",
"488 270 CURVE SMOOTH",
"488 398 OFFCURVE",
"423 470 OFFCURVE",
"326 470 CURVE SMOOTH",
"265 470 OFFCURVE",
"212 439 OFFCURVE",
"181 394 CURVE",
"228 730 LINE",
"223 735 LINE",
"170 731 OFFCURVE",
"125 730 OFFCURVE",
"73 730 CURVE",
"68 695 LINE",
"142 695 LINE",
"147 690 LINE",
"50 0 LINE"
);
},
{
closed = 1;
nodes = (
"150 308 OFFCURVE",
"212 425 OFFCURVE",
"307 425 CURVE SMOOTH",
"369 425 OFFCURVE",
"403 375 OFFCURVE",
"403 275 CURVE SMOOTH",
"403 152 OFFCURVE",
"352 35 OFFCURVE",
"256 35 CURVE SMOOTH",
"195 35 OFFCURVE",
"150 83 OFFCURVE",
"150 186 CURVE SMOOTH"
);
}
);
width = 536;
},
{
anchors = (
{
name = bottom;
position = "{304, 0}";
},
{
name = top;
position = "{304, 480}";
}
);
guideLines = (
{
angle = 62.3005;
position = "{209, 80}";
},
{
angle = 81.9268;
position = "{204, 247}";
}
);
layerId = "37DD2CA1-C758-4BBE-932B-6884A881B1A3";
paths = (
{
closed = 1;
nodes = (
"128 0 LINE",
"176 91 LINE",
"188 46 OFFCURVE",
"229 -10 OFFCURVE",
"307 -10 CURVE SMOOTH",
"417 -10 OFFCURVE",
"540 102 OFFCURVE",
"540 273 CURVE SMOOTH",
"540 423 OFFCURVE",
"457 490 OFFCURVE",
"360 490 CURVE SMOOTH",
"306 490 OFFCURVE",
"261 465 OFFCURVE",
"229 422 CURVE",
"272 730 LINE",
"262 740 LINE",
"209 731 OFFCURVE",
"126 730 OFFCURVE",
"64 730 CURVE",
"59 695 LINE",
"119 695 LINE",
"129 685 LINE",
"33 0 LINE"
);
},
{
closed = 1;
nodes = (
"197 318 OFFCURVE",
"249 435 OFFCURVE",
"316 435 CURVE SMOOTH",
"358 435 OFFCURVE",
"390 389 OFFCURVE",
"390 288 CURVE SMOOTH",
"390 161 OFFCURVE",
"338 45 OFFCURVE",
"271 45 CURVE SMOOTH",
"229 45 OFFCURVE",
"197 90 OFFCURVE",
"197 191 CURVE SMOOTH"
);
}
);
width = 569;
},
{
anchors = (
{
name = bottom;
position = "{248, 0}";
},
{
name = top;
position = "{312, 460}";
}
);
associatedMasterId = "CF31647D-EA7E-42DE-ACE7-E9318D6117AA";
guideLines = (
{
angle = 62.3005;
position = "{163, 1}";
},
{
angle = 270;
position = "{128, 522}";
}
);
layerId = "B50579F5-089B-43B8-B1D9-8E85F18628C6";
name = "Apr 14 18, 12:06";
paths = (
{
closed = 1;
nodes = (
"95 0 LINE",
"150 105 LINE",
"159 226 LINE",
"184 343 LINE",
"238 730 LINE",
"157 690 LINE",
"60 0 LINE"
);
},
{
closed = 1;
nodes = (
"393 -10 OFFCURVE",
"509 112 OFFCURVE",
"509 274 CURVE SMOOTH",
"509 396 OFFCURVE",
"426 470 OFFCURVE",
"334 470 CURVE SMOOTH",
"274 470 OFFCURVE",
"214 438 OFFCURVE",
"188 388 CURVE",
"153 245 LINE",
"137 112 LINE",
"155 20 OFFCURVE",
"218 -10 OFFCURVE",
"276 -10 CURVE SMOOTH"
);
},
{
closed = 1;
nodes = (
"206 35 OFFCURVE",
"161 83 OFFCURVE",
"161 186 CURVE SMOOTH",
"161 307 OFFCURVE",
"222 425 OFFCURVE",
"318 425 CURVE SMOOTH",
"380 425 OFFCURVE",
"424 376 OFFCURVE",
"424 274 CURVE SMOOTH",
"424 154 OFFCURVE",
"363 35 OFFCURVE",
"267 35 CURVE SMOOTH"
);
},
{
closed = 1;
nodes = (
"238 730 LINE",
"233 735 LINE",
"180 731 OFFCURVE",
"135 730 OFFCURVE",
"83 730 CURVE",
"78 695 LINE",
"152 695 LINE",
"157 690 LINE"
);
}
);
width = 556;
}
);
leftKerningGroup = l;
rightKerningGroup = o;
rightMetricsKey = "=o";
unicode = 0062;
},
{
color = 3;
glyphname = bhook;
layers = (
{
anchors = (
{
name = bottom;
position = "{246, 0}";
},
{
name = top;
position = "{310, 460}";
}
);
components = (
{
name = _com_brzuch_b;
transform = "{1, 0, 0, 1, -83, 0}";
}
);
layerId = "CF31647D-EA7E-42DE-ACE7-E9318D6117AA";
paths = (
{
closed = 1;
nodes = (
"215 740 OFFCURVE",
"158 710 OFFCURVE",
"146 625 CURVE",
"58 0 LINE",
"93 0 LINE",
"148 105 LINE",
"154 226 LINE",
"182 343 LINE",
"221 631 LINE",
"227 675 OFFCURVE",
"256 695 OFFCURVE",
"286 695 CURVE SMOOTH",
"313 695 OFFCURVE",
"327 678 OFFCURVE",
"343 653 CURVE",
"373 676 LINE",
"355 707 OFFCURVE",
"330 740 OFFCURVE",
"271 740 CURVE SMOOTH"
);
}
);
width = 544;
},
{
anchors = (
{
name = bottom;
position = "{309, 0}";
},
{
name = top;
position = "{309, 480}";
}
);
components = (
{
name = _com_brzuch_b;
transform = "{1, 0, 0, 1, -63, 0}";
}
);
layerId = "37DD2CA1-C758-4BBE-932B-6884A881B1A3";
paths = (
{
closed = 1;
nodes = (
"239 740 OFFCURVE",
"140 716 OFFCURVE",
"120 575 CURVE SMOOTH",
"38 0 LINE",
"133 0 LINE",
"189 106 LINE",
"178 237 LINE",
"229 388 LINE",
"259 601 LINE SMOOTH",
"265 645 OFFCURVE",
"301 675 OFFCURVE",
"331 675 CURVE SMOOTH",
"358 675 OFFCURVE",
"383 663 OFFCURVE",
"405 628 CURVE",
"435 651 LINE",
"410 710 OFFCURVE",
"383 740 OFFCURVE",
"304 740 CURVE SMOOTH"
);
}
);
width = 574;
}
);
leftKerningGroup = l;
leftMetricsKey = "=hhook";
rightKerningGroup = o;
rightMetricsKey = "=o";
unicode = 0253;
},
{
color = 6;
glyphname = bidentalpercussive;
layers = (
{
layerId = "CF31647D-EA7E-42DE-ACE7-E9318D6117AA";
paths = (
{
closed = 1;
nodes = (
"120 480 LINE",
"129 520 OFFCURVE",
"147 600 OFFCURVE",
"247 600 CURVE SMOOTH",
"382 600 LINE SMOOTH",
"482 600 OFFCURVE",
"478 520 OFFCURVE",
"475 480 CURVE",
"510 480 LINE",
"537 670 LINE",
"112 670 LINE",
"85 480 LINE"
);
},
{
closed = 1;
nodes = (
"53 0 LINE",
"61 40 OFFCURVE",
"80 120 OFFCURVE",
"180 120 CURVE SMOOTH",
"315 120 LINE SMOOTH",
"415 120 OFFCURVE",
"410 40 OFFCURVE",
"408 0 CURVE",
"443 0 LINE",
"470 190 LINE",
"45 190 LINE",
"18 0 LINE"
);
}
);
width = 526;
},
{
layerId = "37DD2CA1-C758-4BBE-932B-6884A881B1A3";
paths = (
{
closed = 1;
nodes = (
"95 450 LINE",
"104 490 OFFCURVE",
"118 540 OFFCURVE",
"218 540 CURVE SMOOTH",
"383 540 LINE SMOOTH",
"483 540 OFFCURVE",
"483 490 OFFCURVE",
"480 450 CURVE",
"515 450 LINE",
"546 670 LINE",
"91 670 LINE",
"60 450 LINE"
);
},
{
closed = 1;
nodes = (
"32 0 LINE",
"40 40 OFFCURVE",
"54 90 OFFCURVE",
"154 90 CURVE SMOOTH",
"319 90 LINE SMOOTH",
"419 90 OFFCURVE",
"419 40 OFFCURVE",
"417 0 CURVE",
"452 0 LINE",
"483 220 LINE",
"28 220 LINE",
"-3 0 LINE"
);
}
);
width = 516;
}
);
leftMetricsKey = "=H";
rightMetricsKey = "=H";
unicode = 02AD;
},
{
color = 6;
glyphname = bilabialpercussive;
layers = (
{
anchors = (
{
name = bottom;
position = "{298, 362}";
},
{
name = top;
position = "{341, 670}";
}
);
layerId = "CF31647D-EA7E-42DE-ACE7-E9318D6117AA";
paths = (
{
closed = 1;
nodes = (
"455 309 OFFCURVE",
"418 308 OFFCURVE",
"386 308 CURVE",
"383 285 LINE",
"422 285 LINE",
"429 264 OFFCURVE",
"438 239 OFFCURVE",
"438 200 CURVE SMOOTH",
"438 103 OFFCURVE",
"392 25 OFFCURVE",
"341 25 CURVE SMOOTH",
"308 25 OFFCURVE",
"303 55 OFFCURVE",
"307 89 CURVE SMOOTH",
"338 307 LINE",
"334 312 LINE",
"298 308 OFFCURVE",
"261 308 OFFCURVE",
"225 308 CURVE",
"221 285 LINE",
"268 285 LINE",
"271 281 LINE",
"252 147 LINE SMOOTH",
"241 67 OFFCURVE",
"199 25 OFFCURVE",
"163 25 CURVE SMOOTH",
"131 25 OFFCURVE",
"126 55 OFFCURVE",
"130 89 CURVE SMOOTH",
"161 307 LINE",
"157 312 LINE",
"121 308 OFFCURVE",
"84 308 OFFCURVE",
"48 308 CURVE",
"44 285 LINE",
"91 285 LINE",
"95 281 LINE",
"69 96 LINE SMOOTH",
"60 34 OFFCURVE",
"85 -7 OFFCURVE",
"144 -7 CURVE SMOOTH",
"190 -7 OFFCURVE",
"226 20 OFFCURVE",
"245 57 CURVE",
"250 18 OFFCURVE",
"276 -7 OFFCURVE",
"320 -7 CURVE SMOOTH",
"437 -7 OFFCURVE",
"488 162 OFFCURVE",
"494 308 CURVE",
"490 312 LINE"
);
},
{
closed = 1;
nodes = (
"495 671 OFFCURVE",
"458 670 OFFCURVE",
"426 670 CURVE",
"423 647 LINE",
"462 647 LINE",
"469 626 OFFCURVE",
"478 601 OFFCURVE",
"478 562 CURVE SMOOTH",
"478 465 OFFCURVE",
"432 387 OFFCURVE",
"381 387 CURVE SMOOTH",
"348 387 OFFCURVE",
"343 417 OFFCURVE",
"347 451 CURVE SMOOTH",
"378 669 LINE",
"374 674 LINE",
"338 670 OFFCURVE",
"301 670 OFFCURVE",
"265 670 CURVE",
"261 647 LINE",
"308 647 LINE",
"311 643 LINE",
"292 509 LINE SMOOTH",
"281 429 OFFCURVE",
"239 387 OFFCURVE",
"203 387 CURVE SMOOTH",
"171 387 OFFCURVE",
"166 417 OFFCURVE",
"170 451 CURVE SMOOTH",
"201 669 LINE",
"197 674 LINE",
"161 670 OFFCURVE",
"124 670 OFFCURVE",
"88 670 CURVE",
"84 647 LINE",
"131 647 LINE",
"135 643 LINE",
"109 458 LINE SMOOTH",
"100 396 OFFCURVE",
"125 355 OFFCURVE",
"184 355 CURVE SMOOTH",
"230 355 OFFCURVE",
"266 382 OFFCURVE",
"285 419 CURVE",
"290 380 OFFCURVE",
"316 355 OFFCURVE",
"360 355 CURVE SMOOTH",
"477 355 OFFCURVE",
"528 524 OFFCURVE",
"534 670 CURVE",
"530 674 LINE"
);
}
);
width = 512;
},
{
anchors = (
{
name = bottom;
position = "{291, 347}";
},
{
name = top;
position = "{337, 670}";
}
);
layerId = "37DD2CA1-C758-4BBE-932B-6884A881B1A3";
paths = (
{
closed = 1;
nodes = (
"475 329 OFFCURVE",
"424 323 OFFCURVE",
"400 323 CURVE",
"396 300 LINE",
"413 300 LINE",
"430 274 OFFCURVE",
"457 221 OFFCURVE",
"457 155 CURVE SMOOTH",
"457 76 OFFCURVE",
"406 33 OFFCURVE",
"365 33 CURVE SMOOTH",
"332 33 OFFCURVE",
"335 66 OFFCURVE",
"340 107 CURVE SMOOTH",
"370 323 LINE",
"362 331 LINE",
"327 323 OFFCURVE",
"261 323 OFFCURVE",
"217 323 CURVE",
"214 300 LINE",
"249 300 LINE",
"258 292 LINE",
"238 152 LINE SMOOTH",
"225 58 OFFCURVE",
"184 33 OFFCURVE",
"162 33 CURVE SMOOTH",
"134 33 OFFCURVE",
"137 66 OFFCURVE",
"142 107 CURVE SMOOTH",
"173 323 LINE",
"165 331 LINE",
"130 323 OFFCURVE",
"64 323 OFFCURVE",
"20 323 CURVE",
"17 300 LINE",
"52 300 LINE",
"60 292 LINE",
"37 129 LINE SMOOTH",
"24 47 OFFCURVE",
"43 -7 OFFCURVE",
"121 -7 CURVE SMOOTH",
"194 -7 OFFCURVE",
"220 41 OFFCURVE",
"233 62 CURVE",
"241 18 OFFCURVE",
"265 -7 OFFCURVE",
"323 -7 CURVE SMOOTH",
"429 -7 OFFCURVE",
"523 100 OFFCURVE",
"519 323 CURVE",
"511 331 LINE"
);
},
{
closed = 1;
nodes = (
"515 676 OFFCURVE",
"464 670 OFFCURVE",
"440 670 CURVE",
"436 647 LINE",
"453 647 LINE",
"470 621 OFFCURVE",
"497 568 OFFCURVE",
"497 502 CURVE SMOOTH",
"497 423 OFFCURVE",
"446 380 OFFCURVE",
"405 380 CURVE SMOOTH",
"372 380 OFFCURVE",
"375 413 OFFCURVE",
"380 454 CURVE SMOOTH",
"410 670 LINE",
"402 678 LINE",
"367 670 OFFCURVE",
"301 670 OFFCURVE",
"257 670 CURVE",
"254 647 LINE",
"289 647 LINE",
"298 639 LINE",
"278 499 LINE SMOOTH",
"265 405 OFFCURVE",
"224 380 OFFCURVE",
"202 380 CURVE SMOOTH",
"174 380 OFFCURVE",
"177 413 OFFCURVE",
"182 454 CURVE SMOOTH",
"213 670 LINE",
"205 678 LINE",
"170 670 OFFCURVE",
"104 670 OFFCURVE",
"60 670 CURVE",
"57 647 LINE",
"92 647 LINE",
"100 639 LINE",
"77 476 LINE SMOOTH",
"64 394 OFFCURVE",
"83 340 OFFCURVE",
"161 340 CURVE SMOOTH",
"234 340 OFFCURVE",
"260 388 OFFCURVE",
"273 409 CURVE",
"281 365 OFFCURVE",
"305 340 OFFCURVE",
"363 340 CURVE SMOOTH",
"469 340 OFFCURVE",
"563 447 OFFCURVE",
"559 670 CURVE",
"551 678 LINE"
);
}
);
width = 516;
}
);
leftMetricsKey = "=n";
rightMetricsKey = "=|n";
unicode = 02AC;
},
{
color = 6;
glyphname = c;
layers = (
{
anchors = (
{
name = bottom;
position = "{214, 0}";
},
{
name = top;
position = "{288, 460}";
}
);
guideLines = (
{
position = "{158, 300}";
}
);
layerId = "CF31647D-EA7E-42DE-ACE7-E9318D6117AA";
paths = (
{
closed = 1;
nodes = (
"319 -10 OFFCURVE",
"369 46 OFFCURVE",
"403 104 CURVE",
"372 121 LINE",
"343 75 OFFCURVE",
"302 30 OFFCURVE",
"241 30 CURVE SMOOTH",
"179 30 OFFCURVE",
"132 75 OFFCURVE",
"132 189 CURVE SMOOTH",
"132 318 OFFCURVE",
"192 435 OFFCURVE",
"303 435 CURVE SMOOTH",
"360 435 OFFCURVE",
"396 404 OFFCURVE",
"396 358 CURVE",
"426 365 LINE",
"426 384 OFFCURVE",
"421 403 OFFCURVE",
"395 403 CURVE SMOOTH",
"362 403 OFFCURVE",
"340 372 OFFCURVE",
"340 342 CURVE SMOOTH",
"340 317 OFFCURVE",
"355 299 OFFCURVE",
"380 299 CURVE SMOOTH",
"412 299 OFFCURVE",
"434 329 OFFCURVE",
"434 366 CURVE SMOOTH",
"434 425 OFFCURVE",
"377 470 OFFCURVE",
"295 470 CURVE SMOOTH",
"156 470 OFFCURVE",
"47 342 OFFCURVE",
"47 188 CURVE SMOOTH",
"47 64 OFFCURVE",
"117 -10 OFFCURVE",
"225 -10 CURVE SMOOTH"
);
}
);
width = 451;
},
{
anchors = (
{
name = bottom;
position = "{246, 0}";
},
{
name = top;
position = "{314, 480}";
}
);
background = {
components = (
{
name = o;
transform = "{1, 0, 0, 1, 5, 0}";
}
);
};
layerId = "37DD2CA1-C758-4BBE-932B-6884A881B1A3";
paths = (
{
closed = 1;
nodes = (
"336 -10 OFFCURVE",
"392 36 OFFCURVE",
"431 102 CURVE",
"401 120 LINE",
"361 61 OFFCURVE",
"329 41 OFFCURVE",
"286 41 CURVE SMOOTH",
"222 41 OFFCURVE",
"183 86 OFFCURVE",
"183 192 CURVE SMOOTH",
"183 309 OFFCURVE",
"230 455 OFFCURVE",
"331 455 CURVE SMOOTH",
"372 455 OFFCURVE",
"420 431 OFFCURVE",
"420 379 CURVE",
"456 388 LINE",
"456 410 OFFCURVE",
"442 434 OFFCURVE",
"409 434 CURVE SMOOTH",
"368 434 OFFCURVE",
"334 396 OFFCURVE",
"334 354 CURVE SMOOTH",
"334 320 OFFCURVE",
"356 291 OFFCURVE",
"391 291 CURVE SMOOTH",
"432 291 OFFCURVE",
"466 330 OFFCURVE",
"466 379 CURVE SMOOTH",
"466 435 OFFCURVE",
"423 490 OFFCURVE",
"317 490 CURVE SMOOTH",
"172 490 OFFCURVE",
"28 388 OFFCURVE",
"28 205 CURVE SMOOTH",
"28 45 OFFCURVE",
"139 -10 OFFCURVE",
"242 -10 CURVE SMOOTH"
);
}
);
width = 468;
}
);
leftKerningGroup = o;
leftMetricsKey = "=o";
rightKerningGroup = o;
rightMetricsKey = "=o*0.6";
unicode = 0063;
},
{
color = 6;
glyphname = ccurl;
layers = (
{
layerId = "CF31647D-EA7E-42DE-ACE7-E9318D6117AA";
paths = (
{
closed = 1;
nodes = (
"167 -100 LINE",
"189 56 OFFCURVE",
"251 137 OFFCURVE",
"330 137 CURVE",
"367 137 OFFCURVE",
"393 126 OFFCURVE",
"393 98 CURVE SMOOTH",
"393 57 OFFCURVE",
"336 30 OFFCURVE",
"282 30 CURVE SMOOTH",
"200 30 OFFCURVE",
"137 94 OFFCURVE",
"137 208 CURVE SMOOTH",
"137 312 OFFCURVE",
"190 435 OFFCURVE",
"305 435 CURVE SMOOTH",
"352 435 OFFCURVE",
"392 415 OFFCURVE",
"411 389 CURVE",
"379 381 OFFCURVE",
"363 359 OFFCURVE",
"363 333 CURVE SMOOTH",
"363 308 OFFCURVE",
"382 290 OFFCURVE",
"406 290 CURVE SMOOTH",
"440 290 OFFCURVE",
"465 320 OFFCURVE",
"465 359 CURVE SMOOTH",
"465 425 OFFCURVE",
"391 470 OFFCURVE",
"307 470 CURVE SMOOTH",
"170 470 OFFCURVE",
"49 351 OFFCURVE",
"49 203 CURVE SMOOTH",
"49 75 OFFCURVE",
"140 -10 OFFCURVE",
"261 -10 CURVE SMOOTH",
"341 -10 OFFCURVE",
"429 27 OFFCURVE",
"429 98 CURVE SMOOTH",
"429 142 OFFCURVE",
"396 172 OFFCURVE",
"335 172 CURVE",
"233 172 OFFCURVE",
"156 69 OFFCURVE",
"132 -100 CURVE"
);
}
);
width = 478;
},
{
layerId = "37DD2CA1-C758-4BBE-932B-6884A881B1A3";
paths = (
{
closed = 1;
nodes = (
"174 -100 LINE",
"187 -8 OFFCURVE",
"251 142 OFFCURVE",
"353 142 CURVE",
"388 142 OFFCURVE",
"417 132 OFFCURVE",
"417 102 CURVE SMOOTH",
"417 59 OFFCURVE",
"361 40 OFFCURVE",
"310 40 CURVE SMOOTH",
"204 40 OFFCURVE",
"188 122 OFFCURVE",
"188 204 CURVE SMOOTH",
"188 341 OFFCURVE",
"232 455 OFFCURVE",
"330 455 CURVE SMOOTH",
"365 455 OFFCURVE",
"403 440 OFFCURVE",
"419 420 CURVE",
"372 413 OFFCURVE",
"348 379 OFFCURVE",
"348 344 CURVE SMOOTH",
"348 310 OFFCURVE",
"372 285 OFFCURVE",
"408 285 CURVE SMOOTH",
"455 285 OFFCURVE",
"490 325 OFFCURVE",
"490 373 CURVE SMOOTH",
"490 437 OFFCURVE",
"427 490 OFFCURVE",
"321 490 CURVE SMOOTH",
"150 490 OFFCURVE",
"29 356 OFFCURVE",
"29 220 CURVE SMOOTH",
"29 115 OFFCURVE",
"101 -10 OFFCURVE",
"263 -10 CURVE SMOOTH",
"350 -10 OFFCURVE",
"452 31 OFFCURVE",
"452 107 CURVE SMOOTH",
"452 150 OFFCURVE",
"418 177 OFFCURVE",
"358 177 CURVE",
"241 177 OFFCURVE",
"157 23 OFFCURVE",
"139 -100 CURVE"
);
}
);
width = 490;
}
);
leftKerningGroup = o;
leftMetricsKey = "=c";
rightKerningGroup = o;
rightMetricsKey = "=c";
unicode = 0255;
},
{
color = 3;
glyphname = chook;
layers = (
{
components = (
{
name = c;
}
);
layerId = "CF31647D-EA7E-42DE-ACE7-E9318D6117AA";
paths = (
{
closed = 1;
nodes = (
"434 366 LINE",
"434 396 OFFCURVE",
"447 428 OFFCURVE",
"478 456 CURVE",
"486 425 OFFCURVE",
"506 415 OFFCURVE",
"527 415 CURVE SMOOTH",
"556 415 OFFCURVE",
"577 439 OFFCURVE",
"577 465 CURVE SMOOTH",
"577 493 OFFCURVE",
"556 515 OFFCURVE",
"522 515 CURVE SMOOTH",
"453 515 OFFCURVE",
"404 439 OFFCURVE",
"404 366 CURVE"
);
}
);
width = 500;
},
{
components = (
{
name = c;
}
);
layerId = "37DD2CA1-C758-4BBE-932B-6884A881B1A3";
paths = (
{
closed = 1;
nodes = (
"466 379 LINE",
"466 407 OFFCURVE",
"481 441 OFFCURVE",
"501 460 CURVE",
"508 413 OFFCURVE",
"541 398 OFFCURVE",
"566 398 CURVE SMOOTH",
"606 398 OFFCURVE",
"636 428 OFFCURVE",
"636 468 CURVE SMOOTH",
"636 508 OFFCURVE",
"606 538 OFFCURVE",
"561 538 CURVE SMOOTH",
"492 538 OFFCURVE",
"431 472 OFFCURVE",
"431 379 CURVE"
);
}
);
width = 522;
}
);
leftKerningGroup = o;
leftMetricsKey = "=c";
unicode = 0188;
},
{
color = 6;
glyphname = d;
layers = (
{
anchors = (
{
name = bottom;
position = "{256, 0}";
},
{
name = center;
position = "{408, 580}";
},
{
name = top;
position = "{320, 460}";
},
{
name = topright;
position = "{585, 460}";
}
);
guideLines = (
{
angle = 90;
position = "{604, 35}";
},
{
angle = 81.9643;
position = "{380, 239}";
}
);
layerId = "CF31647D-EA7E-42DE-ACE7-E9318D6117AA";
paths = (
{
closed = 1;
nodes = (
"48 63 OFFCURVE",
"113 -9 OFFCURVE",
"210 -9 CURVE SMOOTH",
"272 -9 OFFCURVE",
"327 22 OFFCURVE",
"360 75 CURVE",
"361 16 OFFCURVE",
"391 -10 OFFCURVE",
"438 -10 CURVE SMOOTH",
"485 -10 OFFCURVE",
"521 16 OFFCURVE",
"555 88 CURVE",
"524 105 LINE",
"503 64 OFFCURVE",
"480 35 OFFCURVE",
"458 35 CURVE SMOOTH",
"439 35 OFFCURVE",
"430 55 OFFCURVE",
"436 97 CURVE SMOOTH",
"524 730 LINE",
"519 735 LINE",
"466 731 OFFCURVE",
"421 730 OFFCURVE",
"369 730 CURVE",
"364 695 LINE",
"438 695 LINE",
"443 690 LINE",
"400 383 LINE",
"375 449 OFFCURVE",
"321 471 OFFCURVE",
"270 471 CURVE SMOOTH",
"154 471 OFFCURVE",
"48 355 OFFCURVE",
"48 191 CURVE SMOOTH"
);
},
{
closed = 1;
nodes = (
"133 309 OFFCURVE",
"184 426 OFFCURVE",
"280 426 CURVE SMOOTH",
"341 426 OFFCURVE",
"386 378 OFFCURVE",
"386 275 CURVE SMOOTH",
"386 153 OFFCURVE",
"324 36 OFFCURVE",
"229 36 CURVE SMOOTH",
"167 36 OFFCURVE",
"133 86 OFFCURVE",
"133 186 CURVE SMOOTH"
);
}
);
width = 575;
},
{
anchors = (
{
name = bottom;
position = "{315, 0}";
},
{
name = center;
position = "{402, 580}";
},
{
name = top;
position = "{315, 480}";
},
{
name = topright;
position = "{632, 480}";
}
);
guideLines = (
{
angle = 90;
position = "{608, 35}";
},
{
angle = 81.9268;
position = "{389, 378}";
},
{
angle = 81.9268;
position = "{202, 247}";
}
);
layerId = "37DD2CA1-C758-4BBE-932B-6884A881B1A3";
paths = (
{
closed = 1;
nodes = (
"29 57 OFFCURVE",
"112 -10 OFFCURVE",
"209 -10 CURVE SMOOTH",
"268 -10 OFFCURVE",
"316 20 OFFCURVE",
"348 69 CURVE",
"360 17 OFFCURVE",
"402 -10 OFFCURVE",
"461 -10 CURVE SMOOTH",
"511 -10 OFFCURVE",
"553 9 OFFCURVE",
"584 70 CURVE",
"554 88 LINE",
"538 62 OFFCURVE",
"522 45 OFFCURVE",
"502 45 CURVE SMOOTH",
"485 45 OFFCURVE",
"472 57 OFFCURVE",
"479 104 CURVE SMOOTH",
"570 730 LINE",
"560 740 LINE",
"507 731 OFFCURVE",
"424 730 OFFCURVE",
"362 730 CURVE",
"357 695 LINE",
"417 695 LINE",
"427 685 LINE",
"388 405 LINE",
"371 446 OFFCURVE",
"331 490 OFFCURVE",
"262 490 CURVE SMOOTH",
"152 490 OFFCURVE",
"29 378 OFFCURVE",
"29 207 CURVE SMOOTH"
);
},
{
closed = 1;
nodes = (
"179 319 OFFCURVE",
"231 435 OFFCURVE",
"298 435 CURVE SMOOTH",
"340 435 OFFCURVE",
"372 390 OFFCURVE",
"372 289 CURVE SMOOTH",
"372 162 OFFCURVE",
"320 45 OFFCURVE",
"253 45 CURVE SMOOTH",
"211 45 OFFCURVE",
"179 91 OFFCURVE",
"179 192 CURVE SMOOTH"
);
}
);
width = 603;
},
{
associatedMasterId = "37DD2CA1-C758-4BBE-932B-6884A881B1A3";
layerId = "D1D9517A-D9A6-4C15-8E01-C9C1FD9CC50C";
name = "Feb 3 18, 10:07";
width = 600;
}
);
leftKerningGroup = o;
leftMetricsKey = "=o";
rightKerningGroup = l;
rightMetricsKey = "=n";
unicode = 0064;
},
{
color = 6;
glyphname = eth;
layers = (
{
anchors = (
{
name = bottom;
position = "{284, 0}";
},
{
name = center;
position = "{284, 230}";
},
{
name = ogonek;
position = "{508, 10}";
},
{
name = top;
position = "{284, 460}";
},
{
name = topright;
position = "{544, 460}";
}
);
layerId = "CF31647D-EA7E-42DE-ACE7-E9318D6117AA";
paths = (
{
closed = 1;
nodes = (
"400 776 LINE",
"170 574 LINE",
"190 549 LINE",
"421 751 LINE"
);
},
{
closed = 1;
nodes = (
"164 728 LINE",
"330 650 OFFCURVE",
"391 522 OFFCURVE",
"399 380 CURVE",
"375 421 OFFCURVE",
"339 450 OFFCURVE",
"288 450 CURVE SMOOTH",
"158 450 OFFCURVE",
"48 340 OFFCURVE",
"48 192 CURVE SMOOTH",
"48 74 OFFCURVE",
"127 -10 OFFCURVE",
"229 -10 CURVE SMOOTH",
"392 -10 OFFCURVE",
"474 138 OFFCURVE",
"474 328 CURVE SMOOTH",
"474 523 OFFCURVE",
"402 675 OFFCURVE",
"195 751 CURVE"
);
},
{
closed = 1;
nodes = (
"176 25 OFFCURVE",
"133 93 OFFCURVE",
"133 182 CURVE SMOOTH",
"133 299 OFFCURVE",
"185 415 OFFCURVE",
"283 415 CURVE SMOOTH",
"346 415 OFFCURVE",
"389 347 OFFCURVE",
"389 258 CURVE SMOOTH",
"389 141 OFFCURVE",
"338 25 OFFCURVE",
"239 25 CURVE SMOOTH"
);
}
);
width = 516;
},
{
anchors = (
{
name = bottom;
position = "{285, 0}";
},
{
name = center;
position = "{285, 240}";
},
{
name = ogonek;
position = "{517, 10}";
},
{
name = top;
position = "{285, 480}";
},
{
name = topright;
position = "{555, 480}";
}
);
layerId = "37DD2CA1-C758-4BBE-932B-6884A881B1A3";
paths = (
{
closed = 1;
nodes = (
"391 776 LINE",
"161 574 LINE",
"181 549 LINE",
"412 751 LINE"
);
},
{
closed = 1;
nodes = (
"155 728 LINE",
"281 659 OFFCURVE",
"344 536 OFFCURVE",
"367 424 CURVE",
"342 440 OFFCURVE",
"312 449 OFFCURVE",
"283 449 CURVE SMOOTH",
"128 449 OFFCURVE",
"26 341 OFFCURVE",
"26 185 CURVE SMOOTH",
"26 67 OFFCURVE",
"100 -10 OFFCURVE",
"230 -10 CURVE SMOOTH",
"408 -10 OFFCURVE",
"505 123 OFFCURVE",
"505 317 CURVE SMOOTH",
"505 514 OFFCURVE",
"399 673 OFFCURVE",
"186 751 CURVE"
);
},
{
closed = 1;
nodes = (
"206 25 OFFCURVE",
"174 78 OFFCURVE",
"174 174 CURVE SMOOTH",
"174 278 OFFCURVE",
"211 415 OFFCURVE",
"284 415 CURVE SMOOTH",
"318 415 OFFCURVE",
"350 362 OFFCURVE",
"350 266 CURVE SMOOTH",
"350 162 OFFCURVE",
"313 25 OFFCURVE",
"240 25 CURVE SMOOTH"
);
}
);
width = 529;
}
);
leftKerningGroup = o;
leftMetricsKey = "=o";
rightKerningGroup = o;
rightMetricsKey = "=o";
unicode = 00F0;
},
{
color = 6;
glyphname = dezh;
layers = (
{
anchors = (
{
name = bottom;
position = "{706, 0}";
},
{
name = center;
position = "{408, 580}";
},
{
name = top;
position = "{771, 460}";
},
{
name = topright;
position = "{585, 460}";
}
);
layerId = "CF31647D-EA7E-42DE-ACE7-E9318D6117AA";
paths = (
{
closed = 1;
nodes = (
"721 -260 OFFCURVE",
"844 -154 OFFCURVE",
"844 -14 CURVE SMOOTH",
"844 80 OFFCURVE",
"776 146 OFFCURVE",
"666 165 CURVE",
"900 435 LINE",
"904 460 LINE",
"486 460 LINE",
"524 730 LINE",
"519 735 LINE",
"466 731 OFFCURVE",
"421 730 OFFCURVE",
"369 730 CURVE",
"364 695 LINE",
"438 695 LINE",
"443 690 LINE",
"400 383 LINE",
"375 449 OFFCURVE",
"321 471 OFFCURVE",
"270 471 CURVE SMOOTH",
"154 471 OFFCURVE",
"48 355 OFFCURVE",
"48 191 CURVE SMOOTH",
"48 63 OFFCURVE",
"113 -9 OFFCURVE",
"210 -9 CURVE SMOOTH",
"272 -9 OFFCURVE",
"327 22 OFFCURVE",
"360 75 CURVE",
"361 16 OFFCURVE",
"391 -10 OFFCURVE",
"438 -10 CURVE SMOOTH",
"485 -10 OFFCURVE",
"521 16 OFFCURVE",
"555 88 CURVE",
"524 105 LINE",
"503 64 OFFCURVE",
"480 35 OFFCURVE",
"458 35 CURVE SMOOTH",
"439 35 OFFCURVE",
"430 55 OFFCURVE",
"436 97 CURVE SMOOTH",
"468 326 LINE SMOOTH",
"482 426 OFFCURVE",
"506 425 OFFCURVE",
"584 425 CURVE SMOOTH",
"789 425 LINE",
"794 420 LINE",
"569 158 LINE",
"565 133 LINE",
"701 133 OFFCURVE",
"757 68 OFFCURVE",
"757 -15 CURVE SMOOTH",
"757 -124 OFFCURVE",
"672 -220 OFFCURVE",
"577 -220 CURVE SMOOTH",
"518 -220 OFFCURVE",
"473 -186 OFFCURVE",
"439 -143 CURVE",
"409 -166 LINE",
"442 -216 OFFCURVE",
"499 -260 OFFCURVE",
"584 -260 CURVE SMOOTH"
);
},
{
closed = 1;
nodes = (
"167 36 OFFCURVE",
"133 86 OFFCURVE",
"133 186 CURVE SMOOTH",
"133 309 OFFCURVE",
"184 426 OFFCURVE",
"280 426 CURVE SMOOTH",
"341 426 OFFCURVE",
"386 378 OFFCURVE",
"386 275 CURVE SMOOTH",
"386 153 OFFCURVE",
"324 36 OFFCURVE",
"229 36 CURVE SMOOTH"
);
}
);
width = 907;
},
{
anchors = (
{
name = bottom;
position = "{724, 0}";
},
{
name = center;
position = "{402, 580}";
},
{
name = top;
position = "{791, 480}";
},
{
name = topright;
position = "{632, 480}";
}
);
layerId = "37DD2CA1-C758-4BBE-932B-6884A881B1A3";
paths = (
{
closed = 1;
nodes = (
"795 -260 OFFCURVE",
"929 -150 OFFCURVE",
"929 -15 CURVE SMOOTH",
"929 54 OFFCURVE",
"893 130 OFFCURVE",
"764 164 CURVE",
"990 445 LINE",
"995 480 LINE",
"534 480 LINE",
"570 730 LINE",
"560 740 LINE",
"507 731 OFFCURVE",
"424 730 OFFCURVE",
"362 730 CURVE",
"357 695 LINE",
"417 695 LINE",
"427 685 LINE",
"388 405 LINE",
"371 446 OFFCURVE",
"331 490 OFFCURVE",
"262 490 CURVE SMOOTH",
"152 490 OFFCURVE",
"29 378 OFFCURVE",
"29 207 CURVE SMOOTH",
"29 57 OFFCURVE",
"112 -10 OFFCURVE",
"209 -10 CURVE SMOOTH",
"268 -10 OFFCURVE",
"316 20 OFFCURVE",
"348 69 CURVE",
"360 17 OFFCURVE",
"402 -10 OFFCURVE",
"461 -10 CURVE SMOOTH",
"511 -10 OFFCURVE",
"553 9 OFFCURVE",
"584 70 CURVE",
"554 88 LINE",
"538 62 OFFCURVE",
"522 45 OFFCURVE",
"502 45 CURVE SMOOTH",
"485 45 OFFCURVE",
"472 57 OFFCURVE",
"479 104 CURVE SMOOTH",
"512 331 LINE SMOOTH",
"529 446 OFFCURVE",
"612 445 OFFCURVE",
"655 445 CURVE SMOOTH",
"806 445 LINE",
"816 435 LINE",
"606 181 LINE",
"602 151 LINE",
"744 151 OFFCURVE",
"770 63 OFFCURVE",
"770 -2 CURVE SMOOTH",
"770 -120 OFFCURVE",
"700 -210 OFFCURVE",
"609 -210 CURVE SMOOTH",
"550 -210 OFFCURVE",
"496 -172 OFFCURVE",
"465 -133 CURVE",
"435 -156 LINE",
"468 -205 OFFCURVE",
"521 -260 OFFCURVE",
"633 -260 CURVE SMOOTH"
);
},
{
closed = 1;
nodes = (
"211 45 OFFCURVE",
"179 91 OFFCURVE",
"179 192 CURVE SMOOTH",
"179 319 OFFCURVE",
"231 435 OFFCURVE",
"298 435 CURVE SMOOTH",
"340 435 OFFCURVE",
"372 390 OFFCURVE",
"372 289 CURVE SMOOTH",
"372 162 OFFCURVE",
"320 45 OFFCURVE",
"253 45 CURVE SMOOTH"
);
}
);
width = 987;
}
);
leftKerningGroup = o;
leftMetricsKey = "=d";
rightKerningGroup = n;
rightMetricsKey = "=lzdigraph";
unicode = 02A4;
},
{
color = 6;
glyphname = dhook;
layers = (
{
anchors = (
{
name = bottom;
position = "{256, 0}";
},
{
name = center;
position = "{408, 580}";
},
{
name = top;
position = "{320, 460}";
},
{
name = topright;
position = "{585, 460}";
}
);
layerId = "CF31647D-EA7E-42DE-ACE7-E9318D6117AA";
paths = (
{
closed = 1;
nodes = (
"48 63 OFFCURVE",
"113 -9 OFFCURVE",
"210 -9 CURVE SMOOTH",
"272 -9 OFFCURVE",
"327 22 OFFCURVE",
"360 75 CURVE",
"361 16 OFFCURVE",
"391 -10 OFFCURVE",
"438 -10 CURVE SMOOTH",
"485 -10 OFFCURVE",
"521 16 OFFCURVE",
"555 88 CURVE",
"524 105 LINE",
"503 64 OFFCURVE",
"480 35 OFFCURVE",
"458 35 CURVE SMOOTH",
"439 35 OFFCURVE",
"430 55 OFFCURVE",
"436 97 CURVE SMOOTH",
"510 631 LINE SMOOTH",
"516 675 OFFCURVE",
"545 695 OFFCURVE",
"575 695 CURVE SMOOTH",
"602 695 OFFCURVE",
"616 678 OFFCURVE",
"632 653 CURVE",
"662 676 LINE",
"644 707 OFFCURVE",
"619 740 OFFCURVE",
"560 740 CURVE SMOOTH",
"504 740 OFFCURVE",
"447 710 OFFCURVE",
"435 625 CURVE SMOOTH",
"400 383 LINE",
"375 449 OFFCURVE",
"321 471 OFFCURVE",
"270 471 CURVE SMOOTH",
"154 471 OFFCURVE",
"48 355 OFFCURVE",
"48 191 CURVE SMOOTH"
);
},
{
closed = 1;
nodes = (
"133 309 OFFCURVE",
"184 426 OFFCURVE",
"280 426 CURVE SMOOTH",
"341 426 OFFCURVE",
"386 378 OFFCURVE",
"386 275 CURVE SMOOTH",
"386 153 OFFCURVE",
"324 36 OFFCURVE",
"229 36 CURVE SMOOTH",
"167 36 OFFCURVE",
"133 86 OFFCURVE",
"133 186 CURVE SMOOTH"
);
}
);
width = 575;
},
{
anchors = (
{
name = bottom;
position = "{315, 0}";
},
{
name = center;
position = "{402, 580}";
},
{
name = top;
position = "{315, 480}";
},
{
name = topright;
position = "{632, 480}";
}
);
layerId = "37DD2CA1-C758-4BBE-932B-6884A881B1A3";
paths = (
{
closed = 1;
nodes = (
"29 57 OFFCURVE",
"112 -10 OFFCURVE",
"209 -10 CURVE SMOOTH",
"268 -10 OFFCURVE",
"316 20 OFFCURVE",
"348 69 CURVE",
"360 17 OFFCURVE",
"402 -10 OFFCURVE",
"461 -10 CURVE SMOOTH",
"511 -10 OFFCURVE",
"553 9 OFFCURVE",
"584 70 CURVE",
"554 88 LINE",
"538 62 OFFCURVE",
"522 45 OFFCURVE",
"502 45 CURVE SMOOTH",
"485 45 OFFCURVE",
"472 57 OFFCURVE",
"479 104 CURVE SMOOTH",
"550 601 LINE SMOOTH",
"557 645 OFFCURVE",
"592 675 OFFCURVE",
"622 675 CURVE SMOOTH",
"649 675 OFFCURVE",
"674 663 OFFCURVE",
"696 628 CURVE",
"726 651 LINE",
"701 710 OFFCURVE",
"674 740 OFFCURVE",
"595 740 CURVE SMOOTH",
"530 740 OFFCURVE",
"431 716 OFFCURVE",
"411 575 CURVE SMOOTH",
"388 405 LINE",
"371 446 OFFCURVE",
"331 490 OFFCURVE",
"262 490 CURVE SMOOTH",
"152 490 OFFCURVE",
"29 378 OFFCURVE",
"29 207 CURVE SMOOTH"
);
},
{
closed = 1;
nodes = (
"179 319 OFFCURVE",
"231 435 OFFCURVE",
"298 435 CURVE SMOOTH",
"340 435 OFFCURVE",
"372 390 OFFCURVE",
"372 289 CURVE SMOOTH",
"372 162 OFFCURVE",
"320 45 OFFCURVE",
"253 45 CURVE SMOOTH",
"211 45 OFFCURVE",
"179 91 OFFCURVE",
"179 192 CURVE SMOOTH"
);
}
);
width = 603;
}
);
leftKerningGroup = o;
leftMetricsKey = "=d";
unicode = 0257;
},
{
color = 6;
glyphname = dtail;
layers = (
{
anchors = (
{
name = bottom;
position = "{256, 0}";
},
{
name = center;
position = "{408, 580}";
},
{
name = top;
position = "{320, 460}";
},
{
name = topright;
position = "{585, 460}";
}
);
layerId = "CF31647D-EA7E-42DE-ACE7-E9318D6117AA";
paths = (
{
closed = 1;
nodes = (
"48 63 OFFCURVE",
"113 -9 OFFCURVE",
"210 -9 CURVE SMOOTH",
"274 -9 OFFCURVE",
"328 25 OFFCURVE",
"359 72 CURVE",
"328 -145 LINE SMOOTH",
"316 -230 OFFCURVE",
"365 -260 OFFCURVE",
"421 -260 CURVE SMOOTH",
"480 -260 OFFCURVE",
"515 -227 OFFCURVE",
"541 -196 CURVE",
"517 -173 LINE",
"495 -198 OFFCURVE",
"475 -215 OFFCURVE",
"448 -215 CURVE SMOOTH",
"418 -215 OFFCURVE",
"395 -195 OFFCURVE",
"401 -151 CURVE SMOOTH",
"524 730 LINE",
"519 735 LINE",
"466 731 OFFCURVE",
"421 730 OFFCURVE",
"369 730 CURVE",
"364 695 LINE",
"438 695 LINE",
"443 690 LINE",
"400 383 LINE",
"375 449 OFFCURVE",
"321 471 OFFCURVE",
"270 471 CURVE SMOOTH",
"154 471 OFFCURVE",
"48 355 OFFCURVE",
"48 191 CURVE SMOOTH"
);
},
{
closed = 1;
nodes = (
"133 309 OFFCURVE",
"184 426 OFFCURVE",
"280 426 CURVE SMOOTH",
"341 426 OFFCURVE",
"386 378 OFFCURVE",
"386 275 CURVE SMOOTH",
"386 153 OFFCURVE",
"324 36 OFFCURVE",
"229 36 CURVE SMOOTH",
"167 36 OFFCURVE",
"133 86 OFFCURVE",
"133 186 CURVE SMOOTH"
);
}
);
width = 546;
},
{
anchors = (
{
name = bottom;
position = "{315, 0}";
},
{
name = center;
position = "{402, 580}";
},
{
name = top;
position = "{315, 480}";
},
{
name = topright;
position = "{632, 480}";
}
);
layerId = "37DD2CA1-C758-4BBE-932B-6884A881B1A3";
paths = (
{
closed = 1;
nodes = (
"29 57 OFFCURVE",
"112 -10 OFFCURVE",
"209 -10 CURVE SMOOTH",
"261 -10 OFFCURVE",
"304 13 OFFCURVE",
"335 51 CURVE",
"314 -95 LINE SMOOTH",
"294 -237 OFFCURVE",
"387 -260 OFFCURVE",
"452 -260 CURVE SMOOTH",
"531 -260 OFFCURVE",
"566 -230 OFFCURVE",
"609 -171 CURVE",
"585 -148 LINE",
"553 -183 OFFCURVE",
"524 -195 OFFCURVE",
"497 -195 CURVE SMOOTH",
"467 -195 OFFCURVE",
"441 -165 OFFCURVE",
"447 -121 CURVE SMOOTH",
"570 730 LINE",
"560 740 LINE",
"507 731 OFFCURVE",
"424 730 OFFCURVE",
"362 730 CURVE",
"357 695 LINE",
"417 695 LINE",
"427 685 LINE",
"388 405 LINE",
"371 446 OFFCURVE",
"331 490 OFFCURVE",
"262 490 CURVE SMOOTH",
"152 490 OFFCURVE",
"29 378 OFFCURVE",
"29 207 CURVE SMOOTH"
);
},
{
closed = 1;
nodes = (
"179 319 OFFCURVE",
"231 435 OFFCURVE",
"298 435 CURVE SMOOTH",
"340 435 OFFCURVE",
"372 390 OFFCURVE",
"372 289 CURVE SMOOTH",
"372 162 OFFCURVE",
"320 45 OFFCURVE",
"253 45 CURVE SMOOTH",
"211 45 OFFCURVE",
"179 91 OFFCURVE",
"179 192 CURVE SMOOTH"
);
}
);
width = 574;
}
);
leftKerningGroup = o;
leftMetricsKey = "=d";
rightMetricsKey = "=nhookretroflex";
unicode = 0256;
},
{
color = 6;
glyphname = dzaltone;
layers = (
{
anchors = (
{
name = bottom;
position = "{766, 0}";
},
{
name = center;
position = "{408, 580}";
},
{
name = top;
position = "{830, 460}";
},
{
name = topright;
position = "{585, 460}";
}
);
layerId = "CF31647D-EA7E-42DE-ACE7-E9318D6117AA";
paths = (
{
closed = 1;
nodes = (
"534 36 OFFCURVE",
"555 56 OFFCURVE",
"594 56 CURVE SMOOTH",
"658 56 OFFCURVE",
"683 -10 OFFCURVE",
"769 -10 CURVE SMOOTH",
"835 -10 OFFCURVE",
"865 38 OFFCURVE",
"865 81 CURVE SMOOTH",
"865 109 OFFCURVE",
"851 147 OFFCURVE",
"814 172 CURVE",
"790 148 LINE",
"809 133 OFFCURVE",
"822 114 OFFCURVE",
"822 95 CURVE SMOOTH",
"822 80 OFFCURVE",
"813 65 OFFCURVE",
"789 65 CURVE SMOOTH",
"750 65 OFFCURVE",
"719 106 OFFCURVE",
"643 106 CURVE SMOOTH",
"623 106 OFFCURVE",
"605 103 OFFCURVE",
"588 97 CURVE",
"583 102 LINE",
"688 227 OFFCURVE",
"823 271 OFFCURVE",
"912 453 CURVE",
"881 470 LINE",
"854 424 OFFCURVE",
"828 404 OFFCURVE",
"793 404 CURVE SMOOTH",
"682 404 OFFCURVE",
"608 470 OFFCURVE",
"522 470 CURVE SMOOTH",
"509 470 OFFCURVE",
"497 468 OFFCURVE",
"487 464 CURVE",
"524 730 LINE",
"519 735 LINE",
"466 731 OFFCURVE",
"421 730 OFFCURVE",
"369 730 CURVE",
"364 695 LINE",
"438 695 LINE",
"443 690 LINE",
"400 383 LINE",
"375 449 OFFCURVE",
"321 471 OFFCURVE",
"270 471 CURVE SMOOTH",
"154 471 OFFCURVE",
"48 355 OFFCURVE",
"48 191 CURVE SMOOTH",
"48 63 OFFCURVE",
"113 -9 OFFCURVE",
"210 -9 CURVE SMOOTH",
"274 -9 OFFCURVE",
"329 25 OFFCURVE",
"359 73 CURVE",
"386 0 LINE",
"421 0 LINE",
"474 373 LINE SMOOTH",
"476 385 OFFCURVE",
"487 395 OFFCURVE",
"506 395 CURVE SMOOTH",
"546 395 OFFCURVE",
"621 354 OFFCURVE",
"744 354 CURVE SMOOTH",
"764 354 OFFCURVE",
"783 357 OFFCURVE",
"800 363 CURVE",
"804 359 LINE",
"698 233 OFFCURVE",
"564 189 OFFCURVE",
"475 7 CURVE",
"506 -10 LINE"
);
},
{
closed = 1;
nodes = (
"167 36 OFFCURVE",
"133 86 OFFCURVE",
"133 186 CURVE SMOOTH",
"133 309 OFFCURVE",
"184 426 OFFCURVE",
"280 426 CURVE SMOOTH",
"341 426 OFFCURVE",
"386 378 OFFCURVE",
"386 275 CURVE SMOOTH",
"386 153 OFFCURVE",
"324 36 OFFCURVE",
"229 36 CURVE SMOOTH"
);
}
);
width = 913;
},
{
anchors = (
{
name = bottom;
position = "{315, 0}";
},
{
name = center;
position = "{402, 580}";
},
{
name = top;
position = "{315, 480}";
},
{
name = topright;
position = "{632, 480}";
}
);
layerId = "37DD2CA1-C758-4BBE-932B-6884A881B1A3";
paths = (
{
closed = 1;
nodes = (
"547 30 OFFCURVE",
"582 46 OFFCURVE",
"616 46 CURVE SMOOTH",
"679 46 OFFCURVE",
"705 -10 OFFCURVE",
"798 -10 CURVE SMOOTH",
"886 -10 OFFCURVE",
"930 41 OFFCURVE",
"930 104 CURVE SMOOTH",
"930 139 OFFCURVE",
"916 171 OFFCURVE",
"889 200 CURVE",
"859 182 LINE",
"866 172 OFFCURVE",
"872 158 OFFCURVE",
"872 147 CURVE SMOOTH",
"872 134 OFFCURVE",
"864 124 OFFCURVE",
"848 124 CURVE SMOOTH",
"822 124 OFFCURVE",
"798 148 OFFCURVE",
"751 148 CURVE SMOOTH",
"697 148 OFFCURVE",
"657 128 OFFCURVE",
"602 87 CURVE",
"597 92 LINE",
"713 234 OFFCURVE",
"899 269 OFFCURVE",
"981 472 CURVE",
"951 490 LINE",
"931 450 OFFCURVE",
"896 434 OFFCURVE",
"862 434 CURVE SMOOTH",
"799 434 OFFCURVE",
"679 490 OFFCURVE",
"586 490 CURVE SMOOTH",
"567 490 OFFCURVE",
"549 488 OFFCURVE",
"534 483 CURVE",
"570 730 LINE",
"560 740 LINE",
"507 731 OFFCURVE",
"424 730 OFFCURVE",
"362 730 CURVE",
"357 695 LINE",
"417 695 LINE",
"427 685 LINE",
"388 405 LINE",
"371 446 OFFCURVE",
"331 490 OFFCURVE",
"262 490 CURVE SMOOTH",
"152 490 OFFCURVE",
"29 378 OFFCURVE",
"29 207 CURVE SMOOTH",
"29 57 OFFCURVE",
"112 -10 OFFCURVE",
"209 -10 CURVE SMOOTH",
"274 -10 OFFCURVE",
"315 19 OFFCURVE",
"354 82 CURVE",
"369 0 LINE",
"464 0 LINE",
"513 341 LINE SMOOTH",
"514 349 OFFCURVE",
"523 356 OFFCURVE",
"537 356 CURVE SMOOTH",
"562 356 OFFCURVE",
"621 332 OFFCURVE",
"690 332 CURVE SMOOTH",
"733 332 OFFCURVE",
"821 345 OFFCURVE",
"875 388 CURVE",
"880 383 LINE",
"764 241 OFFCURVE",
"579 211 OFFCURVE",
"497 8 CURVE",
"527 -10 LINE"
);
},
{
closed = 1;
nodes = (
"211 45 OFFCURVE",
"179 91 OFFCURVE",
"179 192 CURVE SMOOTH",
"179 319 OFFCURVE",
"231 435 OFFCURVE",
"298 435 CURVE SMOOTH",
"340 435 OFFCURVE",
"372 390 OFFCURVE",
"372 289 CURVE SMOOTH",
"372 162 OFFCURVE",
"320 45 OFFCURVE",
"253 45 CURVE SMOOTH"
);
}
);
width = 970;
}
);
leftKerningGroup = o;
leftMetricsKey = "=o";
rightKerningGroup = n;
rightMetricsKey = "=z";
unicode = 02A3;
},
{
color = 6;
glyphname = dzcurl;
layers = (
{
anchors = (
{
name = bottom;
position = "{766, 0}";
},
{
name = center;
position = "{408, 580}";
},
{
name = top;
position = "{830, 460}";
},
{
name = topright;
position = "{585, 460}";
}
);
layerId = "CF31647D-EA7E-42DE-ACE7-E9318D6117AA";
paths = (
{
closed = 1;
nodes = (
"654 -100 LINE",
"654 56 OFFCURVE",
"714 137 OFFCURVE",
"794 137 CURVE SMOOTH",
"820 137 OFFCURVE",
"853 127 OFFCURVE",
"853 100 CURVE SMOOTH",
"853 75 OFFCURVE",
"833 65 OFFCURVE",
"809 65 CURVE SMOOTH",
"760 65 OFFCURVE",
"719 106 OFFCURVE",
"643 106 CURVE SMOOTH",
"623 106 OFFCURVE",
"605 103 OFFCURVE",
"588 97 CURVE",
"583 102 LINE",
"688 227 OFFCURVE",
"823 271 OFFCURVE",
"912 453 CURVE",
"881 470 LINE",
"854 424 OFFCURVE",
"828 404 OFFCURVE",
"793 404 CURVE SMOOTH",
"682 404 OFFCURVE",
"608 470 OFFCURVE",
"522 470 CURVE SMOOTH",
"509 470 OFFCURVE",
"497 468 OFFCURVE",
"487 464 CURVE",
"524 730 LINE",
"519 735 LINE",
"466 731 OFFCURVE",
"421 730 OFFCURVE",
"369 730 CURVE",
"364 695 LINE",
"438 695 LINE",
"443 690 LINE",
"400 383 LINE",
"375 449 OFFCURVE",
"321 471 OFFCURVE",
"270 471 CURVE SMOOTH",
"154 471 OFFCURVE",
"48 355 OFFCURVE",
"48 191 CURVE SMOOTH",
"48 63 OFFCURVE",
"113 -9 OFFCURVE",
"210 -9 CURVE SMOOTH",
"274 -9 OFFCURVE",
"329 25 OFFCURVE",
"359 73 CURVE",
"386 0 LINE",
"421 0 LINE",
"474 373 LINE SMOOTH",
"476 385 OFFCURVE",
"487 395 OFFCURVE",
"506 395 CURVE SMOOTH",
"546 395 OFFCURVE",
"621 354 OFFCURVE",
"744 354 CURVE SMOOTH",
"764 354 OFFCURVE",
"783 357 OFFCURVE",
"800 363 CURVE",
"804 359 LINE",
"698 233 OFFCURVE",
"564 189 OFFCURVE",
"475 7 CURVE",
"506 -10 LINE",
"534 36 OFFCURVE",
"555 56 OFFCURVE",
"594 56 CURVE SMOOTH",
"658 56 OFFCURVE",
"693 -10 OFFCURVE",
"789 -10 CURVE SMOOTH",
"855 -10 OFFCURVE",
"888 35 OFFCURVE",
"888 91 CURVE SMOOTH",
"888 146 OFFCURVE",
"850 172 OFFCURVE",
"794 172 CURVE SMOOTH",
"694 172 OFFCURVE",
"619 73 OFFCURVE",
"619 -100 CURVE"
);
},
{
closed = 1;
nodes = (
"167 36 OFFCURVE",
"133 86 OFFCURVE",
"133 186 CURVE SMOOTH",
"133 309 OFFCURVE",
"184 426 OFFCURVE",
"280 426 CURVE SMOOTH",
"341 426 OFFCURVE",
"386 378 OFFCURVE",
"386 275 CURVE SMOOTH",
"386 153 OFFCURVE",
"324 36 OFFCURVE",
"229 36 CURVE SMOOTH"
);
}
);
width = 935;
},
{
anchors = (
{
name = bottom;
position = "{315, 0}";
},
{
name = center;
position = "{402, 580}";
},
{
name = top;
position = "{315, 480}";
},
{
name = topright;
position = "{632, 480}";
}
);
layerId = "37DD2CA1-C758-4BBE-932B-6884A881B1A3";
paths = (
{
closed = 1;
nodes = (
"701 -100 LINE",
"701 42 OFFCURVE",
"743 177 OFFCURVE",
"846 177 CURVE SMOOTH",
"863 177 OFFCURVE",
"882 168 OFFCURVE",
"882 147 CURVE SMOOTH",
"882 129 OFFCURVE",
"871 114 OFFCURVE",
"848 114 CURVE SMOOTH",
"812 114 OFFCURVE",
"798 138 OFFCURVE",
"751 138 CURVE SMOOTH",
"697 138 OFFCURVE",
"657 128 OFFCURVE",
"602 87 CURVE",
"597 92 LINE",
"713 234 OFFCURVE",
"899 269 OFFCURVE",
"981 472 CURVE",
"951 490 LINE",
"931 450 OFFCURVE",
"896 434 OFFCURVE",
"862 434 CURVE SMOOTH",
"799 434 OFFCURVE",
"679 490 OFFCURVE",
"586 490 CURVE SMOOTH",
"567 490 OFFCURVE",
"549 488 OFFCURVE",
"534 483 CURVE",
"570 730 LINE",
"560 740 LINE",
"507 731 OFFCURVE",
"424 730 OFFCURVE",
"362 730 CURVE",
"357 695 LINE",
"417 695 LINE",
"427 685 LINE",
"388 405 LINE",
"371 446 OFFCURVE",
"331 490 OFFCURVE",
"262 490 CURVE SMOOTH",
"152 490 OFFCURVE",
"29 378 OFFCURVE",
"29 207 CURVE SMOOTH",
"29 57 OFFCURVE",
"112 -10 OFFCURVE",
"209 -10 CURVE SMOOTH",
"274 -10 OFFCURVE",
"315 19 OFFCURVE",
"354 82 CURVE",
"369 0 LINE",
"464 0 LINE",
"513 341 LINE SMOOTH",
"514 349 OFFCURVE",
"523 356 OFFCURVE",
"537 356 CURVE SMOOTH",
"562 356 OFFCURVE",
"621 332 OFFCURVE",
"690 332 CURVE SMOOTH",
"733 332 OFFCURVE",
"821 345 OFFCURVE",
"875 388 CURVE",
"880 383 LINE",
"764 241 OFFCURVE",
"579 211 OFFCURVE",
"497 8 CURVE",
"527 -10 LINE",
"547 30 OFFCURVE",
"582 46 OFFCURVE",
"616 46 CURVE SMOOTH",
"679 46 OFFCURVE",
"705 -10 OFFCURVE",
"798 -10 CURVE SMOOTH",
"886 -10 OFFCURVE",
"940 41 OFFCURVE",
"940 114 CURVE SMOOTH",
"940 175 OFFCURVE",
"913 212 OFFCURVE",
"846 212 CURVE SMOOTH",
"729 212 OFFCURVE",
"666 73 OFFCURVE",
"666 -100 CURVE"
);
},
{
closed = 1;
nodes = (
"211 45 OFFCURVE",
"179 91 OFFCURVE",
"179 192 CURVE SMOOTH",
"179 319 OFFCURVE",
"231 435 OFFCURVE",
"298 435 CURVE SMOOTH",
"340 435 OFFCURVE",
"372 390 OFFCURVE",
"372 289 CURVE SMOOTH",
"372 162 OFFCURVE",
"320 45 OFFCURVE",
"253 45 CURVE SMOOTH"
);
}
);
width = 979;
}
);
leftKerningGroup = o;
leftMetricsKey = "=d";
rightKerningGroup = n;
rightMetricsKey = "=z";
unicode = 02A5;
},
{
color = 6;
glyphname = e;
layers = (
{
anchors = (
{
name = bottom;
position = "{231, 0}";
},
{
name = ogonek;
position = "{349, 0}";
},
{
name = top;
position = "{291, 460}";
}
);
layerId = "CF31647D-EA7E-42DE-ACE7-E9318D6117AA";
paths = (
{
closed = 1;
nodes = (
"318 -10 OFFCURVE",
"378 50 OFFCURVE",
"409 104 CURVE",
"378 121 LINE",
"350 74 OFFCURVE",
"300 30 OFFCURVE",
"243 30 CURVE SMOOTH",
"177 30 OFFCURVE",
"130 75 OFFCURVE",
"130 188 CURVE SMOOTH",
"130 326 OFFCURVE",
"199 435 OFFCURVE",
"299 435 CURVE SMOOTH",
"339 435 OFFCURVE",
"360 412 OFFCURVE",
"360 376 CURVE SMOOTH",
"360 304 OFFCURVE",
"253 256 OFFCURVE",
"120 244 CURVE",
"120 212 LINE",
"289 224 OFFCURVE",
"442 288 OFFCURVE",
"442 381 CURVE SMOOTH",
"442 447 OFFCURVE",
"376 470 OFFCURVE",
"310 470 CURVE SMOOTH",
"162 470 OFFCURVE",
"48 352 OFFCURVE",
"48 190 CURVE SMOOTH",
"48 64 OFFCURVE",
"117 -10 OFFCURVE",
"227 -10 CURVE SMOOTH"
);
}
);
width = 457;
},
{
anchors = (
{
name = bottom;
position = "{242, 0}";
},
{
name = ogonek;
position = "{374, 0}";
},
{
name = top;
position = "{310, 480}";
}
);
background = {
components = (
{
name = o;
}
);
};
layerId = "37DD2CA1-C758-4BBE-932B-6884A881B1A3";
paths = (
{
closed = 1;
nodes = (
"341 -10 OFFCURVE",
"415 35 OFFCURVE",
"458 106 CURVE",
"428 124 LINE",
"390 69 OFFCURVE",
"337 40 OFFCURVE",
"293 40 CURVE SMOOTH",
"237 40 OFFCURVE",
"178 86 OFFCURVE",
"178 195 CURVE SMOOTH",
"178 291 OFFCURVE",
"223 455 OFFCURVE",
"308 455 CURVE SMOOTH",
"335 455 OFFCURVE",
"353 439 OFFCURVE",
"353 396 CURVE SMOOTH",
"353 343 OFFCURVE",
"325 263 OFFCURVE",
"159 249 CURVE",
"159 216 LINE",
"382 238 OFFCURVE",
"493 293 OFFCURVE",
"493 390 CURVE SMOOTH",
"493 466 OFFCURVE",
"407 490 OFFCURVE",
"328 490 CURVE SMOOTH",
"157 490 OFFCURVE",
"28 378 OFFCURVE",
"28 205 CURVE SMOOTH",
"28 51 OFFCURVE",
"130 -10 OFFCURVE",
"243 -10 CURVE SMOOTH"
);
}
);
width = 495;
}
);
leftKerningGroup = o;
leftMetricsKey = "=o";
rightKerningGroup = o;
rightMetricsKey = "=o*0.6";
unicode = 0065;
},
{
color = 3;
glyphname = eogonek;
layers = (
{
components = (
{
name = e;
}
);
layerId = "CF31647D-EA7E-42DE-ACE7-E9318D6117AA";
paths = (
{
closed = 1;
nodes = (
"205 -10 OFFCURVE",
"123 -65 OFFCURVE",
"123 -156 CURVE SMOOTH",
"123 -218 OFFCURVE",
"161 -250 OFFCURVE",
"221 -250 CURVE SMOOTH",
"266 -250 OFFCURVE",
"302 -232 OFFCURVE",
"342 -190 CURVE",
"319 -167 LINE",
"292 -192 OFFCURVE",
"268 -200 OFFCURVE",
"249 -200 CURVE SMOOTH",
"219 -200 OFFCURVE",
"204 -181 OFFCURVE",
"204 -146 CURVE SMOOTH",
"204 -90 OFFCURVE",
"243 -22 OFFCURVE",
"339 26 CURVE",
"327 39 LINE"
);
}
);
width = 457;
},
{
components = (
{
name = e;
}
);
layerId = "37DD2CA1-C758-4BBE-932B-6884A881B1A3";
paths = (
{
closed = 1;
nodes = (
"206 1 OFFCURVE",
"117 -67 OFFCURVE",
"117 -162 CURVE SMOOTH",
"117 -218 OFFCURVE",
"156 -250 OFFCURVE",
"227 -250 CURVE SMOOTH",
"286 -250 OFFCURVE",
"324 -228 OFFCURVE",
"368 -180 CURVE",
"344 -157 LINE",
"316 -183 OFFCURVE",
"295 -190 OFFCURVE",
"275 -190 CURVE SMOOTH",
"251 -190 OFFCURVE",
"234 -180 OFFCURVE",
"234 -149 CURVE SMOOTH",
"234 -94 OFFCURVE",
"271 -29 OFFCURVE",
"368 25 CURVE",
"360 40 LINE"
);
}
);
width = 495;
}
);
leftKerningGroup = o;
leftMetricsKey = "=e";
rightKerningGroup = o;
rightMetricsKey = "=e";
unicode = 0119;
},
{
color = 6;
glyphname = eopen;
layers = (
{
layerId = "CF31647D-EA7E-42DE-ACE7-E9318D6117AA";
paths = (
{
closed = 1;
nodes = (
"103 225 OFFCURVE",
"33 170 OFFCURVE",
"33 101 CURVE SMOOTH",
"33 23 OFFCURVE",
"123 -10 OFFCURVE",
"194 -10 CURVE SMOOTH",
"295 -10 OFFCURVE",
"393 56 OFFCURVE",
"393 121 CURVE SMOOTH",
"393 146 OFFCURVE",
"375 167 OFFCURVE",
"345 167 CURVE SMOOTH",
"312 167 OFFCURVE",
"288 144 OFFCURVE",
"288 116 CURVE SMOOTH",
"288 94 OFFCURVE",
"303 73 OFFCURVE",
"331 70 CURVE",
"304 44 OFFCURVE",
"260 30 OFFCURVE",
"216 30 CURVE SMOOTH",
"150 30 OFFCURVE",
"121 61 OFFCURVE",
"121 106 CURVE SMOOTH",
"121 172 OFFCURVE",
"185 219 OFFCURVE",
"289 219 CURVE",
"294 254 LINE",
"222 254 OFFCURVE",
"175 282 OFFCURVE",
"175 345 CURVE SMOOTH",
"175 400 OFFCURVE",
"211 435 OFFCURVE",
"270 435 CURVE SMOOTH",
"316 435 OFFCURVE",
"355 414 OFFCURVE",
"391 357 CURVE",
"420 376 LINE",
"395 437 OFFCURVE",
"337 470 OFFCURVE",
"266 470 CURVE SMOOTH",
"169 470 OFFCURVE",
"87 407 OFFCURVE",
"87 337 CURVE SMOOTH",
"87 285 OFFCURVE",
"131 253 OFFCURVE",
"191 239 CURVE"
);
}
);
width = 439;
},
{
layerId = "37DD2CA1-C758-4BBE-932B-6884A881B1A3";
paths = (
{
closed = 1;
nodes = (
"74 240 OFFCURVE",
"14 186 OFFCURVE",
"14 116 CURVE SMOOTH",
"14 17 OFFCURVE",
"136 -10 OFFCURVE",
"212 -10 CURVE SMOOTH",
"335 -10 OFFCURVE",
"448 62 OFFCURVE",
"448 135 CURVE SMOOTH",
"448 170 OFFCURVE",
"422 200 OFFCURVE",
"379 200 CURVE SMOOTH",
"335 200 OFFCURVE",
"297 166 OFFCURVE",
"297 125 CURVE SMOOTH",
"297 92 OFFCURVE",
"322 62 OFFCURVE",
"359 66 CURVE",
"332 49 OFFCURVE",
"295 40 OFFCURVE",
"260 40 CURVE SMOOTH",
"199 40 OFFCURVE",
"164 67 OFFCURVE",
"164 117 CURVE SMOOTH",
"164 180 OFFCURVE",
"218 236 OFFCURVE",
"303 236 CURVE",
"308 271 LINE",
"254 271 OFFCURVE",
"207 304 OFFCURVE",
"207 357 CURVE SMOOTH",
"207 408 OFFCURVE",
"250 445 OFFCURVE",
"312 445 CURVE SMOOTH",
"366 445 OFFCURVE",
"414 418 OFFCURVE",
"441 383 CURVE",
"470 406 LINE",
"434 459 OFFCURVE",
"390 490 OFFCURVE",
"297 490 CURVE SMOOTH",
"163 490 OFFCURVE",
"65 426 OFFCURVE",
"65 348 CURVE SMOOTH",
"65 294 OFFCURVE",
"111 269 OFFCURVE",
"174 256 CURVE"
);
}
);
width = 481;
}
);
leftKerningGroup = o;
leftMetricsKey = "=c";
rightKerningGroup = o;
rightMetricsKey = "=c";
unicode = 025B;
},
{
color = 6;
glyphname = eopenreversed;
layers = (
{
layerId = "CF31647D-EA7E-42DE-ACE7-E9318D6117AA";
paths = (
{
closed = 1;
nodes = (
"330 257 OFFCURVE",
"385 298 OFFCURVE",
"385 361 CURVE SMOOTH",
"385 439 OFFCURVE",
"303 470 OFFCURVE",
"237 470 CURVE SMOOTH",
"168 470 OFFCURVE",
"102 436 OFFCURVE",
"60 376 CURVE",
"84 357 LINE",
"136 414 OFFCURVE",
"181 435 OFFCURVE",
"223 435 CURVE SMOOTH",
"270 435 OFFCURVE",
"297 407 OFFCURVE",
"297 361 CURVE SMOOTH",
"297 294 OFFCURVE",
"239 254 OFFCURVE",
"152 254 CURVE",
"147 219 LINE",
"255 219 OFFCURVE",
"286 176 OFFCURVE",
"286 129 CURVE SMOOTH",
"286 77 OFFCURVE",
"248 30 OFFCURVE",
"165 30 CURVE SMOOTH",
"123 30 OFFCURVE",
"83 44 OFFCURVE",
"63 70 CURVE",
"97 68 OFFCURVE",
"119 95 OFFCURVE",
"119 123 CURVE SMOOTH",
"119 150 OFFCURVE",
"97 167 OFFCURVE",
"72 167 CURVE SMOOTH",
"37 167 OFFCURVE",
"13 135 OFFCURVE",
"13 103 CURVE SMOOTH",
"13 45 OFFCURVE",
"82 -10 OFFCURVE",
"174 -10 CURVE SMOOTH",
"262 -10 OFFCURVE",
"373 34 OFFCURVE",
"373 127 CURVE SMOOTH",
"373 178 OFFCURVE",
"340 223 OFFCURVE",
"251 239 CURVE"
);
}
);
width = 439;
},
{
layerId = "37DD2CA1-C758-4BBE-932B-6884A881B1A3";
paths = (
{
closed = 1;
nodes = (
"389 271 OFFCURVE",
"449 304 OFFCURVE",
"449 371 CURVE SMOOTH",
"449 471 OFFCURVE",
"318 490 OFFCURVE",
"251 490 CURVE SMOOTH",
"159 490 OFFCURVE",
"106 457 OFFCURVE",
"57 406 CURVE",
"80 383 LINE",
"117 418 OFFCURVE",
"170 445 OFFCURVE",
"226 445 CURVE SMOOTH",
"284 445 OFFCURVE",
"309 417 OFFCURVE",
"309 378 CURVE SMOOTH",
"309 315 OFFCURVE",
"244 271 OFFCURVE",
"181 271 CURVE",
"176 236 LINE",
"267 236 OFFCURVE",
"285 183 OFFCURVE",
"285 144 CURVE SMOOTH",
"285 82 OFFCURVE",
"241 40 OFFCURVE",
"164 40 CURVE SMOOTH",
"129 40 OFFCURVE",
"95 49 OFFCURVE",
"73 66 CURVE",
"117 62 OFFCURVE",
"153 99 OFFCURVE",
"153 139 CURVE SMOOTH",
"153 173 OFFCURVE",
"125 200 OFFCURVE",
"87 200 CURVE SMOOTH",
"39 200 OFFCURVE",
"1 158 OFFCURVE",
"1 115 CURVE SMOOTH",
"1 53 OFFCURVE",
"81 -10 OFFCURVE",
"194 -10 CURVE SMOOTH",
"284 -10 OFFCURVE",
"435 26 OFFCURVE",
"435 146 CURVE SMOOTH",
"435 204 OFFCURVE",
"400 240 OFFCURVE",
"311 256 CURVE"
);
}
);
width = 480;
}
);
leftKerningGroup = o;
rightKerningGroup = o;
unicode = 025C;
},
{
color = 6;
glyphname = eopenreversedclosed;
layers = (
{
anchors = (
{
name = bottom;
position = "{227, 0}";
},
{
name = top;
position = "{291, 460}";
}
);
layerId = "CF31647D-EA7E-42DE-ACE7-E9318D6117AA";
paths = (
{
closed = 1;
nodes = (
"403 258 OFFCURVE",
"447 308 OFFCURVE",
"447 362 CURVE SMOOTH",
"447 435 OFFCURVE",
"366 470 OFFCURVE",
"295 470 CURVE SMOOTH",
"158 470 OFFCURVE",
"47 342 OFFCURVE",
"47 183 CURVE SMOOTH",
"47 63 OFFCURVE",
"111 -10 OFFCURVE",
"226 -10 CURVE SMOOTH",
"334 -10 OFFCURVE",
"435 55 OFFCURVE",
"435 138 CURVE SMOOTH",
"435 184 OFFCURVE",
"403 223 OFFCURVE",
"316 238 CURVE"
);
},
{
closed = 1;
nodes = (
"172 30 OFFCURVE",
"134 87 OFFCURVE",
"134 192 CURVE SMOOTH",
"134 326 OFFCURVE",
"195 435 OFFCURVE",
"288 435 CURVE SMOOTH",
"335 435 OFFCURVE",
"361 408 OFFCURVE",
"361 363 CURVE SMOOTH",
"361 300 OFFCURVE",
"311 255 OFFCURVE",
"236 255 CURVE",
"231 220 LINE",
"320 220 OFFCURVE",
"350 182 OFFCURVE",
"350 139 CURVE SMOOTH",
"350 81 OFFCURVE",
"291 30 OFFCURVE",
"233 30 CURVE SMOOTH"
);
}
);
width = 499;
},
{
anchors = (
{
name = bottom;
position = "{236, 0}";
},
{
name = top;
position = "{303, 480}";
}
);
layerId = "37DD2CA1-C758-4BBE-932B-6884A881B1A3";
paths = (
{
closed = 1;
nodes = (
"459 265 OFFCURVE",
"512 313 OFFCURVE",
"512 376 CURVE SMOOTH",
"512 470 OFFCURVE",
"394 490 OFFCURVE",
"326 490 CURVE SMOOTH",
"151 490 OFFCURVE",
"28 359 OFFCURVE",
"28 205 CURVE SMOOTH",
"28 62 OFFCURVE",
"133 -10 OFFCURVE",
"246 -10 CURVE SMOOTH",
"326 -10 OFFCURVE",
"498 26 OFFCURVE",
"498 142 CURVE SMOOTH",
"498 200 OFFCURVE",
"456 232 OFFCURVE",
"366 246 CURVE"
);
},
{
closed = 1;
nodes = (
"196 40 OFFCURVE",
"181 92 OFFCURVE",
"181 178 CURVE SMOOTH",
"181 336 OFFCURVE",
"232 455 OFFCURVE",
"312 455 CURVE SMOOTH",
"353 455 OFFCURVE",
"368 423 OFFCURVE",
"368 388 CURVE SMOOTH",
"368 315 OFFCURVE",
"304 261 OFFCURVE",
"249 261 CURVE",
"244 226 LINE",
"325 226 OFFCURVE",
"343 185 OFFCURVE",
"343 146 CURVE SMOOTH",
"343 88 OFFCURVE",
"303 40 OFFCURVE",
"251 40 CURVE SMOOTH"
);
}
);
width = 543;
}
);
leftKerningGroup = o;
leftMetricsKey = "=o";
rightKerningGroup = o;
rightMetricsKey = "=o";
unicode = 025E;
},
{
color = 3;
glyphname = eopenreversedhook;
layers = (
{
components = (
{
name = eopenreversed;
}
);
layerId = "CF31647D-EA7E-42DE-ACE7-E9318D6117AA";
paths = (
{
closed = 1;
nodes = (
"565 445 OFFCURVE",
"571 418 OFFCURVE",
"571 397 CURVE SMOOTH",
"571 356 OFFCURVE",
"550 344 OFFCURVE",
"530 344 CURVE SMOOTH",
"496 344 OFFCURVE",
"473 378 OFFCURVE",
"457 438 CURVE",
"360 402 LINE",
"360 362 LINE",
"409 380 LINE",
"424 326 OFFCURVE",
"460 279 OFFCURVE",
"514 279 CURVE SMOOTH",
"567 279 OFFCURVE",
"611 326 OFFCURVE",
"611 392 CURVE SMOOTH",
"611 424 OFFCURVE",
"601 453 OFFCURVE",
"581 483 CURVE",
"548 471 LINE"
);
}
);
width = 595;
},
{
components = (
{
name = eopenreversed;
}
);
layerId = "37DD2CA1-C758-4BBE-932B-6884A881B1A3";
paths = (
{
closed = 1;
nodes = (
"621 484 OFFCURVE",
"627 457 OFFCURVE",
"627 436 CURVE SMOOTH",
"627 395 OFFCURVE",
"606 383 OFFCURVE",
"586 383 CURVE SMOOTH",
"552 383 OFFCURVE",
"530 417 OFFCURVE",
"514 477 CURVE",
"416 441 LINE",
"416 401 LINE",
"465 419 LINE",
"480 365 OFFCURVE",
"517 318 OFFCURVE",
"570 318 CURVE SMOOTH",
"623 318 OFFCURVE",
"667 365 OFFCURVE",
"667 431 CURVE SMOOTH",
"667 463 OFFCURVE",
"657 492 OFFCURVE",
"637 522 CURVE",
"604 510 LINE"
);
}
);
width = 647;
}
);
leftKerningGroup = o;
leftMetricsKey = "=|c";
rightKerningGroup = o;
rightMetricsKey = "=r";
unicode = 025D;
},
{
color = 6;
glyphname = esh;
layers = (
{
anchors = (
{
name = bottom;
position = "{128, 0}";
},
{
name = top;
position = "{193, 460}";
}
);
layerId = "CF31647D-EA7E-42DE-ACE7-E9318D6117AA";
paths = (
{
closed = 1;
nodes = (
"229 740 OFFCURVE",
"169 649 OFFCURVE",
"154 544 CURVE SMOOTH",
"67 -80 LINE SMOOTH",
"58 -148 OFFCURVE",
"38 -230 OFFCURVE",
"-23 -230 CURVE SMOOTH",
"-41 -230 OFFCURVE",
"-53 -223 OFFCURVE",
"-60 -214 CURVE",
"-31 -213 OFFCURVE",
"-5 -190 OFFCURVE",
"-5 -161 CURVE SMOOTH",
"-5 -137 OFFCURVE",
"-23 -118 OFFCURVE",
"-49 -118 CURVE SMOOTH",
"-80 -118 OFFCURVE",
"-107 -147 OFFCURVE",
"-107 -183 CURVE SMOOTH",
"-107 -212 OFFCURVE",
"-90 -260 OFFCURVE",
"-25 -260 CURVE SMOOTH",
"74 -260 OFFCURVE",
"134 -169 OFFCURVE",
"149 -64 CURVE SMOOTH",
"237 560 LINE SMOOTH",
"246 626 OFFCURVE",
"266 710 OFFCURVE",
"327 710 CURVE SMOOTH",
"344 710 OFFCURVE",
"357 703 OFFCURVE",
"363 694 CURVE",
"337 693 OFFCURVE",
"309 672 OFFCURVE",
"309 641 CURVE SMOOTH",
"309 616 OFFCURVE",
"327 598 OFFCURVE",
"352 598 CURVE SMOOTH",
"384 598 OFFCURVE",
"410 628 OFFCURVE",
"410 663 CURVE SMOOTH",
"410 693 OFFCURVE",
"393 740 OFFCURVE",
"328 740 CURVE SMOOTH"
);
}
);
width = 300;
},
{
anchors = (
{
name = bottom;
position = "{139, 0}";
},
{
name = top;
position = "{206, 480}";
}
);
layerId = "37DD2CA1-C758-4BBE-932B-6884A881B1A3";
paths = (
{
closed = 1;
nodes = (
"219 740 OFFCURVE",
"140 649 OFFCURVE",
"125 544 CURVE SMOOTH",
"49 0 LINE",
"105 -90 OFFCURVE",
"65 -225 OFFCURVE",
"-9 -225 CURVE SMOOTH",
"-14 -225 OFFCURVE",
"-19 -224 OFFCURVE",
"-24 -223 CURVE",
"3 -213 OFFCURVE",
"21 -186 OFFCURVE",
"21 -159 CURVE SMOOTH",
"21 -129 OFFCURVE",
"-3 -103 OFFCURVE",
"-36 -103 CURVE SMOOTH",
"-71 -103 OFFCURVE",
"-111 -134 OFFCURVE",
"-111 -182 CURVE SMOOTH",
"-111 -221 OFFCURVE",
"-86 -260 OFFCURVE",
"-13 -260 CURVE SMOOTH",
"96 -260 OFFCURVE",
"175 -169 OFFCURVE",
"190 -64 CURVE SMOOTH",
"266 480 LINE",
"210 570 OFFCURVE",
"250 705 OFFCURVE",
"324 705 CURVE SMOOTH",
"328 705 OFFCURVE",
"334 704 OFFCURVE",
"338 703 CURVE",
"312 693 OFFCURVE",
"294 666 OFFCURVE",
"294 639 CURVE SMOOTH",
"294 608 OFFCURVE",
"318 583 OFFCURVE",
"351 583 CURVE SMOOTH",
"386 583 OFFCURVE",
"426 614 OFFCURVE",
"426 662 CURVE SMOOTH",
"426 701 OFFCURVE",
"401 740 OFFCURVE",
"328 740 CURVE SMOOTH"
);
}
);
width = 315;
}
);
leftKerningGroup = l;
leftMetricsKey = "=|f";
rightKerningGroup = f;
rightMetricsKey = "=f";
unicode = 0283;
},
{
color = 6;
glyphname = schwa;
layers = (
{
anchors = (
{
name = bottom;
position = "{166, 0}";
},
{
name = ogonek;
position = "{108, 460}";
},
{
name = top;
position = "{226, 460}";
}
);
layerId = "CF31647D-EA7E-42DE-ACE7-E9318D6117AA";
paths = (
{
closed = 1;
nodes = (
"139 470 OFFCURVE",
"79 410 OFFCURVE",
"48 356 CURVE",
"79 339 LINE",
"107 386 OFFCURVE",
"157 430 OFFCURVE",
"214 430 CURVE SMOOTH",
"280 430 OFFCURVE",
"327 385 OFFCURVE",
"327 272 CURVE SMOOTH",
"327 134 OFFCURVE",
"258 25 OFFCURVE",
"158 25 CURVE SMOOTH",
"118 25 OFFCURVE",
"97 48 OFFCURVE",
"97 84 CURVE SMOOTH",
"97 156 OFFCURVE",
"204 204 OFFCURVE",
"337 216 CURVE",
"337 248 LINE",
"168 236 OFFCURVE",
"15 172 OFFCURVE",
"15 79 CURVE SMOOTH",
"15 13 OFFCURVE",
"81 -10 OFFCURVE",
"147 -10 CURVE SMOOTH",
"295 -10 OFFCURVE",
"409 108 OFFCURVE",
"409 270 CURVE SMOOTH",
"409 396 OFFCURVE",
"340 470 OFFCURVE",
"230 470 CURVE SMOOTH"
);
}
);
width = 457;
},
{
anchors = (
{
name = bottom;
position = "{185, 0}";
},
{
name = ogonek;
position = "{121, 480}";
},
{
name = top;
position = "{253, 480}";
}
);
layerId = "37DD2CA1-C758-4BBE-932B-6884A881B1A3";
paths = (
{
closed = 1;
nodes = (
"154 490 OFFCURVE",
"80 445 OFFCURVE",
"37 374 CURVE",
"67 356 LINE",
"105 411 OFFCURVE",
"158 440 OFFCURVE",
"202 440 CURVE SMOOTH",
"258 440 OFFCURVE",
"317 394 OFFCURVE",
"317 285 CURVE SMOOTH",
"317 189 OFFCURVE",
"272 25 OFFCURVE",
"187 25 CURVE SMOOTH",
"160 25 OFFCURVE",
"142 41 OFFCURVE",
"142 84 CURVE SMOOTH",
"142 137 OFFCURVE",
"170 217 OFFCURVE",
"336 231 CURVE",
"336 264 LINE",
"113 242 OFFCURVE",
"2 187 OFFCURVE",
"2 90 CURVE SMOOTH",
"2 14 OFFCURVE",
"88 -10 OFFCURVE",
"167 -10 CURVE SMOOTH",
"338 -10 OFFCURVE",
"467 102 OFFCURVE",
"467 275 CURVE SMOOTH",
"467 429 OFFCURVE",
"365 490 OFFCURVE",
"252 490 CURVE SMOOTH"
);
}
);
width = 495;
}
);
leftKerningGroup = o;
rightKerningGroup = o;
unicode = 0259;
},
{
color = 6;
glyphname = schwahook;
layers = (
{
anchors = (
{
name = bottom;
position = "{301, 0}";
},
{
name = ogonek;
position = "{143, 460}";
},
{
name = top;
position = "{301, 460}";
}
);
layerId = "CF31647D-EA7E-42DE-ACE7-E9318D6117AA";
paths = (
{
closed = 1;
nodes = (
"611 288 OFFCURVE",
"617 261 OFFCURVE",
"617 240 CURVE SMOOTH",
"617 199 OFFCURVE",
"596 187 OFFCURVE",
"576 187 CURVE SMOOTH",
"542 187 OFFCURVE",
"519 221 OFFCURVE",
"503 281 CURVE",
"397 250 LINE",
"397 210 LINE",
"455 223 LINE",
"470 169 OFFCURVE",
"506 122 OFFCURVE",
"560 122 CURVE SMOOTH",
"613 122 OFFCURVE",
"657 169 OFFCURVE",
"657 235 CURVE SMOOTH",
"657 267 OFFCURVE",
"647 296 OFFCURVE",
"627 326 CURVE",
"594 314 LINE"
);
},
{
closed = 1;
nodes = (
"159 470 OFFCURVE",
"99 410 OFFCURVE",
"68 356 CURVE",
"99 339 LINE",
"127 386 OFFCURVE",
"177 430 OFFCURVE",
"234 430 CURVE SMOOTH",
"300 430 OFFCURVE",
"347 385 OFFCURVE",
"347 272 CURVE SMOOTH",
"347 134 OFFCURVE",
"278 25 OFFCURVE",
"178 25 CURVE SMOOTH",
"138 25 OFFCURVE",
"117 48 OFFCURVE",
"117 84 CURVE SMOOTH",
"117 156 OFFCURVE",
"224 204 OFFCURVE",
"357 216 CURVE",
"357 248 LINE",
"188 236 OFFCURVE",
"35 172 OFFCURVE",
"35 79 CURVE SMOOTH",
"35 13 OFFCURVE",
"101 -10 OFFCURVE",
"167 -10 CURVE SMOOTH",
"315 -10 OFFCURVE",
"429 108 OFFCURVE",
"429 270 CURVE SMOOTH",
"429 396 OFFCURVE",
"360 470 OFFCURVE",
"250 470 CURVE SMOOTH"
);
}
);
width = 708;
},
{
anchors = (
{
name = bottom;
position = "{238, 0}";
},
{
name = ogonek;
position = "{50, 480}";
},
{
name = top;
position = "{238, 480}";
}
);
layerId = "37DD2CA1-C758-4BBE-932B-6884A881B1A3";
paths = (
{
closed = 1;
nodes = (
"655 360 OFFCURVE",
"661 333 OFFCURVE",
"661 312 CURVE SMOOTH",
"661 271 OFFCURVE",
"640 259 OFFCURVE",
"620 259 CURVE SMOOTH",
"586 259 OFFCURVE",
"563 293 OFFCURVE",
"547 353 CURVE",
"450 321 LINE",
"450 281 LINE",
"499 295 LINE",
"514 241 OFFCURVE",
"550 194 OFFCURVE",
"604 194 CURVE SMOOTH",
"657 194 OFFCURVE",
"701 241 OFFCURVE",
"701 307 CURVE SMOOTH",
"701 339 OFFCURVE",
"691 368 OFFCURVE",
"671 398 CURVE",
"638 386 LINE"
);
},
{
closed = 1;
nodes = (
"166 490 OFFCURVE",
"92 445 OFFCURVE",
"49 374 CURVE",
"79 356 LINE",
"117 411 OFFCURVE",
"170 440 OFFCURVE",
"214 440 CURVE SMOOTH",
"270 440 OFFCURVE",
"329 394 OFFCURVE",
"329 285 CURVE SMOOTH",
"329 189 OFFCURVE",
"284 25 OFFCURVE",
"199 25 CURVE SMOOTH",
"172 25 OFFCURVE",
"154 41 OFFCURVE",
"154 84 CURVE SMOOTH",
"154 137 OFFCURVE",
"182 217 OFFCURVE",
"348 231 CURVE",
"348 264 LINE",
"125 242 OFFCURVE",
"14 187 OFFCURVE",
"14 90 CURVE SMOOTH",
"14 14 OFFCURVE",
"100 -10 OFFCURVE",
"179 -10 CURVE SMOOTH",
"350 -10 OFFCURVE",
"479 102 OFFCURVE",
"479 275 CURVE SMOOTH",
"479 429 OFFCURVE",
"377 490 OFFCURVE",
"264 490 CURVE SMOOTH"
);
}
);
width = 723;
}
);
leftKerningGroup = o;
leftMetricsKey = "=o";
rightKerningGroup = o;
rightMetricsKey = "=o";
unicode = 025A;
},
{
color = 6;
glyphname = ezh;
layers = (
{
anchors = (
{
name = bottom;
position = "{201, 0}";
},
{
name = top;
position = "{266, 460}";
}
);
layerId = "CF31647D-EA7E-42DE-ACE7-E9318D6117AA";
paths = (
{
closed = 1;
nodes = (
"445 435 LINE",
"449 460 LINE",
"89 460 LINE",
"37 320 LINE",
"69 310 LINE",
"116 425 OFFCURVE",
"157 425 OFFCURVE",
"239 425 CURVE SMOOTH",
"334 425 LINE",
"339 420 LINE",
"114 158 LINE",
"110 133 LINE",
"246 133 OFFCURVE",
"302 68 OFFCURVE",
"302 -15 CURVE SMOOTH",
"302 -124 OFFCURVE",
"217 -220 OFFCURVE",
"122 -220 CURVE SMOOTH",
"63 -220 OFFCURVE",
"18 -186 OFFCURVE",
"-16 -143 CURVE",
"-46 -166 LINE",
"-13 -216 OFFCURVE",
"44 -260 OFFCURVE",
"129 -260 CURVE SMOOTH",
"266 -260 OFFCURVE",
"389 -144 OFFCURVE",
"389 -14 CURVE SMOOTH",
"389 80 OFFCURVE",
"321 146 OFFCURVE",
"211 165 CURVE"
);
}
);
width = 445;
},
{
anchors = (
{
name = bottom;
position = "{241, 0}";
},
{
name = top;
position = "{308, 480}";
}
);
layerId = "37DD2CA1-C758-4BBE-932B-6884A881B1A3";
paths = (
{
closed = 1;
nodes = (
"507 445 LINE",
"512 480 LINE",
"102 480 LINE",
"43 320 LINE",
"74 310 LINE",
"145 445 OFFCURVE",
"227 445 OFFCURVE",
"272 445 CURVE SMOOTH",
"323 445 LINE",
"333 435 LINE",
"123 181 LINE",
"119 151 LINE",
"261 151 OFFCURVE",
"287 63 OFFCURVE",
"287 -2 CURVE SMOOTH",
"287 -120 OFFCURVE",
"217 -210 OFFCURVE",
"126 -210 CURVE SMOOTH",
"67 -210 OFFCURVE",
"13 -172 OFFCURVE",
"-18 -133 CURVE",
"-48 -156 LINE",
"-15 -205 OFFCURVE",
"38 -260 OFFCURVE",
"150 -260 CURVE SMOOTH",
"312 -260 OFFCURVE",
"446 -150 OFFCURVE",
"446 -15 CURVE SMOOTH",
"446 54 OFFCURVE",
"410 130 OFFCURVE",
"281 164 CURVE"
);
}
);
width = 504;
}
);
leftKerningGroup = n;
rightKerningGroup = n;
unicode = 0292;
},
{
color = 6;
glyphname = f;
layers = (
{
guideLines = (
{
angle = 270;
position = "{337, 30}";
},
{
angle = 83.9612;
position = "{177, 170}";
}
);
layerId = "CF31647D-EA7E-42DE-ACE7-E9318D6117AA";
paths = (
{
closed = 1;
nodes = (
"71 -260 OFFCURVE",
"137 -205 OFFCURVE",
"152 -63 CURVE SMOOTH",
"203 420 LINE",
"209 425 LINE",
"123 425 LINE",
"127 420 LINE",
"74 -81 LINE SMOOTH",
"62 -198 OFFCURVE",
"18 -225 OFFCURVE",
"-15 -225 CURVE SMOOTH",
"-39 -225 OFFCURVE",
"-63 -208 OFFCURVE",
"-64 -179 CURVE",
"-93 -177 LINE",
"-93 -192 OFFCURVE",
"-83 -215 OFFCURVE",
"-58 -215 CURVE SMOOTH",
"-31 -215 OFFCURVE",
"-8 -186 OFFCURVE",
"-8 -156 CURVE SMOOTH",
"-8 -130 OFFCURVE",
"-24 -111 OFFCURVE",
"-50 -111 CURVE SMOOTH",
"-81 -111 OFFCURVE",
"-101 -138 OFFCURVE",
"-101 -171 CURVE SMOOTH",
"-101 -214 OFFCURVE",
"-75 -260 OFFCURVE",
"-8 -260 CURVE SMOOTH"
);
},
{
closed = 1;
nodes = (
"338 425 LINE",
"341 460 LINE",
"52 460 LINE",
"49 425 LINE"
);
},
{
closed = 1;
nodes = (
"208 460 LINE",
"219 560 LINE SMOOTH",
"232 677 OFFCURVE",
"274 705 OFFCURVE",
"307 705 CURVE SMOOTH",
"331 705 OFFCURVE",
"355 687 OFFCURVE",
"356 658 CURVE",
"384 657 LINE",
"384 673 OFFCURVE",
"374 695 OFFCURVE",
"350 695 CURVE SMOOTH",
"322 695 OFFCURVE",
"299 666 OFFCURVE",
"299 636 CURVE SMOOTH",
"299 610 OFFCURVE",
"315 591 OFFCURVE",
"341 591 CURVE SMOOTH",
"372 591 OFFCURVE",
"392 619 OFFCURVE",
"392 652 CURVE SMOOTH",
"392 689 OFFCURVE",
"369 740 OFFCURVE",
"299 740 CURVE SMOOTH",
"223 740 OFFCURVE",
"156 688 OFFCURVE",
"141 544 CURVE SMOOTH",
"132 460 LINE"
);
}
);
width = 283;
},
{
layerId = "37DD2CA1-C758-4BBE-932B-6884A881B1A3";
paths = (
{
closed = 1;
nodes = (
"81 -260 OFFCURVE",
"168 -208 OFFCURVE",
"183 -64 CURVE SMOOTH",
"235 435 LINE",
"245 445 LINE",
"89 445 LINE",
"99 435 LINE",
"53 0 LINE",
"87 -96 OFFCURVE",
"63 -225 OFFCURVE",
"-23 -225 CURVE SMOOTH",
"-56 -225 OFFCURVE",
"-85 -197 OFFCURVE",
"-86 -174 CURVE",
"-108 -174 LINE",
"-107 -196 OFFCURVE",
"-92 -228 OFFCURVE",
"-58 -228 CURVE SMOOTH",
"-23 -228 OFFCURVE",
"9 -191 OFFCURVE",
"9 -152 CURVE SMOOTH",
"9 -117 OFFCURVE",
"-18 -88 OFFCURVE",
"-50 -88 CURVE SMOOTH",
"-87 -88 OFFCURVE",
"-117 -123 OFFCURVE",
"-117 -167 CURVE SMOOTH",
"-117 -210 OFFCURVE",
"-84 -260 OFFCURVE",
"-3 -260 CURVE SMOOTH"
);
},
{
closed = 1;
nodes = (
"342 445 LINE",
"346 480 LINE",
"45 480 LINE",
"41 445 LINE"
);
},
{
closed = 1;
nodes = (
"238 464 LINE",
"240 480 LINE",
"206 576 OFFCURVE",
"230 705 OFFCURVE",
"316 705 CURVE SMOOTH",
"349 705 OFFCURVE",
"378 677 OFFCURVE",
"379 654 CURVE",
"401 654 LINE",
"400 676 OFFCURVE",
"385 708 OFFCURVE",
"351 708 CURVE SMOOTH",
"316 708 OFFCURVE",
"284 671 OFFCURVE",
"284 632 CURVE SMOOTH",
"284 597 OFFCURVE",
"311 568 OFFCURVE",
"343 568 CURVE SMOOTH",
"380 568 OFFCURVE",
"410 603 OFFCURVE",
"410 647 CURVE SMOOTH",
"410 690 OFFCURVE",
"377 740 OFFCURVE",
"296 740 CURVE SMOOTH",
"212 740 OFFCURVE",
"130 688 OFFCURVE",
"112 544 CURVE SMOOTH",
"102 464 LINE"
);
}
);
width = 301;
}
);
leftKerningGroup = l;
rightKerningGroup = f;
unicode = 0066;
},
{
color = 6;
glyphname = g;
layers = (
{
anchors = (
{
name = bottom;
position = "{220, 0}";
},
{
name = top;
position = "{294, 460}";
}
);
guideLines = (
{
angle = 81.9953;
position = "{378, 227}";
}
);
layerId = "CF31647D-EA7E-42DE-ACE7-E9318D6117AA";
paths = (
{
closed = 1;
nodes = (
"13 -215 OFFCURVE",
"78 -260 OFFCURVE",
"170 -260 CURVE SMOOTH",
"318 -260 OFFCURVE",
"402 -144 OFFCURVE",
"421 -9 CURVE SMOOTH",
"486 460 LINE",
"451 460 LINE",
"404 371 LINE",
"381 445 OFFCURVE",
"324 470 OFFCURVE",
"270 470 CURVE SMOOTH",
"154 470 OFFCURVE",
"48 354 OFFCURVE",
"48 190 CURVE SMOOTH",
"48 62 OFFCURVE",
"113 -10 OFFCURVE",
"210 -10 CURVE SMOOTH",
"272 -10 OFFCURVE",
"325 21 OFFCURVE",
"355 67 CURVE",
"347 6 LINE SMOOTH",
"328 -133 OFFCURVE",
"278 -225 OFFCURVE",
"163 -225 CURVE SMOOTH",
"117 -225 OFFCURVE",
"80 -210 OFFCURVE",
"61 -186 CURVE",
"89 -181 OFFCURVE",
"107 -153 OFFCURVE",
"107 -126 CURVE SMOOTH",
"107 -101 OFFCURVE",
"92 -83 OFFCURVE",
"67 -83 CURVE SMOOTH",
"35 -83 OFFCURVE",
"13 -113 OFFCURVE",
"13 -150 CURVE SMOOTH"
);
},
{
closed = 1;
nodes = (
"133 308 OFFCURVE",
"184 425 OFFCURVE",
"280 425 CURVE SMOOTH",
"341 425 OFFCURVE",
"386 377 OFFCURVE",
"386 274 CURVE SMOOTH",
"386 152 OFFCURVE",
"324 35 OFFCURVE",
"229 35 CURVE SMOOTH",
"167 35 OFFCURVE",
"133 85 OFFCURVE",
"133 185 CURVE SMOOTH"
);
}
);
width = 535;
},
{
associatedMasterId = "CF31647D-EA7E-42DE-ACE7-E9318D6117AA";
layerId = "A6629FD7-C102-4823-9500-E1FB6A2DDD45";
name = "Feb 1 18, 18:48";
paths = (
{
closed = 1;
nodes = (
"131 112 OFFCURVE",
"156 129 OFFCURVE",
"171 137 CURVE",
"209 119 OFFCURVE",
"249 112 OFFCURVE",
"277 112 CURVE",
"420 112 OFFCURVE",
"491 218 OFFCURVE",
"491 286 CURVE",
"491 364 OFFCURVE",
"448 413 OFFCURVE",
"403 443 CURVE",
"454 502 OFFCURVE",
"486 473 OFFCURVE",
"486 473 CURVE",
"467 444 OFFCURVE",
"500 435 OFFCURVE",
"500 435 CURVE",
"525 435 OFFCURVE",
"526 460 OFFCURVE",
"526 460 CURVE",
"526 497 OFFCURVE",
"475 498 OFFCURVE",
"475 498 CURVE",
"418 498 OFFCURVE",
"384 469 OFFCURVE",
"372 457 CURVE",
"338 473 OFFCURVE",
"304 479 OFFCURVE",
"283 479 CURVE",
"283 479 OFFCURVE",
"67 481 OFFCURVE",
"67 286 CURVE",
"67 220 OFFCURVE",
"103 178 OFFCURVE",
"146 150 CURVE",
"123 136 OFFCURVE",
"80 100 OFFCURVE",
"80 54 CURVE",
"80 2 OFFCURVE",
"126 -21 OFFCURVE",
"183 -33 CURVE",
"108 -54 OFFCURVE",
"60 -100 OFFCURVE",
"60 -150 CURVE",
"60 -275 OFFCURVE",
"215 -286 OFFCURVE",
"281 -286 CURVE",
"467 -286 OFFCURVE",
"539 -194 OFFCURVE",
"539 -118 CURVE",
"539 92 OFFCURVE",
"131 -38 OFFCURVE",
"131 83 CURVE"
);
},
{
closed = 1;
nodes = (
"336 452 OFFCURVE",
"411 407 OFFCURVE",
"411 288 CURVE",
"411 220 OFFCURVE",
"370 137 OFFCURVE",
"279 137 CURVE",
"239 137 OFFCURVE",
"144 158 OFFCURVE",
"144 286 CURVE",
"144 446 OFFCURVE",
"261 452 OFFCURVE",
"283 452 CURVE"
);
},
{
closed = 1;
nodes = (
"285 -249 OFFCURVE",
"116 -264 OFFCURVE",
"116 -147 CURVE",
"116 -115 OFFCURVE",
"150 -56 OFFCURVE",
"226 -41 CURVE",
"339 -57 OFFCURVE",
"481 -55 OFFCURVE",
"481 -144 CURVE",
"481 -144 OFFCURVE",
"479 -249 OFFCURVE",
"285 -249 CURVE"
);
}
);
width = 600;
},
{
anchors = (
{
name = bottom;
position = "{238, 0}";
},
{
name = top;
position = "{305, 480}";
}
);
guideLines = (
{
angle = 82.0393;
position = "{357, 185}";
}
);
layerId = "37DD2CA1-C758-4BBE-932B-6884A881B1A3";
paths = (
{
closed = 1;
nodes = (
"-19 -186 OFFCURVE",
"32 -260 OFFCURVE",
"176 -260 CURVE SMOOTH",
"367 -260 OFFCURVE",
"449 -130 OFFCURVE",
"467 1 CURVE SMOOTH",
"534 480 LINE",
"439 480 LINE",
"392 392 LINE",
"380 436 OFFCURVE",
"339 490 OFFCURVE",
"262 490 CURVE SMOOTH",
"152 490 OFFCURVE",
"29 378 OFFCURVE",
"29 207 CURVE SMOOTH",
"29 57 OFFCURVE",
"112 -10 OFFCURVE",
"209 -10 CURVE SMOOTH",
"262 -10 OFFCURVE",
"307 15 OFFCURVE",
"338 56 CURVE",
"330 -5 LINE SMOOTH",
"311 -143 OFFCURVE",
"242 -225 OFFCURVE",
"141 -225 CURVE SMOOTH",
"96 -225 OFFCURVE",
"63 -209 OFFCURVE",
"45 -185 CURVE",
"82 -180 OFFCURVE",
"112 -142 OFFCURVE",
"112 -101 CURVE SMOOTH",
"112 -63 OFFCURVE",
"86 -42 OFFCURVE",
"55 -42 CURVE SMOOTH",
"15 -42 OFFCURVE",
"-19 -78 OFFCURVE",
"-19 -127 CURVE SMOOTH"
);
},
{
closed = 1;
nodes = (
"179 319 OFFCURVE",
"231 435 OFFCURVE",
"298 435 CURVE SMOOTH",
"340 435 OFFCURVE",
"372 390 OFFCURVE",
"372 289 CURVE SMOOTH",
"372 162 OFFCURVE",
"320 45 OFFCURVE",
"253 45 CURVE SMOOTH",
"211 45 OFFCURVE",
"179 91 OFFCURVE",
"179 192 CURVE SMOOTH"
);
}
);
width = 575;
}
);
leftKerningGroup = o;
leftMetricsKey = "=o";
rightKerningGroup = n;
rightMetricsKey = "=jdotless";
unicode = 0067;
},
{
color = 6;
glyphname = "gamma-latin";
layers = (
{
anchors = (
{
name = bottom;
position = "{223, 0}";
},
{
name = top;
position = "{288, 460}";
}
);
layerId = "CF31647D-EA7E-42DE-ACE7-E9318D6117AA";
paths = (
{
closed = 1;
nodes = (
"282 -260 OFFCURVE",
"356 -184 OFFCURVE",
"356 -79 CURVE SMOOTH",
"356 14 OFFCURVE",
"304 116 OFFCURVE",
"185 420 CURVE",
"191 425 LINE",
"256 425 LINE",
"261 460 LINE",
"35 460 LINE",
"30 425 LINE",
"100 425 LINE",
"227 107 OFFCURVE",
"285 -9 OFFCURVE",
"285 -91 CURVE SMOOTH",
"285 -154 OFFCURVE",
"252 -220 OFFCURVE",
"187 -220 CURVE SMOOTH",
"145 -220 OFFCURVE",
"116 -197 OFFCURVE",
"116 -148 CURVE SMOOTH",
"116 -56 OFFCURVE",
"178 1 OFFCURVE",
"481 425 CURVE",
"541 425 LINE",
"546 460 LINE",
"364 460 LINE",
"359 425 LINE",
"429 425 LINE",
"433 420 LINE",
"124 -15 OFFCURVE",
"81 -54 OFFCURVE",
"81 -153 CURVE SMOOTH",
"81 -219 OFFCURVE",
"118 -260 OFFCURVE",
"186 -260 CURVE SMOOTH"
);
}
);
width = 514;
},
{
anchors = (
{
name = bottom;
position = "{219, 0}";
},
{
name = top;
position = "{287, 480}";
}
);
layerId = "37DD2CA1-C758-4BBE-932B-6884A881B1A3";
paths = (
{
closed = 1;
nodes = (
"299 -260 OFFCURVE",
"380 -175 OFFCURVE",
"380 -62 CURVE SMOOTH",
"380 24 OFFCURVE",
"335 117 OFFCURVE",
"213 435 CURVE",
"224 445 LINE",
"274 445 LINE",
"279 480 LINE",
"14 480 LINE",
"9 445 LINE",
"59 445 LINE",
"210 51 OFFCURVE",
"245 -33 OFFCURVE",
"245 -101 CURVE SMOOTH",
"245 -154 OFFCURVE",
"214 -215 OFFCURVE",
"157 -215 CURVE SMOOTH",
"120 -215 OFFCURVE",
"97 -189 OFFCURVE",
"97 -146 CURVE SMOOTH",
"97 -46 OFFCURVE",
"204 39 OFFCURVE",
"505 445 CURVE",
"565 445 LINE",
"570 480 LINE",
"381 480 LINE",
"376 445 LINE",
"446 445 LINE",
"455 435 LINE",
"163 49 OFFCURVE",
"62 -45 OFFCURVE",
"62 -152 CURVE SMOOTH",
"62 -206 OFFCURVE",
"90 -260 OFFCURVE",
"179 -260 CURVE SMOOTH"
);
}
);
width = 516;
}
);
leftKerningGroup = n;
leftMetricsKey = "=Ysmall";
rightKerningGroup = n;
rightMetricsKey = "=Ysmall";
unicode = 0263;
},
{
color = 6;
glyphname = ghook;
layers = (
{
anchors = (
{
name = bottom;
position = "{220, 0}";
},
{
name = top;
position = "{294, 460}";
}
);
layerId = "CF31647D-EA7E-42DE-ACE7-E9318D6117AA";
paths = (
{
closed = 1;
nodes = (
"13 -215 OFFCURVE",
"78 -260 OFFCURVE",
"170 -260 CURVE SMOOTH",
"318 -260 OFFCURVE",
"402 -144 OFFCURVE",
"421 -9 CURVE SMOOTH",
"510 631 LINE SMOOTH",
"516 675 OFFCURVE",
"545 695 OFFCURVE",
"575 695 CURVE SMOOTH",
"602 695 OFFCURVE",
"617 678 OFFCURVE",
"632 653 CURVE",
"663 676 LINE",
"645 707 OFFCURVE",
"620 740 OFFCURVE",
"561 740 CURVE SMOOTH",
"505 740 OFFCURVE",
"448 710 OFFCURVE",
"436 625 CURVE SMOOTH",
"402 379 LINE",
"377 447 OFFCURVE",
"322 470 OFFCURVE",
"270 470 CURVE SMOOTH",
"154 470 OFFCURVE",
"48 354 OFFCURVE",
"48 190 CURVE SMOOTH",
"48 62 OFFCURVE",
"113 -10 OFFCURVE",
"210 -10 CURVE SMOOTH",
"272 -10 OFFCURVE",
"325 21 OFFCURVE",
"355 67 CURVE",
"347 6 LINE SMOOTH",
"328 -133 OFFCURVE",
"278 -225 OFFCURVE",
"163 -225 CURVE SMOOTH",
"117 -225 OFFCURVE",
"80 -210 OFFCURVE",
"61 -186 CURVE",
"89 -181 OFFCURVE",
"107 -153 OFFCURVE",
"107 -126 CURVE SMOOTH",
"107 -101 OFFCURVE",
"92 -83 OFFCURVE",
"67 -83 CURVE SMOOTH",
"35 -83 OFFCURVE",
"13 -113 OFFCURVE",
"13 -150 CURVE SMOOTH"
);
},
{
closed = 1;
nodes = (
"133 308 OFFCURVE",
"184 425 OFFCURVE",
"280 425 CURVE SMOOTH",
"341 425 OFFCURVE",
"386 377 OFFCURVE",
"386 274 CURVE SMOOTH",
"386 152 OFFCURVE",
"324 35 OFFCURVE",
"229 35 CURVE SMOOTH",
"167 35 OFFCURVE",
"133 85 OFFCURVE",
"133 185 CURVE SMOOTH"
);
}
);
width = 535;
},
{
anchors = (
{
name = bottom;
position = "{238, 0}";
},
{
name = top;
position = "{305, 480}";
}
);
layerId = "37DD2CA1-C758-4BBE-932B-6884A881B1A3";
paths = (
{
closed = 1;
nodes = (
"-19 -186 OFFCURVE",
"32 -260 OFFCURVE",
"176 -260 CURVE SMOOTH",
"367 -260 OFFCURVE",
"449 -130 OFFCURVE",
"467 1 CURVE SMOOTH",
"551 601 LINE SMOOTH",
"557 645 OFFCURVE",
"592 675 OFFCURVE",
"622 675 CURVE SMOOTH",
"649 675 OFFCURVE",
"674 663 OFFCURVE",
"697 628 CURVE",
"727 651 LINE",
"701 710 OFFCURVE",
"674 740 OFFCURVE",
"595 740 CURVE SMOOTH",
"530 740 OFFCURVE",
"427 716 OFFCURVE",
"411 575 CURVE SMOOTH",
"387 406 LINE",
"371 447 OFFCURVE",
"331 490 OFFCURVE",
"262 490 CURVE SMOOTH",
"152 490 OFFCURVE",
"29 378 OFFCURVE",
"29 207 CURVE SMOOTH",
"29 57 OFFCURVE",
"112 -10 OFFCURVE",
"209 -10 CURVE SMOOTH",
"262 -10 OFFCURVE",
"307 15 OFFCURVE",
"338 56 CURVE",
"330 -5 LINE SMOOTH",
"311 -143 OFFCURVE",
"242 -225 OFFCURVE",
"141 -225 CURVE SMOOTH",
"96 -225 OFFCURVE",
"63 -209 OFFCURVE",
"45 -185 CURVE",
"82 -180 OFFCURVE",
"112 -142 OFFCURVE",
"112 -101 CURVE SMOOTH",
"112 -63 OFFCURVE",
"86 -42 OFFCURVE",
"55 -42 CURVE SMOOTH",
"15 -42 OFFCURVE",
"-19 -78 OFFCURVE",
"-19 -127 CURVE SMOOTH"
);
},
{
closed = 1;
nodes = (
"179 319 OFFCURVE",
"231 435 OFFCURVE",
"298 435 CURVE SMOOTH",
"340 435 OFFCURVE",
"372 390 OFFCURVE",
"372 289 CURVE SMOOTH",
"372 162 OFFCURVE",
"320 45 OFFCURVE",
"253 45 CURVE SMOOTH",
"211 45 OFFCURVE",
"179 91 OFFCURVE",
"179 192 CURVE SMOOTH"
);
}
);
width = 569;
}
);
leftKerningGroup = o;
leftMetricsKey = "=o";
unicode = 0260;
},
{
color = 6;
glyphname = glottalstop;
layers = (
{
layerId = "CF31647D-EA7E-42DE-ACE7-E9318D6117AA";
paths = (
{
closed = 1;
nodes = (
"344 300 OFFCURVE",
"453 421 OFFCURVE",
"453 561 CURVE SMOOTH",
"453 683 OFFCURVE",
"374 740 OFFCURVE",
"276 740 CURVE SMOOTH",
"170 740 OFFCURVE",
"84 675 OFFCURVE",
"84 608 CURVE SMOOTH",
"84 577 OFFCURVE",
"102 560 OFFCURVE",
"127 560 CURVE SMOOTH",
"154 560 OFFCURVE",
"184 584 OFFCURVE",
"184 618 CURVE SMOOTH",
"184 637 OFFCURVE",
"175 652 OFFCURVE",
"150 659 CURVE",
"182 690 OFFCURVE",
"224 705 OFFCURVE",
"262 705 CURVE SMOOTH",
"346 705 OFFCURVE",
"373 649 OFFCURVE",
"373 566 CURVE SMOOTH",
"373 438 OFFCURVE",
"296 340 OFFCURVE",
"183 340 CURVE",
"191 300 LINE"
);
},
{
closed = 1;
nodes = (
"295 35 LINE",
"221 35 LINE",
"216 40 LINE",
"254 310 LINE",
"183 340 LINE",
"141 40 LINE",
"136 35 LINE",
"60 35 LINE",
"55 0 LINE",
"290 0 LINE"
);
}
);
width = 459;
},
{
layerId = "37DD2CA1-C758-4BBE-932B-6884A881B1A3";
paths = (
{
closed = 1;
nodes = (
"336 332 OFFCURVE",
"503 412 OFFCURVE",
"503 565 CURVE SMOOTH",
"503 678 OFFCURVE",
"405 740 OFFCURVE",
"291 740 CURVE SMOOTH",
"174 740 OFFCURVE",
"69 674 OFFCURVE",
"69 597 CURVE SMOOTH",
"69 559 OFFCURVE",
"94 535 OFFCURVE",
"129 535 CURVE SMOOTH",
"173 535 OFFCURVE",
"210 572 OFFCURVE",
"210 614 CURVE SMOOTH",
"210 637 OFFCURVE",
"197 664 OFFCURVE",
"156 670 CURVE",
"178 690 OFFCURVE",
"230 705 OFFCURVE",
"265 705 CURVE SMOOTH",
"328 705 OFFCURVE",
"353 658 OFFCURVE",
"353 569 CURVE SMOOTH",
"353 418 OFFCURVE",
"281 357 OFFCURVE",
"192 340 CURVE",
"217 300 LINE"
);
},
{
closed = 1;
nodes = (
"344 35 LINE",
"296 35 LINE",
"286 45 LINE",
"329 351 LINE",
"192 340 LINE",
"151 45 LINE",
"141 35 LINE",
"89 35 LINE",
"84 0 LINE",
"339 0 LINE"
);
}
);
width = 489;
}
);
leftMetricsKey = "=|c";
rightMetricsKey = "=o";
unicode = 0294;
},
{
color = 6;
glyphname = glottalstopreversed;
layers = (
{
layerId = "CF31647D-EA7E-42DE-ACE7-E9318D6117AA";
paths = (
{
closed = 1;
nodes = (
"309 340 LINE",
"207 340 OFFCURVE",
"172 415 OFFCURVE",
"172 504 CURVE SMOOTH",
"172 618 OFFCURVE",
"236 705 OFFCURVE",
"334 705 CURVE SMOOTH",
"369 705 OFFCURVE",
"408 690 OFFCURVE",
"432 659 CURVE",
"400 651 OFFCURVE",
"383 629 OFFCURVE",
"383 603 CURVE SMOOTH",
"383 578 OFFCURVE",
"403 560 OFFCURVE",
"427 560 CURVE SMOOTH",
"461 560 OFFCURVE",
"486 590 OFFCURVE",
"486 629 CURVE SMOOTH",
"486 695 OFFCURVE",
"414 740 OFFCURVE",
"332 740 CURVE SMOOTH",
"198 740 OFFCURVE",
"90 628 OFFCURVE",
"90 494 CURVE SMOOTH",
"90 394 OFFCURVE",
"146 300 OFFCURVE",
"289 300 CURVE"
);
},
{
closed = 1;
nodes = (
"341 0 LINE",
"346 35 LINE",
"272 35 LINE",
"267 40 LINE",
"309 340 LINE",
"230 310 LINE",
"192 40 LINE",
"187 35 LINE",
"111 35 LINE",
"106 0 LINE"
);
}
);
width = 461;
},
{
layerId = "37DD2CA1-C758-4BBE-932B-6884A881B1A3";
paths = (
{
closed = 1;
nodes = (
"325 340 LINE",
"242 360 OFFCURVE",
"216 400 OFFCURVE",
"216 489 CURVE SMOOTH",
"216 615 OFFCURVE",
"269 705 OFFCURVE",
"355 705 CURVE SMOOTH",
"388 705 OFFCURVE",
"434 692 OFFCURVE",
"453 670 CURVE",
"405 663 OFFCURVE",
"381 628 OFFCURVE",
"381 594 CURVE SMOOTH",
"381 560 OFFCURVE",
"406 535 OFFCURVE",
"442 535 CURVE SMOOTH",
"486 535 OFFCURVE",
"523 574 OFFCURVE",
"523 619 CURVE SMOOTH",
"523 685 OFFCURVE",
"445 740 OFFCURVE",
"338 740 CURVE SMOOTH",
"194 740 OFFCURVE",
"70 646 OFFCURVE",
"70 513 CURVE SMOOTH",
"70 394 OFFCURVE",
"168 336 OFFCURVE",
"288 300 CURVE"
);
},
{
closed = 1;
nodes = (
"337 0 LINE",
"342 35 LINE",
"293 35 LINE",
"283 45 LINE",
"325 340 LINE",
"191 351 LINE",
"148 45 LINE",
"138 35 LINE",
"87 35 LINE",
"82 0 LINE"
);
}
);
width = 489;
}
);
leftMetricsKey = "=c";
rightMetricsKey = "=c";
unicode = 0295;
},
